M48
; DRILL file {KiCad 5.1.9+dfsg1-1~bpo10+1} date Fri Sep 24 07:36:11 2021
; FORMAT={-:-/ absolute / metric / decimal}
; #@! TF.CreationDate,2021-09-24T07:36:11+00:00
; #@! TF.GenerationSoftware,Kicad,Pcbnew,5.1.9+dfsg1-1~bpo10+1
FMAT,2
METRIC
T1C0.400
T2C1.000
T3C1.150
T4C4.300
%
G90
G05
T1
X118.0Y-75.0
X118.5Y-83.0
X118.5Y-91.5
X119.0Y-73.0
X119.0Y-80.0
X119.0Y-88.0
X119.0Y-100.5
X119.5Y-56.5
X119.5Y-98.0
X122.5Y-56.0
X122.5Y-59.5
X122.5Y-78.0
X122.5Y-88.0
X122.5Y-98.0
X122.5Y-108.0
X124.5Y-101.0
X125.0Y-90.5
X125.5Y-81.0
X129.0Y-75.5
X129.0Y-85.5
X129.0Y-96.0
X129.0Y-106.0
X130.5Y-68.5
X132.5Y-79.0
X132.5Y-89.0
X132.5Y-99.0
X132.5Y-109.0
X134.5Y-70.5
X135.0Y-66.0
X136.0Y-73.5
X136.0Y-83.5
X136.0Y-93.5
X136.0Y-103.5
X138.0Y-68.5
X139.0Y-76.0
X139.0Y-86.0
X139.0Y-96.0
X139.0Y-106.0
X146.0Y-73.5
X146.0Y-83.5
X146.0Y-93.5
X146.0Y-103.5
X149.0Y-76.0
X149.0Y-86.0
X149.0Y-96.0
X149.0Y-106.0
X152.5Y-77.5
X152.5Y-87.9
X152.5Y-97.9
X156.0Y-73.5
X156.0Y-83.5
X156.0Y-93.5
X156.0Y-103.5
T2
X105.0Y-55.0
X105.0Y-57.54
X105.0Y-60.08
X137.96Y-56.0
X137.96Y-58.54
X137.96Y-61.08
X137.96Y-63.62
X140.5Y-56.0
X140.5Y-58.54
X140.5Y-61.08
X140.5Y-63.62
T3
X111.0Y-87.0
X111.0Y-92.0
T4
X115.0Y-65.0
X115.0Y-115.0
X165.0Y-65.0
X165.0Y-115.0
T0
M30
