%TF.GenerationSoftware,KiCad,Pcbnew,5.1.9+dfsg1-1~bpo10+1*%
%TF.CreationDate,2021-09-24T09:13:29+00:00*%
%TF.ProjectId,blinkenlights,626c696e-6b65-46e6-9c69-676874732e6b,rev?*%
%TF.SameCoordinates,Original*%
%TF.FileFunction,Plated,1,2,PTH,Drill*%
%TF.FilePolarity,Positive*%
%FSLAX46Y46*%
G04 Gerber Fmt 4.6, Leading zero omitted, Abs format (unit mm)*
G04 Created by KiCad (PCBNEW 5.1.9+dfsg1-1~bpo10+1) date 2021-09-24 09:13:29*
%MOMM*%
%LPD*%
G01*
G04 APERTURE LIST*
%TA.AperFunction,ViaDrill*%
%ADD10C,0.400000*%
%TD*%
%TA.AperFunction,ComponentDrill*%
%ADD11C,1.000000*%
%TD*%
%TA.AperFunction,ComponentDrill*%
%ADD12C,1.150000*%
%TD*%
%TA.AperFunction,ComponentDrill*%
%ADD13C,4.300000*%
%TD*%
G04 APERTURE END LIST*
D10*
X118000000Y-75000000D03*
X118500000Y-83000000D03*
X118500000Y-91500000D03*
X119000000Y-73000000D03*
X119000000Y-80000000D03*
X119000000Y-88000000D03*
X119000000Y-100500000D03*
X119500000Y-56500000D03*
X119500000Y-98000000D03*
X122500000Y-56000000D03*
X122500000Y-59500000D03*
X122500000Y-78000000D03*
X122500000Y-88000000D03*
X122500000Y-98000000D03*
X122500000Y-108000000D03*
X124500000Y-101000000D03*
X125000000Y-90500000D03*
X125500000Y-81000000D03*
X129000000Y-75500000D03*
X129000000Y-85500000D03*
X129000000Y-96000000D03*
X129000000Y-106000000D03*
X130500000Y-68500000D03*
X132500000Y-79000000D03*
X132500000Y-89000000D03*
X132500000Y-99000000D03*
X132500000Y-109000000D03*
X134500000Y-70500000D03*
X135000000Y-66000000D03*
X136000000Y-73500000D03*
X136000000Y-83500000D03*
X136000000Y-93500000D03*
X136000000Y-103500000D03*
X138000000Y-68500000D03*
X139000000Y-76000000D03*
X139000000Y-86000000D03*
X139000000Y-96000000D03*
X139000000Y-106000000D03*
X146000000Y-73500000D03*
X146000000Y-83500000D03*
X146000000Y-93500000D03*
X146000000Y-103500000D03*
X149000000Y-76000000D03*
X149000000Y-86000000D03*
X149000000Y-96000000D03*
X149000000Y-106000000D03*
X152500000Y-77500000D03*
X152500000Y-87900011D03*
X152500000Y-97900011D03*
X156000000Y-73500000D03*
X156000000Y-83500000D03*
X156000000Y-93500000D03*
X156000000Y-103500000D03*
D11*
%TO.C,J103*%
X105000000Y-55000000D03*
X105000000Y-57540000D03*
X105000000Y-60080000D03*
%TO.C,J101*%
X137960000Y-56000000D03*
X137960000Y-58540000D03*
X137960000Y-61080000D03*
X137960000Y-63620000D03*
X140500000Y-56000000D03*
X140500000Y-58540000D03*
X140500000Y-61080000D03*
X140500000Y-63620000D03*
D12*
%TO.C,J104*%
X111000000Y-87000000D03*
X111000000Y-92000000D03*
D13*
%TO.C,H101*%
X115000000Y-65000000D03*
%TO.C,H103*%
X115000000Y-115000000D03*
%TO.C,H102*%
X165000000Y-65000000D03*
%TO.C,H104*%
X165000000Y-115000000D03*
M02*
