%TF.GenerationSoftware,KiCad,Pcbnew,5.1.9+dfsg1-1~bpo10+1*%
%TF.CreationDate,2021-09-24T09:13:29+00:00*%
%TF.ProjectId,blinkenlights,626c696e-6b65-46e6-9c69-676874732e6b,rev?*%
%TF.SameCoordinates,Original*%
%TF.FileFunction,Other,Fab,Top*%
%FSLAX46Y46*%
G04 Gerber Fmt 4.6, Leading zero omitted, Abs format (unit mm)*
G04 Created by KiCad (PCBNEW 5.1.9+dfsg1-1~bpo10+1) date 2021-09-24 09:13:29*
%MOMM*%
%LPD*%
G01*
G04 APERTURE LIST*
%ADD10C,0.100000*%
%ADD11C,0.150000*%
%ADD12C,0.130000*%
%ADD13C,0.040000*%
%ADD14C,0.120000*%
G04 APERTURE END LIST*
D10*
%TO.C,C101*%
X102600000Y-73250000D02*
X102600000Y-76050000D01*
X102600000Y-76050000D02*
X103300000Y-76750000D01*
X103300000Y-76750000D02*
X105400000Y-76750000D01*
X105400000Y-76750000D02*
X105400000Y-73250000D01*
X105400000Y-73250000D02*
X102600000Y-73250000D01*
%TO.C,C102*%
X124250000Y-69900000D02*
X124250000Y-67100000D01*
X120750000Y-69900000D02*
X124250000Y-69900000D01*
X120750000Y-67800000D02*
X120750000Y-69900000D01*
X121450000Y-67100000D02*
X120750000Y-67800000D01*
X124250000Y-67100000D02*
X121450000Y-67100000D01*
%TO.C,C201*%
X120520000Y-72250000D02*
X119520000Y-72250000D01*
X120520000Y-71750000D02*
X120520000Y-72250000D01*
X119520000Y-71750000D02*
X120520000Y-71750000D01*
X119520000Y-72250000D02*
X119520000Y-71750000D01*
%TO.C,C202*%
X130520000Y-72250000D02*
X129520000Y-72250000D01*
X130520000Y-71750000D02*
X130520000Y-72250000D01*
X129520000Y-71750000D02*
X130520000Y-71750000D01*
X129520000Y-72250000D02*
X129520000Y-71750000D01*
%TO.C,C203*%
X139520000Y-72250000D02*
X139520000Y-71750000D01*
X139520000Y-71750000D02*
X140520000Y-71750000D01*
X140520000Y-71750000D02*
X140520000Y-72250000D01*
X140520000Y-72250000D02*
X139520000Y-72250000D01*
%TO.C,C204*%
X149520000Y-72250000D02*
X149520000Y-71750000D01*
X149520000Y-71750000D02*
X150520000Y-71750000D01*
X150520000Y-71750000D02*
X150520000Y-72250000D01*
X150520000Y-72250000D02*
X149520000Y-72250000D01*
%TO.C,C205*%
X119520000Y-82250000D02*
X119520000Y-81750000D01*
X119520000Y-81750000D02*
X120520000Y-81750000D01*
X120520000Y-81750000D02*
X120520000Y-82250000D01*
X120520000Y-82250000D02*
X119520000Y-82250000D01*
%TO.C,C206*%
X129520000Y-82250000D02*
X129520000Y-81750000D01*
X129520000Y-81750000D02*
X130520000Y-81750000D01*
X130520000Y-81750000D02*
X130520000Y-82250000D01*
X130520000Y-82250000D02*
X129520000Y-82250000D01*
%TO.C,C207*%
X139520000Y-82250000D02*
X139520000Y-81750000D01*
X139520000Y-81750000D02*
X140520000Y-81750000D01*
X140520000Y-81750000D02*
X140520000Y-82250000D01*
X140520000Y-82250000D02*
X139520000Y-82250000D01*
%TO.C,C208*%
X150500000Y-82250000D02*
X149500000Y-82250000D01*
X150500000Y-81750000D02*
X150500000Y-82250000D01*
X149500000Y-81750000D02*
X150500000Y-81750000D01*
X149500000Y-82250000D02*
X149500000Y-81750000D01*
%TO.C,C209*%
X120520000Y-92250000D02*
X119520000Y-92250000D01*
X120520000Y-91750000D02*
X120520000Y-92250000D01*
X119520000Y-91750000D02*
X120520000Y-91750000D01*
X119520000Y-92250000D02*
X119520000Y-91750000D01*
%TO.C,C210*%
X130520000Y-92250000D02*
X129520000Y-92250000D01*
X130520000Y-91750000D02*
X130520000Y-92250000D01*
X129520000Y-91750000D02*
X130520000Y-91750000D01*
X129520000Y-92250000D02*
X129520000Y-91750000D01*
%TO.C,C211*%
X140520000Y-92250000D02*
X139520000Y-92250000D01*
X140520000Y-91750000D02*
X140520000Y-92250000D01*
X139520000Y-91750000D02*
X140520000Y-91750000D01*
X139520000Y-92250000D02*
X139520000Y-91750000D01*
%TO.C,C212*%
X150500000Y-92250000D02*
X149500000Y-92250000D01*
X150500000Y-91750000D02*
X150500000Y-92250000D01*
X149500000Y-91750000D02*
X150500000Y-91750000D01*
X149500000Y-92250000D02*
X149500000Y-91750000D01*
%TO.C,C213*%
X119500000Y-102250000D02*
X119500000Y-101750000D01*
X119500000Y-101750000D02*
X120500000Y-101750000D01*
X120500000Y-101750000D02*
X120500000Y-102250000D01*
X120500000Y-102250000D02*
X119500000Y-102250000D01*
%TO.C,C214*%
X129500000Y-102250000D02*
X129500000Y-101750000D01*
X129500000Y-101750000D02*
X130500000Y-101750000D01*
X130500000Y-101750000D02*
X130500000Y-102250000D01*
X130500000Y-102250000D02*
X129500000Y-102250000D01*
%TO.C,C215*%
X140500000Y-102250000D02*
X139500000Y-102250000D01*
X140500000Y-101750000D02*
X140500000Y-102250000D01*
X139500000Y-101750000D02*
X140500000Y-101750000D01*
X139500000Y-102250000D02*
X139500000Y-101750000D01*
%TO.C,C216*%
X149500000Y-102250000D02*
X149500000Y-101750000D01*
X149500000Y-101750000D02*
X150500000Y-101750000D01*
X150500000Y-101750000D02*
X150500000Y-102250000D01*
X150500000Y-102250000D02*
X149500000Y-102250000D01*
%TO.C,D201*%
X127000000Y-75000000D02*
G75*
G03*
X127000000Y-75000000I-2000000J0D01*
G01*
X122500000Y-77500000D02*
X122500000Y-72500000D01*
X127500000Y-77500000D02*
X122500000Y-77500000D01*
X127500000Y-72500000D02*
X127500000Y-77500000D01*
X122500000Y-72500000D02*
X127500000Y-72500000D01*
X122500000Y-73500000D02*
X123500000Y-72500000D01*
%TO.C,D202*%
X132500000Y-73500000D02*
X133500000Y-72500000D01*
X132500000Y-72500000D02*
X137500000Y-72500000D01*
X137500000Y-72500000D02*
X137500000Y-77500000D01*
X137500000Y-77500000D02*
X132500000Y-77500000D01*
X132500000Y-77500000D02*
X132500000Y-72500000D01*
X137000000Y-75000000D02*
G75*
G03*
X137000000Y-75000000I-2000000J0D01*
G01*
%TO.C,D203*%
X147000000Y-75000000D02*
G75*
G03*
X147000000Y-75000000I-2000000J0D01*
G01*
X142500000Y-77500000D02*
X142500000Y-72500000D01*
X147500000Y-77500000D02*
X142500000Y-77500000D01*
X147500000Y-72500000D02*
X147500000Y-77500000D01*
X142500000Y-72500000D02*
X147500000Y-72500000D01*
X142500000Y-73500000D02*
X143500000Y-72500000D01*
%TO.C,D204*%
X157000000Y-75000000D02*
G75*
G03*
X157000000Y-75000000I-2000000J0D01*
G01*
X152500000Y-77500000D02*
X152500000Y-72500000D01*
X157500000Y-77500000D02*
X152500000Y-77500000D01*
X157500000Y-72500000D02*
X157500000Y-77500000D01*
X152500000Y-72500000D02*
X157500000Y-72500000D01*
X152500000Y-73500000D02*
X153500000Y-72500000D01*
%TO.C,D205*%
X122500000Y-83500000D02*
X123500000Y-82500000D01*
X122500000Y-82500000D02*
X127500000Y-82500000D01*
X127500000Y-82500000D02*
X127500000Y-87500000D01*
X127500000Y-87500000D02*
X122500000Y-87500000D01*
X122500000Y-87500000D02*
X122500000Y-82500000D01*
X127000000Y-85000000D02*
G75*
G03*
X127000000Y-85000000I-2000000J0D01*
G01*
%TO.C,D206*%
X132500000Y-83500000D02*
X133500000Y-82500000D01*
X132500000Y-82500000D02*
X137500000Y-82500000D01*
X137500000Y-82500000D02*
X137500000Y-87500000D01*
X137500000Y-87500000D02*
X132500000Y-87500000D01*
X132500000Y-87500000D02*
X132500000Y-82500000D01*
X137000000Y-85000000D02*
G75*
G03*
X137000000Y-85000000I-2000000J0D01*
G01*
%TO.C,D207*%
X142500000Y-83500000D02*
X143500000Y-82500000D01*
X142500000Y-82500000D02*
X147500000Y-82500000D01*
X147500000Y-82500000D02*
X147500000Y-87500000D01*
X147500000Y-87500000D02*
X142500000Y-87500000D01*
X142500000Y-87500000D02*
X142500000Y-82500000D01*
X147000000Y-85000000D02*
G75*
G03*
X147000000Y-85000000I-2000000J0D01*
G01*
%TO.C,D208*%
X157000000Y-85000000D02*
G75*
G03*
X157000000Y-85000000I-2000000J0D01*
G01*
X152500000Y-87500000D02*
X152500000Y-82500000D01*
X157500000Y-87500000D02*
X152500000Y-87500000D01*
X157500000Y-82500000D02*
X157500000Y-87500000D01*
X152500000Y-82500000D02*
X157500000Y-82500000D01*
X152500000Y-83500000D02*
X153500000Y-82500000D01*
%TO.C,D209*%
X122500000Y-93500000D02*
X123500000Y-92500000D01*
X122500000Y-92500000D02*
X127500000Y-92500000D01*
X127500000Y-92500000D02*
X127500000Y-97500000D01*
X127500000Y-97500000D02*
X122500000Y-97500000D01*
X122500000Y-97500000D02*
X122500000Y-92500000D01*
X127000000Y-95000000D02*
G75*
G03*
X127000000Y-95000000I-2000000J0D01*
G01*
%TO.C,D210*%
X132500000Y-93500000D02*
X133500000Y-92500000D01*
X132500000Y-92500000D02*
X137500000Y-92500000D01*
X137500000Y-92500000D02*
X137500000Y-97500000D01*
X137500000Y-97500000D02*
X132500000Y-97500000D01*
X132500000Y-97500000D02*
X132500000Y-92500000D01*
X137000000Y-95000000D02*
G75*
G03*
X137000000Y-95000000I-2000000J0D01*
G01*
%TO.C,D211*%
X142500000Y-93500000D02*
X143500000Y-92500000D01*
X142500000Y-92500000D02*
X147500000Y-92500000D01*
X147500000Y-92500000D02*
X147500000Y-97500000D01*
X147500000Y-97500000D02*
X142500000Y-97500000D01*
X142500000Y-97500000D02*
X142500000Y-92500000D01*
X147000000Y-95000000D02*
G75*
G03*
X147000000Y-95000000I-2000000J0D01*
G01*
%TO.C,D212*%
X157000000Y-95000000D02*
G75*
G03*
X157000000Y-95000000I-2000000J0D01*
G01*
X152500000Y-97500000D02*
X152500000Y-92500000D01*
X157500000Y-97500000D02*
X152500000Y-97500000D01*
X157500000Y-92500000D02*
X157500000Y-97500000D01*
X152500000Y-92500000D02*
X157500000Y-92500000D01*
X152500000Y-93500000D02*
X153500000Y-92500000D01*
%TO.C,D213*%
X127000000Y-105000000D02*
G75*
G03*
X127000000Y-105000000I-2000000J0D01*
G01*
X122500000Y-107500000D02*
X122500000Y-102500000D01*
X127500000Y-107500000D02*
X122500000Y-107500000D01*
X127500000Y-102500000D02*
X127500000Y-107500000D01*
X122500000Y-102500000D02*
X127500000Y-102500000D01*
X122500000Y-103500000D02*
X123500000Y-102500000D01*
%TO.C,D214*%
X132500000Y-103500000D02*
X133500000Y-102500000D01*
X132500000Y-102500000D02*
X137500000Y-102500000D01*
X137500000Y-102500000D02*
X137500000Y-107500000D01*
X137500000Y-107500000D02*
X132500000Y-107500000D01*
X132500000Y-107500000D02*
X132500000Y-102500000D01*
X137000000Y-105000000D02*
G75*
G03*
X137000000Y-105000000I-2000000J0D01*
G01*
%TO.C,D215*%
X147000000Y-105000000D02*
G75*
G03*
X147000000Y-105000000I-2000000J0D01*
G01*
X142500000Y-107500000D02*
X142500000Y-102500000D01*
X147500000Y-107500000D02*
X142500000Y-107500000D01*
X147500000Y-102500000D02*
X147500000Y-107500000D01*
X142500000Y-102500000D02*
X147500000Y-102500000D01*
X142500000Y-103500000D02*
X143500000Y-102500000D01*
%TO.C,D216*%
X157000000Y-105000000D02*
G75*
G03*
X157000000Y-105000000I-2000000J0D01*
G01*
X152500000Y-107500000D02*
X152500000Y-102500000D01*
X157500000Y-107500000D02*
X152500000Y-107500000D01*
X157500000Y-102500000D02*
X157500000Y-107500000D01*
X152500000Y-102500000D02*
X157500000Y-102500000D01*
X152500000Y-103500000D02*
X153500000Y-102500000D01*
%TO.C,J101*%
X136690000Y-64890000D02*
X136690000Y-54730000D01*
X141770000Y-64890000D02*
X136690000Y-64890000D01*
X141770000Y-55730000D02*
X141770000Y-64890000D01*
X140770000Y-54730000D02*
X141770000Y-55730000D01*
X136690000Y-54730000D02*
X140770000Y-54730000D01*
%TO.C,J102*%
X131100000Y-64130000D02*
X130040000Y-64130000D01*
X131100000Y-63490000D02*
X131100000Y-64130000D01*
X130040000Y-63490000D02*
X131100000Y-63490000D01*
X123900000Y-64130000D02*
X124960000Y-64130000D01*
X123900000Y-63490000D02*
X123900000Y-64130000D01*
X124960000Y-63490000D02*
X123900000Y-63490000D01*
X131100000Y-61590000D02*
X130040000Y-61590000D01*
X131100000Y-60950000D02*
X131100000Y-61590000D01*
X130040000Y-60950000D02*
X131100000Y-60950000D01*
X123900000Y-61590000D02*
X124960000Y-61590000D01*
X123900000Y-60950000D02*
X123900000Y-61590000D01*
X124960000Y-60950000D02*
X123900000Y-60950000D01*
X131100000Y-59050000D02*
X130040000Y-59050000D01*
X131100000Y-58410000D02*
X131100000Y-59050000D01*
X130040000Y-58410000D02*
X131100000Y-58410000D01*
X123900000Y-59050000D02*
X124960000Y-59050000D01*
X123900000Y-58410000D02*
X123900000Y-59050000D01*
X124960000Y-58410000D02*
X123900000Y-58410000D01*
X131100000Y-56510000D02*
X130040000Y-56510000D01*
X131100000Y-55870000D02*
X131100000Y-56510000D01*
X130040000Y-55870000D02*
X131100000Y-55870000D01*
X123900000Y-56510000D02*
X124960000Y-56510000D01*
X123900000Y-55870000D02*
X123900000Y-56510000D01*
X124960000Y-55870000D02*
X123900000Y-55870000D01*
X130040000Y-54920000D02*
X130040000Y-65080000D01*
X124960000Y-55870000D02*
X125910000Y-54920000D01*
X124960000Y-65080000D02*
X124960000Y-55870000D01*
X125910000Y-54920000D02*
X130040000Y-54920000D01*
X130040000Y-65080000D02*
X124960000Y-65080000D01*
%TO.C,J103*%
X103730000Y-54365000D02*
X104365000Y-53730000D01*
X103730000Y-61350000D02*
X103730000Y-54365000D01*
X106270000Y-61350000D02*
X103730000Y-61350000D01*
X106270000Y-53730000D02*
X106270000Y-61350000D01*
X104365000Y-53730000D02*
X106270000Y-53730000D01*
%TO.C,J104*%
X115650000Y-93000000D02*
X115650000Y-92000000D01*
X113150000Y-93000000D02*
X115650000Y-93000000D01*
X113150000Y-92000000D02*
X113150000Y-93000000D01*
X115650000Y-92000000D02*
X113150000Y-92000000D01*
X108300000Y-94500000D02*
X108300000Y-90500000D01*
X107300000Y-94500000D02*
X108300000Y-94500000D01*
X107300000Y-90500000D02*
X107300000Y-94500000D01*
X108300000Y-90500000D02*
X107300000Y-90500000D01*
X116000000Y-95000000D02*
X116000000Y-90000000D01*
X102000000Y-95000000D02*
X116000000Y-95000000D01*
X102000000Y-90000000D02*
X102000000Y-95000000D01*
X116000000Y-90000000D02*
X102000000Y-90000000D01*
X106600000Y-94500000D02*
X106600000Y-90500000D01*
X103300000Y-94500000D02*
X106600000Y-94500000D01*
X103300000Y-90500000D02*
X103300000Y-94500000D01*
X106600000Y-90500000D02*
X103300000Y-90500000D01*
X115650000Y-88000000D02*
X115650000Y-87000000D01*
X113150000Y-88000000D02*
X115650000Y-88000000D01*
X113150000Y-87000000D02*
X113150000Y-88000000D01*
X115650000Y-87000000D02*
X113150000Y-87000000D01*
X108300000Y-89500000D02*
X108300000Y-85500000D01*
X107300000Y-89500000D02*
X108300000Y-89500000D01*
X107300000Y-85500000D02*
X107300000Y-89500000D01*
X108300000Y-85500000D02*
X107300000Y-85500000D01*
X116000000Y-90000000D02*
X116000000Y-85000000D01*
X102000000Y-90000000D02*
X116000000Y-90000000D01*
X102000000Y-85000000D02*
X102000000Y-90000000D01*
X116000000Y-85000000D02*
X102000000Y-85000000D01*
X106600000Y-89500000D02*
X106600000Y-85500000D01*
X103300000Y-89500000D02*
X106600000Y-89500000D01*
X103300000Y-85500000D02*
X103300000Y-89500000D01*
X106600000Y-85500000D02*
X103300000Y-85500000D01*
X111500000Y-83500000D02*
X111500000Y-95800000D01*
X108700000Y-83500000D02*
X108700000Y-95800000D01*
X103000000Y-83500000D02*
X103000000Y-95800000D01*
X103000000Y-83500000D02*
X116000000Y-83500000D01*
X102000000Y-84500000D02*
X103000000Y-83500000D01*
X102000000Y-95800000D02*
X102000000Y-84500000D01*
X116000000Y-95800000D02*
X102000000Y-95800000D01*
X116000000Y-83500000D02*
X116000000Y-95800000D01*
%TO.C,R201*%
X120770000Y-74525000D02*
X120230000Y-74525000D01*
X120230000Y-74525000D02*
X120230000Y-73475000D01*
X120230000Y-73475000D02*
X120770000Y-73475000D01*
X120770000Y-73475000D02*
X120770000Y-74525000D01*
%TO.C,R202*%
X130770000Y-74525000D02*
X130230000Y-74525000D01*
X130230000Y-74525000D02*
X130230000Y-73475000D01*
X130230000Y-73475000D02*
X130770000Y-73475000D01*
X130770000Y-73475000D02*
X130770000Y-74525000D01*
%TO.C,R203*%
X140770000Y-74525000D02*
X140230000Y-74525000D01*
X140230000Y-74525000D02*
X140230000Y-73475000D01*
X140230000Y-73475000D02*
X140770000Y-73475000D01*
X140770000Y-73475000D02*
X140770000Y-74525000D01*
%TO.C,R204*%
X150770000Y-74525000D02*
X150230000Y-74525000D01*
X150230000Y-74525000D02*
X150230000Y-73475000D01*
X150230000Y-73475000D02*
X150770000Y-73475000D01*
X150770000Y-73475000D02*
X150770000Y-74525000D01*
%TO.C,R205*%
X120770000Y-84525000D02*
X120230000Y-84525000D01*
X120230000Y-84525000D02*
X120230000Y-83475000D01*
X120230000Y-83475000D02*
X120770000Y-83475000D01*
X120770000Y-83475000D02*
X120770000Y-84525000D01*
%TO.C,R206*%
X130770000Y-84525000D02*
X130230000Y-84525000D01*
X130230000Y-84525000D02*
X130230000Y-83475000D01*
X130230000Y-83475000D02*
X130770000Y-83475000D01*
X130770000Y-83475000D02*
X130770000Y-84525000D01*
%TO.C,R207*%
X140770000Y-84525000D02*
X140230000Y-84525000D01*
X140230000Y-84525000D02*
X140230000Y-83475000D01*
X140230000Y-83475000D02*
X140770000Y-83475000D01*
X140770000Y-83475000D02*
X140770000Y-84525000D01*
%TO.C,R208*%
X150770000Y-83465000D02*
X150770000Y-84515000D01*
X150230000Y-83465000D02*
X150770000Y-83465000D01*
X150230000Y-84515000D02*
X150230000Y-83465000D01*
X150770000Y-84515000D02*
X150230000Y-84515000D01*
%TO.C,R209*%
X120770000Y-93475000D02*
X120770000Y-94525000D01*
X120230000Y-93475000D02*
X120770000Y-93475000D01*
X120230000Y-94525000D02*
X120230000Y-93475000D01*
X120770000Y-94525000D02*
X120230000Y-94525000D01*
%TO.C,R210*%
X130770000Y-93475000D02*
X130770000Y-94525000D01*
X130230000Y-93475000D02*
X130770000Y-93475000D01*
X130230000Y-94525000D02*
X130230000Y-93475000D01*
X130770000Y-94525000D02*
X130230000Y-94525000D01*
%TO.C,R211*%
X140770000Y-93475000D02*
X140770000Y-94525000D01*
X140230000Y-93475000D02*
X140770000Y-93475000D01*
X140230000Y-94525000D02*
X140230000Y-93475000D01*
X140770000Y-94525000D02*
X140230000Y-94525000D01*
%TO.C,R212*%
X150770000Y-93475000D02*
X150770000Y-94525000D01*
X150230000Y-93475000D02*
X150770000Y-93475000D01*
X150230000Y-94525000D02*
X150230000Y-93475000D01*
X150770000Y-94525000D02*
X150230000Y-94525000D01*
%TO.C,R213*%
X120770000Y-103475000D02*
X120770000Y-104525000D01*
X120230000Y-103475000D02*
X120770000Y-103475000D01*
X120230000Y-104525000D02*
X120230000Y-103475000D01*
X120770000Y-104525000D02*
X120230000Y-104525000D01*
%TO.C,R214*%
X130770000Y-103485000D02*
X130770000Y-104535000D01*
X130230000Y-103485000D02*
X130770000Y-103485000D01*
X130230000Y-104535000D02*
X130230000Y-103485000D01*
X130770000Y-104535000D02*
X130230000Y-104535000D01*
%TO.C,R215*%
X140770000Y-103475000D02*
X140770000Y-104525000D01*
X140230000Y-103475000D02*
X140770000Y-103475000D01*
X140230000Y-104525000D02*
X140230000Y-103475000D01*
X140770000Y-104525000D02*
X140230000Y-104525000D01*
%TO.C,R216*%
X150770000Y-104525000D02*
X150230000Y-104525000D01*
X150230000Y-104525000D02*
X150230000Y-103475000D01*
X150230000Y-103475000D02*
X150770000Y-103475000D01*
X150770000Y-103475000D02*
X150770000Y-104525000D01*
%TO.C,U101*%
X112850000Y-71650000D02*
X112850000Y-78350000D01*
X109150000Y-78350000D02*
X112850000Y-78350000D01*
X110150000Y-71650000D02*
X112850000Y-71650000D01*
X109150000Y-72650000D02*
X109150000Y-78350000D01*
X109150000Y-72650000D02*
X110150000Y-71650000D01*
%TD*%
%TO.C,C101*%
D11*
X105897619Y-76285714D02*
X105850000Y-76238095D01*
X105802380Y-76142857D01*
X105802380Y-75904761D01*
X105850000Y-75809523D01*
X105897619Y-75761904D01*
X105992857Y-75714285D01*
X106088095Y-75714285D01*
X106230952Y-75761904D01*
X106802380Y-76333333D01*
X106802380Y-75714285D01*
X105897619Y-75333333D02*
X105850000Y-75285714D01*
X105802380Y-75190476D01*
X105802380Y-74952380D01*
X105850000Y-74857142D01*
X105897619Y-74809523D01*
X105992857Y-74761904D01*
X106088095Y-74761904D01*
X106230952Y-74809523D01*
X106802380Y-75380952D01*
X106802380Y-74761904D01*
X106135714Y-74333333D02*
X107135714Y-74333333D01*
X106659523Y-73857142D02*
X106754761Y-73809523D01*
X106802380Y-73714285D01*
X106659523Y-74333333D02*
X106754761Y-74285714D01*
X106802380Y-74190476D01*
X106802380Y-74000000D01*
X106754761Y-73904761D01*
X106659523Y-73857142D01*
X106135714Y-73857142D01*
D12*
X104314285Y-75984761D02*
X104356190Y-76026666D01*
X104398095Y-76152380D01*
X104398095Y-76236190D01*
X104356190Y-76361904D01*
X104272380Y-76445714D01*
X104188571Y-76487619D01*
X104020952Y-76529523D01*
X103895238Y-76529523D01*
X103727619Y-76487619D01*
X103643809Y-76445714D01*
X103560000Y-76361904D01*
X103518095Y-76236190D01*
X103518095Y-76152380D01*
X103560000Y-76026666D01*
X103601904Y-75984761D01*
X104398095Y-75146666D02*
X104398095Y-75649523D01*
X104398095Y-75398095D02*
X103518095Y-75398095D01*
X103643809Y-75481904D01*
X103727619Y-75565714D01*
X103769523Y-75649523D01*
X103518095Y-74601904D02*
X103518095Y-74518095D01*
X103560000Y-74434285D01*
X103601904Y-74392380D01*
X103685714Y-74350476D01*
X103853333Y-74308571D01*
X104062857Y-74308571D01*
X104230476Y-74350476D01*
X104314285Y-74392380D01*
X104356190Y-74434285D01*
X104398095Y-74518095D01*
X104398095Y-74601904D01*
X104356190Y-74685714D01*
X104314285Y-74727619D01*
X104230476Y-74769523D01*
X104062857Y-74811428D01*
X103853333Y-74811428D01*
X103685714Y-74769523D01*
X103601904Y-74727619D01*
X103560000Y-74685714D01*
X103518095Y-74601904D01*
X104398095Y-73470476D02*
X104398095Y-73973333D01*
X104398095Y-73721904D02*
X103518095Y-73721904D01*
X103643809Y-73805714D01*
X103727619Y-73889523D01*
X103769523Y-73973333D01*
%TO.C,C102*%
D11*
X121214285Y-70397619D02*
X121261904Y-70350000D01*
X121357142Y-70302380D01*
X121595238Y-70302380D01*
X121690476Y-70350000D01*
X121738095Y-70397619D01*
X121785714Y-70492857D01*
X121785714Y-70588095D01*
X121738095Y-70730952D01*
X121166666Y-71302380D01*
X121785714Y-71302380D01*
X122166666Y-70397619D02*
X122214285Y-70350000D01*
X122309523Y-70302380D01*
X122547619Y-70302380D01*
X122642857Y-70350000D01*
X122690476Y-70397619D01*
X122738095Y-70492857D01*
X122738095Y-70588095D01*
X122690476Y-70730952D01*
X122119047Y-71302380D01*
X122738095Y-71302380D01*
X123166666Y-70635714D02*
X123166666Y-71635714D01*
X123642857Y-71159523D02*
X123690476Y-71254761D01*
X123785714Y-71302380D01*
X123166666Y-71159523D02*
X123214285Y-71254761D01*
X123309523Y-71302380D01*
X123500000Y-71302380D01*
X123595238Y-71254761D01*
X123642857Y-71159523D01*
X123642857Y-70635714D01*
D12*
X121515238Y-68814285D02*
X121473333Y-68856190D01*
X121347619Y-68898095D01*
X121263809Y-68898095D01*
X121138095Y-68856190D01*
X121054285Y-68772380D01*
X121012380Y-68688571D01*
X120970476Y-68520952D01*
X120970476Y-68395238D01*
X121012380Y-68227619D01*
X121054285Y-68143809D01*
X121138095Y-68060000D01*
X121263809Y-68018095D01*
X121347619Y-68018095D01*
X121473333Y-68060000D01*
X121515238Y-68101904D01*
X122353333Y-68898095D02*
X121850476Y-68898095D01*
X122101904Y-68898095D02*
X122101904Y-68018095D01*
X122018095Y-68143809D01*
X121934285Y-68227619D01*
X121850476Y-68269523D01*
X122898095Y-68018095D02*
X122981904Y-68018095D01*
X123065714Y-68060000D01*
X123107619Y-68101904D01*
X123149523Y-68185714D01*
X123191428Y-68353333D01*
X123191428Y-68562857D01*
X123149523Y-68730476D01*
X123107619Y-68814285D01*
X123065714Y-68856190D01*
X122981904Y-68898095D01*
X122898095Y-68898095D01*
X122814285Y-68856190D01*
X122772380Y-68814285D01*
X122730476Y-68730476D01*
X122688571Y-68562857D01*
X122688571Y-68353333D01*
X122730476Y-68185714D01*
X122772380Y-68101904D01*
X122814285Y-68060000D01*
X122898095Y-68018095D01*
X123526666Y-68101904D02*
X123568571Y-68060000D01*
X123652380Y-68018095D01*
X123861904Y-68018095D01*
X123945714Y-68060000D01*
X123987619Y-68101904D01*
X124029523Y-68185714D01*
X124029523Y-68269523D01*
X123987619Y-68395238D01*
X123484761Y-68898095D01*
X124029523Y-68898095D01*
%TO.C,C201*%
D11*
X118900952Y-73612380D02*
X118329523Y-73612380D01*
X118615238Y-73612380D02*
X118615238Y-72612380D01*
X118520000Y-72755238D01*
X118424761Y-72850476D01*
X118329523Y-72898095D01*
X119520000Y-72612380D02*
X119615238Y-72612380D01*
X119710476Y-72660000D01*
X119758095Y-72707619D01*
X119805714Y-72802857D01*
X119853333Y-72993333D01*
X119853333Y-73231428D01*
X119805714Y-73421904D01*
X119758095Y-73517142D01*
X119710476Y-73564761D01*
X119615238Y-73612380D01*
X119520000Y-73612380D01*
X119424761Y-73564761D01*
X119377142Y-73517142D01*
X119329523Y-73421904D01*
X119281904Y-73231428D01*
X119281904Y-72993333D01*
X119329523Y-72802857D01*
X119377142Y-72707619D01*
X119424761Y-72660000D01*
X119520000Y-72612380D01*
X120472380Y-72612380D02*
X120567619Y-72612380D01*
X120662857Y-72660000D01*
X120710476Y-72707619D01*
X120758095Y-72802857D01*
X120805714Y-72993333D01*
X120805714Y-73231428D01*
X120758095Y-73421904D01*
X120710476Y-73517142D01*
X120662857Y-73564761D01*
X120567619Y-73612380D01*
X120472380Y-73612380D01*
X120377142Y-73564761D01*
X120329523Y-73517142D01*
X120281904Y-73421904D01*
X120234285Y-73231428D01*
X120234285Y-72993333D01*
X120281904Y-72802857D01*
X120329523Y-72707619D01*
X120377142Y-72660000D01*
X120472380Y-72612380D01*
X121234285Y-72945714D02*
X121234285Y-73612380D01*
X121234285Y-73040952D02*
X121281904Y-72993333D01*
X121377142Y-72945714D01*
X121520000Y-72945714D01*
X121615238Y-72993333D01*
X121662857Y-73088571D01*
X121662857Y-73612380D01*
D13*
X119740238Y-72089285D02*
X119728333Y-72101190D01*
X119692619Y-72113095D01*
X119668809Y-72113095D01*
X119633095Y-72101190D01*
X119609285Y-72077380D01*
X119597380Y-72053571D01*
X119585476Y-72005952D01*
X119585476Y-71970238D01*
X119597380Y-71922619D01*
X119609285Y-71898809D01*
X119633095Y-71875000D01*
X119668809Y-71863095D01*
X119692619Y-71863095D01*
X119728333Y-71875000D01*
X119740238Y-71886904D01*
X119835476Y-71886904D02*
X119847380Y-71875000D01*
X119871190Y-71863095D01*
X119930714Y-71863095D01*
X119954523Y-71875000D01*
X119966428Y-71886904D01*
X119978333Y-71910714D01*
X119978333Y-71934523D01*
X119966428Y-71970238D01*
X119823571Y-72113095D01*
X119978333Y-72113095D01*
X120133095Y-71863095D02*
X120156904Y-71863095D01*
X120180714Y-71875000D01*
X120192619Y-71886904D01*
X120204523Y-71910714D01*
X120216428Y-71958333D01*
X120216428Y-72017857D01*
X120204523Y-72065476D01*
X120192619Y-72089285D01*
X120180714Y-72101190D01*
X120156904Y-72113095D01*
X120133095Y-72113095D01*
X120109285Y-72101190D01*
X120097380Y-72089285D01*
X120085476Y-72065476D01*
X120073571Y-72017857D01*
X120073571Y-71958333D01*
X120085476Y-71910714D01*
X120097380Y-71886904D01*
X120109285Y-71875000D01*
X120133095Y-71863095D01*
X120454523Y-72113095D02*
X120311666Y-72113095D01*
X120383095Y-72113095D02*
X120383095Y-71863095D01*
X120359285Y-71898809D01*
X120335476Y-71922619D01*
X120311666Y-71934523D01*
%TO.C,C202*%
D11*
X128900952Y-73612380D02*
X128329523Y-73612380D01*
X128615238Y-73612380D02*
X128615238Y-72612380D01*
X128520000Y-72755238D01*
X128424761Y-72850476D01*
X128329523Y-72898095D01*
X129520000Y-72612380D02*
X129615238Y-72612380D01*
X129710476Y-72660000D01*
X129758095Y-72707619D01*
X129805714Y-72802857D01*
X129853333Y-72993333D01*
X129853333Y-73231428D01*
X129805714Y-73421904D01*
X129758095Y-73517142D01*
X129710476Y-73564761D01*
X129615238Y-73612380D01*
X129520000Y-73612380D01*
X129424761Y-73564761D01*
X129377142Y-73517142D01*
X129329523Y-73421904D01*
X129281904Y-73231428D01*
X129281904Y-72993333D01*
X129329523Y-72802857D01*
X129377142Y-72707619D01*
X129424761Y-72660000D01*
X129520000Y-72612380D01*
X130472380Y-72612380D02*
X130567619Y-72612380D01*
X130662857Y-72660000D01*
X130710476Y-72707619D01*
X130758095Y-72802857D01*
X130805714Y-72993333D01*
X130805714Y-73231428D01*
X130758095Y-73421904D01*
X130710476Y-73517142D01*
X130662857Y-73564761D01*
X130567619Y-73612380D01*
X130472380Y-73612380D01*
X130377142Y-73564761D01*
X130329523Y-73517142D01*
X130281904Y-73421904D01*
X130234285Y-73231428D01*
X130234285Y-72993333D01*
X130281904Y-72802857D01*
X130329523Y-72707619D01*
X130377142Y-72660000D01*
X130472380Y-72612380D01*
X131234285Y-72945714D02*
X131234285Y-73612380D01*
X131234285Y-73040952D02*
X131281904Y-72993333D01*
X131377142Y-72945714D01*
X131520000Y-72945714D01*
X131615238Y-72993333D01*
X131662857Y-73088571D01*
X131662857Y-73612380D01*
D13*
X129740238Y-72089285D02*
X129728333Y-72101190D01*
X129692619Y-72113095D01*
X129668809Y-72113095D01*
X129633095Y-72101190D01*
X129609285Y-72077380D01*
X129597380Y-72053571D01*
X129585476Y-72005952D01*
X129585476Y-71970238D01*
X129597380Y-71922619D01*
X129609285Y-71898809D01*
X129633095Y-71875000D01*
X129668809Y-71863095D01*
X129692619Y-71863095D01*
X129728333Y-71875000D01*
X129740238Y-71886904D01*
X129835476Y-71886904D02*
X129847380Y-71875000D01*
X129871190Y-71863095D01*
X129930714Y-71863095D01*
X129954523Y-71875000D01*
X129966428Y-71886904D01*
X129978333Y-71910714D01*
X129978333Y-71934523D01*
X129966428Y-71970238D01*
X129823571Y-72113095D01*
X129978333Y-72113095D01*
X130133095Y-71863095D02*
X130156904Y-71863095D01*
X130180714Y-71875000D01*
X130192619Y-71886904D01*
X130204523Y-71910714D01*
X130216428Y-71958333D01*
X130216428Y-72017857D01*
X130204523Y-72065476D01*
X130192619Y-72089285D01*
X130180714Y-72101190D01*
X130156904Y-72113095D01*
X130133095Y-72113095D01*
X130109285Y-72101190D01*
X130097380Y-72089285D01*
X130085476Y-72065476D01*
X130073571Y-72017857D01*
X130073571Y-71958333D01*
X130085476Y-71910714D01*
X130097380Y-71886904D01*
X130109285Y-71875000D01*
X130133095Y-71863095D01*
X130311666Y-71886904D02*
X130323571Y-71875000D01*
X130347380Y-71863095D01*
X130406904Y-71863095D01*
X130430714Y-71875000D01*
X130442619Y-71886904D01*
X130454523Y-71910714D01*
X130454523Y-71934523D01*
X130442619Y-71970238D01*
X130299761Y-72113095D01*
X130454523Y-72113095D01*
%TO.C,C203*%
D11*
X138900952Y-73612380D02*
X138329523Y-73612380D01*
X138615238Y-73612380D02*
X138615238Y-72612380D01*
X138520000Y-72755238D01*
X138424761Y-72850476D01*
X138329523Y-72898095D01*
X139520000Y-72612380D02*
X139615238Y-72612380D01*
X139710476Y-72660000D01*
X139758095Y-72707619D01*
X139805714Y-72802857D01*
X139853333Y-72993333D01*
X139853333Y-73231428D01*
X139805714Y-73421904D01*
X139758095Y-73517142D01*
X139710476Y-73564761D01*
X139615238Y-73612380D01*
X139520000Y-73612380D01*
X139424761Y-73564761D01*
X139377142Y-73517142D01*
X139329523Y-73421904D01*
X139281904Y-73231428D01*
X139281904Y-72993333D01*
X139329523Y-72802857D01*
X139377142Y-72707619D01*
X139424761Y-72660000D01*
X139520000Y-72612380D01*
X140472380Y-72612380D02*
X140567619Y-72612380D01*
X140662857Y-72660000D01*
X140710476Y-72707619D01*
X140758095Y-72802857D01*
X140805714Y-72993333D01*
X140805714Y-73231428D01*
X140758095Y-73421904D01*
X140710476Y-73517142D01*
X140662857Y-73564761D01*
X140567619Y-73612380D01*
X140472380Y-73612380D01*
X140377142Y-73564761D01*
X140329523Y-73517142D01*
X140281904Y-73421904D01*
X140234285Y-73231428D01*
X140234285Y-72993333D01*
X140281904Y-72802857D01*
X140329523Y-72707619D01*
X140377142Y-72660000D01*
X140472380Y-72612380D01*
X141234285Y-72945714D02*
X141234285Y-73612380D01*
X141234285Y-73040952D02*
X141281904Y-72993333D01*
X141377142Y-72945714D01*
X141520000Y-72945714D01*
X141615238Y-72993333D01*
X141662857Y-73088571D01*
X141662857Y-73612380D01*
D13*
X139740238Y-72089285D02*
X139728333Y-72101190D01*
X139692619Y-72113095D01*
X139668809Y-72113095D01*
X139633095Y-72101190D01*
X139609285Y-72077380D01*
X139597380Y-72053571D01*
X139585476Y-72005952D01*
X139585476Y-71970238D01*
X139597380Y-71922619D01*
X139609285Y-71898809D01*
X139633095Y-71875000D01*
X139668809Y-71863095D01*
X139692619Y-71863095D01*
X139728333Y-71875000D01*
X139740238Y-71886904D01*
X139835476Y-71886904D02*
X139847380Y-71875000D01*
X139871190Y-71863095D01*
X139930714Y-71863095D01*
X139954523Y-71875000D01*
X139966428Y-71886904D01*
X139978333Y-71910714D01*
X139978333Y-71934523D01*
X139966428Y-71970238D01*
X139823571Y-72113095D01*
X139978333Y-72113095D01*
X140133095Y-71863095D02*
X140156904Y-71863095D01*
X140180714Y-71875000D01*
X140192619Y-71886904D01*
X140204523Y-71910714D01*
X140216428Y-71958333D01*
X140216428Y-72017857D01*
X140204523Y-72065476D01*
X140192619Y-72089285D01*
X140180714Y-72101190D01*
X140156904Y-72113095D01*
X140133095Y-72113095D01*
X140109285Y-72101190D01*
X140097380Y-72089285D01*
X140085476Y-72065476D01*
X140073571Y-72017857D01*
X140073571Y-71958333D01*
X140085476Y-71910714D01*
X140097380Y-71886904D01*
X140109285Y-71875000D01*
X140133095Y-71863095D01*
X140299761Y-71863095D02*
X140454523Y-71863095D01*
X140371190Y-71958333D01*
X140406904Y-71958333D01*
X140430714Y-71970238D01*
X140442619Y-71982142D01*
X140454523Y-72005952D01*
X140454523Y-72065476D01*
X140442619Y-72089285D01*
X140430714Y-72101190D01*
X140406904Y-72113095D01*
X140335476Y-72113095D01*
X140311666Y-72101190D01*
X140299761Y-72089285D01*
%TO.C,C204*%
D11*
X148900952Y-73612380D02*
X148329523Y-73612380D01*
X148615238Y-73612380D02*
X148615238Y-72612380D01*
X148520000Y-72755238D01*
X148424761Y-72850476D01*
X148329523Y-72898095D01*
X149520000Y-72612380D02*
X149615238Y-72612380D01*
X149710476Y-72660000D01*
X149758095Y-72707619D01*
X149805714Y-72802857D01*
X149853333Y-72993333D01*
X149853333Y-73231428D01*
X149805714Y-73421904D01*
X149758095Y-73517142D01*
X149710476Y-73564761D01*
X149615238Y-73612380D01*
X149520000Y-73612380D01*
X149424761Y-73564761D01*
X149377142Y-73517142D01*
X149329523Y-73421904D01*
X149281904Y-73231428D01*
X149281904Y-72993333D01*
X149329523Y-72802857D01*
X149377142Y-72707619D01*
X149424761Y-72660000D01*
X149520000Y-72612380D01*
X150472380Y-72612380D02*
X150567619Y-72612380D01*
X150662857Y-72660000D01*
X150710476Y-72707619D01*
X150758095Y-72802857D01*
X150805714Y-72993333D01*
X150805714Y-73231428D01*
X150758095Y-73421904D01*
X150710476Y-73517142D01*
X150662857Y-73564761D01*
X150567619Y-73612380D01*
X150472380Y-73612380D01*
X150377142Y-73564761D01*
X150329523Y-73517142D01*
X150281904Y-73421904D01*
X150234285Y-73231428D01*
X150234285Y-72993333D01*
X150281904Y-72802857D01*
X150329523Y-72707619D01*
X150377142Y-72660000D01*
X150472380Y-72612380D01*
X151234285Y-72945714D02*
X151234285Y-73612380D01*
X151234285Y-73040952D02*
X151281904Y-72993333D01*
X151377142Y-72945714D01*
X151520000Y-72945714D01*
X151615238Y-72993333D01*
X151662857Y-73088571D01*
X151662857Y-73612380D01*
D13*
X149740238Y-72089285D02*
X149728333Y-72101190D01*
X149692619Y-72113095D01*
X149668809Y-72113095D01*
X149633095Y-72101190D01*
X149609285Y-72077380D01*
X149597380Y-72053571D01*
X149585476Y-72005952D01*
X149585476Y-71970238D01*
X149597380Y-71922619D01*
X149609285Y-71898809D01*
X149633095Y-71875000D01*
X149668809Y-71863095D01*
X149692619Y-71863095D01*
X149728333Y-71875000D01*
X149740238Y-71886904D01*
X149835476Y-71886904D02*
X149847380Y-71875000D01*
X149871190Y-71863095D01*
X149930714Y-71863095D01*
X149954523Y-71875000D01*
X149966428Y-71886904D01*
X149978333Y-71910714D01*
X149978333Y-71934523D01*
X149966428Y-71970238D01*
X149823571Y-72113095D01*
X149978333Y-72113095D01*
X150133095Y-71863095D02*
X150156904Y-71863095D01*
X150180714Y-71875000D01*
X150192619Y-71886904D01*
X150204523Y-71910714D01*
X150216428Y-71958333D01*
X150216428Y-72017857D01*
X150204523Y-72065476D01*
X150192619Y-72089285D01*
X150180714Y-72101190D01*
X150156904Y-72113095D01*
X150133095Y-72113095D01*
X150109285Y-72101190D01*
X150097380Y-72089285D01*
X150085476Y-72065476D01*
X150073571Y-72017857D01*
X150073571Y-71958333D01*
X150085476Y-71910714D01*
X150097380Y-71886904D01*
X150109285Y-71875000D01*
X150133095Y-71863095D01*
X150430714Y-71946428D02*
X150430714Y-72113095D01*
X150371190Y-71851190D02*
X150311666Y-72029761D01*
X150466428Y-72029761D01*
%TO.C,C205*%
D11*
X118900952Y-83612380D02*
X118329523Y-83612380D01*
X118615238Y-83612380D02*
X118615238Y-82612380D01*
X118520000Y-82755238D01*
X118424761Y-82850476D01*
X118329523Y-82898095D01*
X119520000Y-82612380D02*
X119615238Y-82612380D01*
X119710476Y-82660000D01*
X119758095Y-82707619D01*
X119805714Y-82802857D01*
X119853333Y-82993333D01*
X119853333Y-83231428D01*
X119805714Y-83421904D01*
X119758095Y-83517142D01*
X119710476Y-83564761D01*
X119615238Y-83612380D01*
X119520000Y-83612380D01*
X119424761Y-83564761D01*
X119377142Y-83517142D01*
X119329523Y-83421904D01*
X119281904Y-83231428D01*
X119281904Y-82993333D01*
X119329523Y-82802857D01*
X119377142Y-82707619D01*
X119424761Y-82660000D01*
X119520000Y-82612380D01*
X120472380Y-82612380D02*
X120567619Y-82612380D01*
X120662857Y-82660000D01*
X120710476Y-82707619D01*
X120758095Y-82802857D01*
X120805714Y-82993333D01*
X120805714Y-83231428D01*
X120758095Y-83421904D01*
X120710476Y-83517142D01*
X120662857Y-83564761D01*
X120567619Y-83612380D01*
X120472380Y-83612380D01*
X120377142Y-83564761D01*
X120329523Y-83517142D01*
X120281904Y-83421904D01*
X120234285Y-83231428D01*
X120234285Y-82993333D01*
X120281904Y-82802857D01*
X120329523Y-82707619D01*
X120377142Y-82660000D01*
X120472380Y-82612380D01*
X121234285Y-82945714D02*
X121234285Y-83612380D01*
X121234285Y-83040952D02*
X121281904Y-82993333D01*
X121377142Y-82945714D01*
X121520000Y-82945714D01*
X121615238Y-82993333D01*
X121662857Y-83088571D01*
X121662857Y-83612380D01*
D13*
X119740238Y-82089285D02*
X119728333Y-82101190D01*
X119692619Y-82113095D01*
X119668809Y-82113095D01*
X119633095Y-82101190D01*
X119609285Y-82077380D01*
X119597380Y-82053571D01*
X119585476Y-82005952D01*
X119585476Y-81970238D01*
X119597380Y-81922619D01*
X119609285Y-81898809D01*
X119633095Y-81875000D01*
X119668809Y-81863095D01*
X119692619Y-81863095D01*
X119728333Y-81875000D01*
X119740238Y-81886904D01*
X119835476Y-81886904D02*
X119847380Y-81875000D01*
X119871190Y-81863095D01*
X119930714Y-81863095D01*
X119954523Y-81875000D01*
X119966428Y-81886904D01*
X119978333Y-81910714D01*
X119978333Y-81934523D01*
X119966428Y-81970238D01*
X119823571Y-82113095D01*
X119978333Y-82113095D01*
X120133095Y-81863095D02*
X120156904Y-81863095D01*
X120180714Y-81875000D01*
X120192619Y-81886904D01*
X120204523Y-81910714D01*
X120216428Y-81958333D01*
X120216428Y-82017857D01*
X120204523Y-82065476D01*
X120192619Y-82089285D01*
X120180714Y-82101190D01*
X120156904Y-82113095D01*
X120133095Y-82113095D01*
X120109285Y-82101190D01*
X120097380Y-82089285D01*
X120085476Y-82065476D01*
X120073571Y-82017857D01*
X120073571Y-81958333D01*
X120085476Y-81910714D01*
X120097380Y-81886904D01*
X120109285Y-81875000D01*
X120133095Y-81863095D01*
X120442619Y-81863095D02*
X120323571Y-81863095D01*
X120311666Y-81982142D01*
X120323571Y-81970238D01*
X120347380Y-81958333D01*
X120406904Y-81958333D01*
X120430714Y-81970238D01*
X120442619Y-81982142D01*
X120454523Y-82005952D01*
X120454523Y-82065476D01*
X120442619Y-82089285D01*
X120430714Y-82101190D01*
X120406904Y-82113095D01*
X120347380Y-82113095D01*
X120323571Y-82101190D01*
X120311666Y-82089285D01*
%TO.C,C206*%
D11*
X128900952Y-83612380D02*
X128329523Y-83612380D01*
X128615238Y-83612380D02*
X128615238Y-82612380D01*
X128520000Y-82755238D01*
X128424761Y-82850476D01*
X128329523Y-82898095D01*
X129520000Y-82612380D02*
X129615238Y-82612380D01*
X129710476Y-82660000D01*
X129758095Y-82707619D01*
X129805714Y-82802857D01*
X129853333Y-82993333D01*
X129853333Y-83231428D01*
X129805714Y-83421904D01*
X129758095Y-83517142D01*
X129710476Y-83564761D01*
X129615238Y-83612380D01*
X129520000Y-83612380D01*
X129424761Y-83564761D01*
X129377142Y-83517142D01*
X129329523Y-83421904D01*
X129281904Y-83231428D01*
X129281904Y-82993333D01*
X129329523Y-82802857D01*
X129377142Y-82707619D01*
X129424761Y-82660000D01*
X129520000Y-82612380D01*
X130472380Y-82612380D02*
X130567619Y-82612380D01*
X130662857Y-82660000D01*
X130710476Y-82707619D01*
X130758095Y-82802857D01*
X130805714Y-82993333D01*
X130805714Y-83231428D01*
X130758095Y-83421904D01*
X130710476Y-83517142D01*
X130662857Y-83564761D01*
X130567619Y-83612380D01*
X130472380Y-83612380D01*
X130377142Y-83564761D01*
X130329523Y-83517142D01*
X130281904Y-83421904D01*
X130234285Y-83231428D01*
X130234285Y-82993333D01*
X130281904Y-82802857D01*
X130329523Y-82707619D01*
X130377142Y-82660000D01*
X130472380Y-82612380D01*
X131234285Y-82945714D02*
X131234285Y-83612380D01*
X131234285Y-83040952D02*
X131281904Y-82993333D01*
X131377142Y-82945714D01*
X131520000Y-82945714D01*
X131615238Y-82993333D01*
X131662857Y-83088571D01*
X131662857Y-83612380D01*
D13*
X129740238Y-82089285D02*
X129728333Y-82101190D01*
X129692619Y-82113095D01*
X129668809Y-82113095D01*
X129633095Y-82101190D01*
X129609285Y-82077380D01*
X129597380Y-82053571D01*
X129585476Y-82005952D01*
X129585476Y-81970238D01*
X129597380Y-81922619D01*
X129609285Y-81898809D01*
X129633095Y-81875000D01*
X129668809Y-81863095D01*
X129692619Y-81863095D01*
X129728333Y-81875000D01*
X129740238Y-81886904D01*
X129835476Y-81886904D02*
X129847380Y-81875000D01*
X129871190Y-81863095D01*
X129930714Y-81863095D01*
X129954523Y-81875000D01*
X129966428Y-81886904D01*
X129978333Y-81910714D01*
X129978333Y-81934523D01*
X129966428Y-81970238D01*
X129823571Y-82113095D01*
X129978333Y-82113095D01*
X130133095Y-81863095D02*
X130156904Y-81863095D01*
X130180714Y-81875000D01*
X130192619Y-81886904D01*
X130204523Y-81910714D01*
X130216428Y-81958333D01*
X130216428Y-82017857D01*
X130204523Y-82065476D01*
X130192619Y-82089285D01*
X130180714Y-82101190D01*
X130156904Y-82113095D01*
X130133095Y-82113095D01*
X130109285Y-82101190D01*
X130097380Y-82089285D01*
X130085476Y-82065476D01*
X130073571Y-82017857D01*
X130073571Y-81958333D01*
X130085476Y-81910714D01*
X130097380Y-81886904D01*
X130109285Y-81875000D01*
X130133095Y-81863095D01*
X130430714Y-81863095D02*
X130383095Y-81863095D01*
X130359285Y-81875000D01*
X130347380Y-81886904D01*
X130323571Y-81922619D01*
X130311666Y-81970238D01*
X130311666Y-82065476D01*
X130323571Y-82089285D01*
X130335476Y-82101190D01*
X130359285Y-82113095D01*
X130406904Y-82113095D01*
X130430714Y-82101190D01*
X130442619Y-82089285D01*
X130454523Y-82065476D01*
X130454523Y-82005952D01*
X130442619Y-81982142D01*
X130430714Y-81970238D01*
X130406904Y-81958333D01*
X130359285Y-81958333D01*
X130335476Y-81970238D01*
X130323571Y-81982142D01*
X130311666Y-82005952D01*
%TO.C,C207*%
D11*
X138900952Y-83612380D02*
X138329523Y-83612380D01*
X138615238Y-83612380D02*
X138615238Y-82612380D01*
X138520000Y-82755238D01*
X138424761Y-82850476D01*
X138329523Y-82898095D01*
X139520000Y-82612380D02*
X139615238Y-82612380D01*
X139710476Y-82660000D01*
X139758095Y-82707619D01*
X139805714Y-82802857D01*
X139853333Y-82993333D01*
X139853333Y-83231428D01*
X139805714Y-83421904D01*
X139758095Y-83517142D01*
X139710476Y-83564761D01*
X139615238Y-83612380D01*
X139520000Y-83612380D01*
X139424761Y-83564761D01*
X139377142Y-83517142D01*
X139329523Y-83421904D01*
X139281904Y-83231428D01*
X139281904Y-82993333D01*
X139329523Y-82802857D01*
X139377142Y-82707619D01*
X139424761Y-82660000D01*
X139520000Y-82612380D01*
X140472380Y-82612380D02*
X140567619Y-82612380D01*
X140662857Y-82660000D01*
X140710476Y-82707619D01*
X140758095Y-82802857D01*
X140805714Y-82993333D01*
X140805714Y-83231428D01*
X140758095Y-83421904D01*
X140710476Y-83517142D01*
X140662857Y-83564761D01*
X140567619Y-83612380D01*
X140472380Y-83612380D01*
X140377142Y-83564761D01*
X140329523Y-83517142D01*
X140281904Y-83421904D01*
X140234285Y-83231428D01*
X140234285Y-82993333D01*
X140281904Y-82802857D01*
X140329523Y-82707619D01*
X140377142Y-82660000D01*
X140472380Y-82612380D01*
X141234285Y-82945714D02*
X141234285Y-83612380D01*
X141234285Y-83040952D02*
X141281904Y-82993333D01*
X141377142Y-82945714D01*
X141520000Y-82945714D01*
X141615238Y-82993333D01*
X141662857Y-83088571D01*
X141662857Y-83612380D01*
D13*
X139740238Y-82089285D02*
X139728333Y-82101190D01*
X139692619Y-82113095D01*
X139668809Y-82113095D01*
X139633095Y-82101190D01*
X139609285Y-82077380D01*
X139597380Y-82053571D01*
X139585476Y-82005952D01*
X139585476Y-81970238D01*
X139597380Y-81922619D01*
X139609285Y-81898809D01*
X139633095Y-81875000D01*
X139668809Y-81863095D01*
X139692619Y-81863095D01*
X139728333Y-81875000D01*
X139740238Y-81886904D01*
X139835476Y-81886904D02*
X139847380Y-81875000D01*
X139871190Y-81863095D01*
X139930714Y-81863095D01*
X139954523Y-81875000D01*
X139966428Y-81886904D01*
X139978333Y-81910714D01*
X139978333Y-81934523D01*
X139966428Y-81970238D01*
X139823571Y-82113095D01*
X139978333Y-82113095D01*
X140133095Y-81863095D02*
X140156904Y-81863095D01*
X140180714Y-81875000D01*
X140192619Y-81886904D01*
X140204523Y-81910714D01*
X140216428Y-81958333D01*
X140216428Y-82017857D01*
X140204523Y-82065476D01*
X140192619Y-82089285D01*
X140180714Y-82101190D01*
X140156904Y-82113095D01*
X140133095Y-82113095D01*
X140109285Y-82101190D01*
X140097380Y-82089285D01*
X140085476Y-82065476D01*
X140073571Y-82017857D01*
X140073571Y-81958333D01*
X140085476Y-81910714D01*
X140097380Y-81886904D01*
X140109285Y-81875000D01*
X140133095Y-81863095D01*
X140299761Y-81863095D02*
X140466428Y-81863095D01*
X140359285Y-82113095D01*
%TO.C,C208*%
D11*
X148880952Y-83612380D02*
X148309523Y-83612380D01*
X148595238Y-83612380D02*
X148595238Y-82612380D01*
X148500000Y-82755238D01*
X148404761Y-82850476D01*
X148309523Y-82898095D01*
X149500000Y-82612380D02*
X149595238Y-82612380D01*
X149690476Y-82660000D01*
X149738095Y-82707619D01*
X149785714Y-82802857D01*
X149833333Y-82993333D01*
X149833333Y-83231428D01*
X149785714Y-83421904D01*
X149738095Y-83517142D01*
X149690476Y-83564761D01*
X149595238Y-83612380D01*
X149500000Y-83612380D01*
X149404761Y-83564761D01*
X149357142Y-83517142D01*
X149309523Y-83421904D01*
X149261904Y-83231428D01*
X149261904Y-82993333D01*
X149309523Y-82802857D01*
X149357142Y-82707619D01*
X149404761Y-82660000D01*
X149500000Y-82612380D01*
X150452380Y-82612380D02*
X150547619Y-82612380D01*
X150642857Y-82660000D01*
X150690476Y-82707619D01*
X150738095Y-82802857D01*
X150785714Y-82993333D01*
X150785714Y-83231428D01*
X150738095Y-83421904D01*
X150690476Y-83517142D01*
X150642857Y-83564761D01*
X150547619Y-83612380D01*
X150452380Y-83612380D01*
X150357142Y-83564761D01*
X150309523Y-83517142D01*
X150261904Y-83421904D01*
X150214285Y-83231428D01*
X150214285Y-82993333D01*
X150261904Y-82802857D01*
X150309523Y-82707619D01*
X150357142Y-82660000D01*
X150452380Y-82612380D01*
X151214285Y-82945714D02*
X151214285Y-83612380D01*
X151214285Y-83040952D02*
X151261904Y-82993333D01*
X151357142Y-82945714D01*
X151500000Y-82945714D01*
X151595238Y-82993333D01*
X151642857Y-83088571D01*
X151642857Y-83612380D01*
D13*
X149720238Y-82089285D02*
X149708333Y-82101190D01*
X149672619Y-82113095D01*
X149648809Y-82113095D01*
X149613095Y-82101190D01*
X149589285Y-82077380D01*
X149577380Y-82053571D01*
X149565476Y-82005952D01*
X149565476Y-81970238D01*
X149577380Y-81922619D01*
X149589285Y-81898809D01*
X149613095Y-81875000D01*
X149648809Y-81863095D01*
X149672619Y-81863095D01*
X149708333Y-81875000D01*
X149720238Y-81886904D01*
X149815476Y-81886904D02*
X149827380Y-81875000D01*
X149851190Y-81863095D01*
X149910714Y-81863095D01*
X149934523Y-81875000D01*
X149946428Y-81886904D01*
X149958333Y-81910714D01*
X149958333Y-81934523D01*
X149946428Y-81970238D01*
X149803571Y-82113095D01*
X149958333Y-82113095D01*
X150113095Y-81863095D02*
X150136904Y-81863095D01*
X150160714Y-81875000D01*
X150172619Y-81886904D01*
X150184523Y-81910714D01*
X150196428Y-81958333D01*
X150196428Y-82017857D01*
X150184523Y-82065476D01*
X150172619Y-82089285D01*
X150160714Y-82101190D01*
X150136904Y-82113095D01*
X150113095Y-82113095D01*
X150089285Y-82101190D01*
X150077380Y-82089285D01*
X150065476Y-82065476D01*
X150053571Y-82017857D01*
X150053571Y-81958333D01*
X150065476Y-81910714D01*
X150077380Y-81886904D01*
X150089285Y-81875000D01*
X150113095Y-81863095D01*
X150339285Y-81970238D02*
X150315476Y-81958333D01*
X150303571Y-81946428D01*
X150291666Y-81922619D01*
X150291666Y-81910714D01*
X150303571Y-81886904D01*
X150315476Y-81875000D01*
X150339285Y-81863095D01*
X150386904Y-81863095D01*
X150410714Y-81875000D01*
X150422619Y-81886904D01*
X150434523Y-81910714D01*
X150434523Y-81922619D01*
X150422619Y-81946428D01*
X150410714Y-81958333D01*
X150386904Y-81970238D01*
X150339285Y-81970238D01*
X150315476Y-81982142D01*
X150303571Y-81994047D01*
X150291666Y-82017857D01*
X150291666Y-82065476D01*
X150303571Y-82089285D01*
X150315476Y-82101190D01*
X150339285Y-82113095D01*
X150386904Y-82113095D01*
X150410714Y-82101190D01*
X150422619Y-82089285D01*
X150434523Y-82065476D01*
X150434523Y-82017857D01*
X150422619Y-81994047D01*
X150410714Y-81982142D01*
X150386904Y-81970238D01*
%TO.C,C209*%
D11*
X118900952Y-93612380D02*
X118329523Y-93612380D01*
X118615238Y-93612380D02*
X118615238Y-92612380D01*
X118520000Y-92755238D01*
X118424761Y-92850476D01*
X118329523Y-92898095D01*
X119520000Y-92612380D02*
X119615238Y-92612380D01*
X119710476Y-92660000D01*
X119758095Y-92707619D01*
X119805714Y-92802857D01*
X119853333Y-92993333D01*
X119853333Y-93231428D01*
X119805714Y-93421904D01*
X119758095Y-93517142D01*
X119710476Y-93564761D01*
X119615238Y-93612380D01*
X119520000Y-93612380D01*
X119424761Y-93564761D01*
X119377142Y-93517142D01*
X119329523Y-93421904D01*
X119281904Y-93231428D01*
X119281904Y-92993333D01*
X119329523Y-92802857D01*
X119377142Y-92707619D01*
X119424761Y-92660000D01*
X119520000Y-92612380D01*
X120472380Y-92612380D02*
X120567619Y-92612380D01*
X120662857Y-92660000D01*
X120710476Y-92707619D01*
X120758095Y-92802857D01*
X120805714Y-92993333D01*
X120805714Y-93231428D01*
X120758095Y-93421904D01*
X120710476Y-93517142D01*
X120662857Y-93564761D01*
X120567619Y-93612380D01*
X120472380Y-93612380D01*
X120377142Y-93564761D01*
X120329523Y-93517142D01*
X120281904Y-93421904D01*
X120234285Y-93231428D01*
X120234285Y-92993333D01*
X120281904Y-92802857D01*
X120329523Y-92707619D01*
X120377142Y-92660000D01*
X120472380Y-92612380D01*
X121234285Y-92945714D02*
X121234285Y-93612380D01*
X121234285Y-93040952D02*
X121281904Y-92993333D01*
X121377142Y-92945714D01*
X121520000Y-92945714D01*
X121615238Y-92993333D01*
X121662857Y-93088571D01*
X121662857Y-93612380D01*
D13*
X119740238Y-92089285D02*
X119728333Y-92101190D01*
X119692619Y-92113095D01*
X119668809Y-92113095D01*
X119633095Y-92101190D01*
X119609285Y-92077380D01*
X119597380Y-92053571D01*
X119585476Y-92005952D01*
X119585476Y-91970238D01*
X119597380Y-91922619D01*
X119609285Y-91898809D01*
X119633095Y-91875000D01*
X119668809Y-91863095D01*
X119692619Y-91863095D01*
X119728333Y-91875000D01*
X119740238Y-91886904D01*
X119835476Y-91886904D02*
X119847380Y-91875000D01*
X119871190Y-91863095D01*
X119930714Y-91863095D01*
X119954523Y-91875000D01*
X119966428Y-91886904D01*
X119978333Y-91910714D01*
X119978333Y-91934523D01*
X119966428Y-91970238D01*
X119823571Y-92113095D01*
X119978333Y-92113095D01*
X120133095Y-91863095D02*
X120156904Y-91863095D01*
X120180714Y-91875000D01*
X120192619Y-91886904D01*
X120204523Y-91910714D01*
X120216428Y-91958333D01*
X120216428Y-92017857D01*
X120204523Y-92065476D01*
X120192619Y-92089285D01*
X120180714Y-92101190D01*
X120156904Y-92113095D01*
X120133095Y-92113095D01*
X120109285Y-92101190D01*
X120097380Y-92089285D01*
X120085476Y-92065476D01*
X120073571Y-92017857D01*
X120073571Y-91958333D01*
X120085476Y-91910714D01*
X120097380Y-91886904D01*
X120109285Y-91875000D01*
X120133095Y-91863095D01*
X120335476Y-92113095D02*
X120383095Y-92113095D01*
X120406904Y-92101190D01*
X120418809Y-92089285D01*
X120442619Y-92053571D01*
X120454523Y-92005952D01*
X120454523Y-91910714D01*
X120442619Y-91886904D01*
X120430714Y-91875000D01*
X120406904Y-91863095D01*
X120359285Y-91863095D01*
X120335476Y-91875000D01*
X120323571Y-91886904D01*
X120311666Y-91910714D01*
X120311666Y-91970238D01*
X120323571Y-91994047D01*
X120335476Y-92005952D01*
X120359285Y-92017857D01*
X120406904Y-92017857D01*
X120430714Y-92005952D01*
X120442619Y-91994047D01*
X120454523Y-91970238D01*
%TO.C,C210*%
D11*
X128900952Y-93612380D02*
X128329523Y-93612380D01*
X128615238Y-93612380D02*
X128615238Y-92612380D01*
X128520000Y-92755238D01*
X128424761Y-92850476D01*
X128329523Y-92898095D01*
X129520000Y-92612380D02*
X129615238Y-92612380D01*
X129710476Y-92660000D01*
X129758095Y-92707619D01*
X129805714Y-92802857D01*
X129853333Y-92993333D01*
X129853333Y-93231428D01*
X129805714Y-93421904D01*
X129758095Y-93517142D01*
X129710476Y-93564761D01*
X129615238Y-93612380D01*
X129520000Y-93612380D01*
X129424761Y-93564761D01*
X129377142Y-93517142D01*
X129329523Y-93421904D01*
X129281904Y-93231428D01*
X129281904Y-92993333D01*
X129329523Y-92802857D01*
X129377142Y-92707619D01*
X129424761Y-92660000D01*
X129520000Y-92612380D01*
X130472380Y-92612380D02*
X130567619Y-92612380D01*
X130662857Y-92660000D01*
X130710476Y-92707619D01*
X130758095Y-92802857D01*
X130805714Y-92993333D01*
X130805714Y-93231428D01*
X130758095Y-93421904D01*
X130710476Y-93517142D01*
X130662857Y-93564761D01*
X130567619Y-93612380D01*
X130472380Y-93612380D01*
X130377142Y-93564761D01*
X130329523Y-93517142D01*
X130281904Y-93421904D01*
X130234285Y-93231428D01*
X130234285Y-92993333D01*
X130281904Y-92802857D01*
X130329523Y-92707619D01*
X130377142Y-92660000D01*
X130472380Y-92612380D01*
X131234285Y-92945714D02*
X131234285Y-93612380D01*
X131234285Y-93040952D02*
X131281904Y-92993333D01*
X131377142Y-92945714D01*
X131520000Y-92945714D01*
X131615238Y-92993333D01*
X131662857Y-93088571D01*
X131662857Y-93612380D01*
D13*
X129740238Y-92089285D02*
X129728333Y-92101190D01*
X129692619Y-92113095D01*
X129668809Y-92113095D01*
X129633095Y-92101190D01*
X129609285Y-92077380D01*
X129597380Y-92053571D01*
X129585476Y-92005952D01*
X129585476Y-91970238D01*
X129597380Y-91922619D01*
X129609285Y-91898809D01*
X129633095Y-91875000D01*
X129668809Y-91863095D01*
X129692619Y-91863095D01*
X129728333Y-91875000D01*
X129740238Y-91886904D01*
X129835476Y-91886904D02*
X129847380Y-91875000D01*
X129871190Y-91863095D01*
X129930714Y-91863095D01*
X129954523Y-91875000D01*
X129966428Y-91886904D01*
X129978333Y-91910714D01*
X129978333Y-91934523D01*
X129966428Y-91970238D01*
X129823571Y-92113095D01*
X129978333Y-92113095D01*
X130216428Y-92113095D02*
X130073571Y-92113095D01*
X130145000Y-92113095D02*
X130145000Y-91863095D01*
X130121190Y-91898809D01*
X130097380Y-91922619D01*
X130073571Y-91934523D01*
X130371190Y-91863095D02*
X130395000Y-91863095D01*
X130418809Y-91875000D01*
X130430714Y-91886904D01*
X130442619Y-91910714D01*
X130454523Y-91958333D01*
X130454523Y-92017857D01*
X130442619Y-92065476D01*
X130430714Y-92089285D01*
X130418809Y-92101190D01*
X130395000Y-92113095D01*
X130371190Y-92113095D01*
X130347380Y-92101190D01*
X130335476Y-92089285D01*
X130323571Y-92065476D01*
X130311666Y-92017857D01*
X130311666Y-91958333D01*
X130323571Y-91910714D01*
X130335476Y-91886904D01*
X130347380Y-91875000D01*
X130371190Y-91863095D01*
%TO.C,C211*%
D11*
X138900952Y-93612380D02*
X138329523Y-93612380D01*
X138615238Y-93612380D02*
X138615238Y-92612380D01*
X138520000Y-92755238D01*
X138424761Y-92850476D01*
X138329523Y-92898095D01*
X139520000Y-92612380D02*
X139615238Y-92612380D01*
X139710476Y-92660000D01*
X139758095Y-92707619D01*
X139805714Y-92802857D01*
X139853333Y-92993333D01*
X139853333Y-93231428D01*
X139805714Y-93421904D01*
X139758095Y-93517142D01*
X139710476Y-93564761D01*
X139615238Y-93612380D01*
X139520000Y-93612380D01*
X139424761Y-93564761D01*
X139377142Y-93517142D01*
X139329523Y-93421904D01*
X139281904Y-93231428D01*
X139281904Y-92993333D01*
X139329523Y-92802857D01*
X139377142Y-92707619D01*
X139424761Y-92660000D01*
X139520000Y-92612380D01*
X140472380Y-92612380D02*
X140567619Y-92612380D01*
X140662857Y-92660000D01*
X140710476Y-92707619D01*
X140758095Y-92802857D01*
X140805714Y-92993333D01*
X140805714Y-93231428D01*
X140758095Y-93421904D01*
X140710476Y-93517142D01*
X140662857Y-93564761D01*
X140567619Y-93612380D01*
X140472380Y-93612380D01*
X140377142Y-93564761D01*
X140329523Y-93517142D01*
X140281904Y-93421904D01*
X140234285Y-93231428D01*
X140234285Y-92993333D01*
X140281904Y-92802857D01*
X140329523Y-92707619D01*
X140377142Y-92660000D01*
X140472380Y-92612380D01*
X141234285Y-92945714D02*
X141234285Y-93612380D01*
X141234285Y-93040952D02*
X141281904Y-92993333D01*
X141377142Y-92945714D01*
X141520000Y-92945714D01*
X141615238Y-92993333D01*
X141662857Y-93088571D01*
X141662857Y-93612380D01*
D13*
X139740238Y-92089285D02*
X139728333Y-92101190D01*
X139692619Y-92113095D01*
X139668809Y-92113095D01*
X139633095Y-92101190D01*
X139609285Y-92077380D01*
X139597380Y-92053571D01*
X139585476Y-92005952D01*
X139585476Y-91970238D01*
X139597380Y-91922619D01*
X139609285Y-91898809D01*
X139633095Y-91875000D01*
X139668809Y-91863095D01*
X139692619Y-91863095D01*
X139728333Y-91875000D01*
X139740238Y-91886904D01*
X139835476Y-91886904D02*
X139847380Y-91875000D01*
X139871190Y-91863095D01*
X139930714Y-91863095D01*
X139954523Y-91875000D01*
X139966428Y-91886904D01*
X139978333Y-91910714D01*
X139978333Y-91934523D01*
X139966428Y-91970238D01*
X139823571Y-92113095D01*
X139978333Y-92113095D01*
X140216428Y-92113095D02*
X140073571Y-92113095D01*
X140145000Y-92113095D02*
X140145000Y-91863095D01*
X140121190Y-91898809D01*
X140097380Y-91922619D01*
X140073571Y-91934523D01*
X140454523Y-92113095D02*
X140311666Y-92113095D01*
X140383095Y-92113095D02*
X140383095Y-91863095D01*
X140359285Y-91898809D01*
X140335476Y-91922619D01*
X140311666Y-91934523D01*
%TO.C,C212*%
D11*
X148880952Y-93612380D02*
X148309523Y-93612380D01*
X148595238Y-93612380D02*
X148595238Y-92612380D01*
X148500000Y-92755238D01*
X148404761Y-92850476D01*
X148309523Y-92898095D01*
X149500000Y-92612380D02*
X149595238Y-92612380D01*
X149690476Y-92660000D01*
X149738095Y-92707619D01*
X149785714Y-92802857D01*
X149833333Y-92993333D01*
X149833333Y-93231428D01*
X149785714Y-93421904D01*
X149738095Y-93517142D01*
X149690476Y-93564761D01*
X149595238Y-93612380D01*
X149500000Y-93612380D01*
X149404761Y-93564761D01*
X149357142Y-93517142D01*
X149309523Y-93421904D01*
X149261904Y-93231428D01*
X149261904Y-92993333D01*
X149309523Y-92802857D01*
X149357142Y-92707619D01*
X149404761Y-92660000D01*
X149500000Y-92612380D01*
X150452380Y-92612380D02*
X150547619Y-92612380D01*
X150642857Y-92660000D01*
X150690476Y-92707619D01*
X150738095Y-92802857D01*
X150785714Y-92993333D01*
X150785714Y-93231428D01*
X150738095Y-93421904D01*
X150690476Y-93517142D01*
X150642857Y-93564761D01*
X150547619Y-93612380D01*
X150452380Y-93612380D01*
X150357142Y-93564761D01*
X150309523Y-93517142D01*
X150261904Y-93421904D01*
X150214285Y-93231428D01*
X150214285Y-92993333D01*
X150261904Y-92802857D01*
X150309523Y-92707619D01*
X150357142Y-92660000D01*
X150452380Y-92612380D01*
X151214285Y-92945714D02*
X151214285Y-93612380D01*
X151214285Y-93040952D02*
X151261904Y-92993333D01*
X151357142Y-92945714D01*
X151500000Y-92945714D01*
X151595238Y-92993333D01*
X151642857Y-93088571D01*
X151642857Y-93612380D01*
D13*
X149720238Y-92089285D02*
X149708333Y-92101190D01*
X149672619Y-92113095D01*
X149648809Y-92113095D01*
X149613095Y-92101190D01*
X149589285Y-92077380D01*
X149577380Y-92053571D01*
X149565476Y-92005952D01*
X149565476Y-91970238D01*
X149577380Y-91922619D01*
X149589285Y-91898809D01*
X149613095Y-91875000D01*
X149648809Y-91863095D01*
X149672619Y-91863095D01*
X149708333Y-91875000D01*
X149720238Y-91886904D01*
X149815476Y-91886904D02*
X149827380Y-91875000D01*
X149851190Y-91863095D01*
X149910714Y-91863095D01*
X149934523Y-91875000D01*
X149946428Y-91886904D01*
X149958333Y-91910714D01*
X149958333Y-91934523D01*
X149946428Y-91970238D01*
X149803571Y-92113095D01*
X149958333Y-92113095D01*
X150196428Y-92113095D02*
X150053571Y-92113095D01*
X150125000Y-92113095D02*
X150125000Y-91863095D01*
X150101190Y-91898809D01*
X150077380Y-91922619D01*
X150053571Y-91934523D01*
X150291666Y-91886904D02*
X150303571Y-91875000D01*
X150327380Y-91863095D01*
X150386904Y-91863095D01*
X150410714Y-91875000D01*
X150422619Y-91886904D01*
X150434523Y-91910714D01*
X150434523Y-91934523D01*
X150422619Y-91970238D01*
X150279761Y-92113095D01*
X150434523Y-92113095D01*
%TO.C,C213*%
D11*
X118880952Y-103612380D02*
X118309523Y-103612380D01*
X118595238Y-103612380D02*
X118595238Y-102612380D01*
X118500000Y-102755238D01*
X118404761Y-102850476D01*
X118309523Y-102898095D01*
X119500000Y-102612380D02*
X119595238Y-102612380D01*
X119690476Y-102660000D01*
X119738095Y-102707619D01*
X119785714Y-102802857D01*
X119833333Y-102993333D01*
X119833333Y-103231428D01*
X119785714Y-103421904D01*
X119738095Y-103517142D01*
X119690476Y-103564761D01*
X119595238Y-103612380D01*
X119500000Y-103612380D01*
X119404761Y-103564761D01*
X119357142Y-103517142D01*
X119309523Y-103421904D01*
X119261904Y-103231428D01*
X119261904Y-102993333D01*
X119309523Y-102802857D01*
X119357142Y-102707619D01*
X119404761Y-102660000D01*
X119500000Y-102612380D01*
X120452380Y-102612380D02*
X120547619Y-102612380D01*
X120642857Y-102660000D01*
X120690476Y-102707619D01*
X120738095Y-102802857D01*
X120785714Y-102993333D01*
X120785714Y-103231428D01*
X120738095Y-103421904D01*
X120690476Y-103517142D01*
X120642857Y-103564761D01*
X120547619Y-103612380D01*
X120452380Y-103612380D01*
X120357142Y-103564761D01*
X120309523Y-103517142D01*
X120261904Y-103421904D01*
X120214285Y-103231428D01*
X120214285Y-102993333D01*
X120261904Y-102802857D01*
X120309523Y-102707619D01*
X120357142Y-102660000D01*
X120452380Y-102612380D01*
X121214285Y-102945714D02*
X121214285Y-103612380D01*
X121214285Y-103040952D02*
X121261904Y-102993333D01*
X121357142Y-102945714D01*
X121500000Y-102945714D01*
X121595238Y-102993333D01*
X121642857Y-103088571D01*
X121642857Y-103612380D01*
D13*
X119720238Y-102089285D02*
X119708333Y-102101190D01*
X119672619Y-102113095D01*
X119648809Y-102113095D01*
X119613095Y-102101190D01*
X119589285Y-102077380D01*
X119577380Y-102053571D01*
X119565476Y-102005952D01*
X119565476Y-101970238D01*
X119577380Y-101922619D01*
X119589285Y-101898809D01*
X119613095Y-101875000D01*
X119648809Y-101863095D01*
X119672619Y-101863095D01*
X119708333Y-101875000D01*
X119720238Y-101886904D01*
X119815476Y-101886904D02*
X119827380Y-101875000D01*
X119851190Y-101863095D01*
X119910714Y-101863095D01*
X119934523Y-101875000D01*
X119946428Y-101886904D01*
X119958333Y-101910714D01*
X119958333Y-101934523D01*
X119946428Y-101970238D01*
X119803571Y-102113095D01*
X119958333Y-102113095D01*
X120196428Y-102113095D02*
X120053571Y-102113095D01*
X120125000Y-102113095D02*
X120125000Y-101863095D01*
X120101190Y-101898809D01*
X120077380Y-101922619D01*
X120053571Y-101934523D01*
X120279761Y-101863095D02*
X120434523Y-101863095D01*
X120351190Y-101958333D01*
X120386904Y-101958333D01*
X120410714Y-101970238D01*
X120422619Y-101982142D01*
X120434523Y-102005952D01*
X120434523Y-102065476D01*
X120422619Y-102089285D01*
X120410714Y-102101190D01*
X120386904Y-102113095D01*
X120315476Y-102113095D01*
X120291666Y-102101190D01*
X120279761Y-102089285D01*
%TO.C,C214*%
D11*
X128880952Y-103612380D02*
X128309523Y-103612380D01*
X128595238Y-103612380D02*
X128595238Y-102612380D01*
X128500000Y-102755238D01*
X128404761Y-102850476D01*
X128309523Y-102898095D01*
X129500000Y-102612380D02*
X129595238Y-102612380D01*
X129690476Y-102660000D01*
X129738095Y-102707619D01*
X129785714Y-102802857D01*
X129833333Y-102993333D01*
X129833333Y-103231428D01*
X129785714Y-103421904D01*
X129738095Y-103517142D01*
X129690476Y-103564761D01*
X129595238Y-103612380D01*
X129500000Y-103612380D01*
X129404761Y-103564761D01*
X129357142Y-103517142D01*
X129309523Y-103421904D01*
X129261904Y-103231428D01*
X129261904Y-102993333D01*
X129309523Y-102802857D01*
X129357142Y-102707619D01*
X129404761Y-102660000D01*
X129500000Y-102612380D01*
X130452380Y-102612380D02*
X130547619Y-102612380D01*
X130642857Y-102660000D01*
X130690476Y-102707619D01*
X130738095Y-102802857D01*
X130785714Y-102993333D01*
X130785714Y-103231428D01*
X130738095Y-103421904D01*
X130690476Y-103517142D01*
X130642857Y-103564761D01*
X130547619Y-103612380D01*
X130452380Y-103612380D01*
X130357142Y-103564761D01*
X130309523Y-103517142D01*
X130261904Y-103421904D01*
X130214285Y-103231428D01*
X130214285Y-102993333D01*
X130261904Y-102802857D01*
X130309523Y-102707619D01*
X130357142Y-102660000D01*
X130452380Y-102612380D01*
X131214285Y-102945714D02*
X131214285Y-103612380D01*
X131214285Y-103040952D02*
X131261904Y-102993333D01*
X131357142Y-102945714D01*
X131500000Y-102945714D01*
X131595238Y-102993333D01*
X131642857Y-103088571D01*
X131642857Y-103612380D01*
D13*
X129720238Y-102089285D02*
X129708333Y-102101190D01*
X129672619Y-102113095D01*
X129648809Y-102113095D01*
X129613095Y-102101190D01*
X129589285Y-102077380D01*
X129577380Y-102053571D01*
X129565476Y-102005952D01*
X129565476Y-101970238D01*
X129577380Y-101922619D01*
X129589285Y-101898809D01*
X129613095Y-101875000D01*
X129648809Y-101863095D01*
X129672619Y-101863095D01*
X129708333Y-101875000D01*
X129720238Y-101886904D01*
X129815476Y-101886904D02*
X129827380Y-101875000D01*
X129851190Y-101863095D01*
X129910714Y-101863095D01*
X129934523Y-101875000D01*
X129946428Y-101886904D01*
X129958333Y-101910714D01*
X129958333Y-101934523D01*
X129946428Y-101970238D01*
X129803571Y-102113095D01*
X129958333Y-102113095D01*
X130196428Y-102113095D02*
X130053571Y-102113095D01*
X130125000Y-102113095D02*
X130125000Y-101863095D01*
X130101190Y-101898809D01*
X130077380Y-101922619D01*
X130053571Y-101934523D01*
X130410714Y-101946428D02*
X130410714Y-102113095D01*
X130351190Y-101851190D02*
X130291666Y-102029761D01*
X130446428Y-102029761D01*
%TO.C,C215*%
D11*
X138880952Y-103612380D02*
X138309523Y-103612380D01*
X138595238Y-103612380D02*
X138595238Y-102612380D01*
X138500000Y-102755238D01*
X138404761Y-102850476D01*
X138309523Y-102898095D01*
X139500000Y-102612380D02*
X139595238Y-102612380D01*
X139690476Y-102660000D01*
X139738095Y-102707619D01*
X139785714Y-102802857D01*
X139833333Y-102993333D01*
X139833333Y-103231428D01*
X139785714Y-103421904D01*
X139738095Y-103517142D01*
X139690476Y-103564761D01*
X139595238Y-103612380D01*
X139500000Y-103612380D01*
X139404761Y-103564761D01*
X139357142Y-103517142D01*
X139309523Y-103421904D01*
X139261904Y-103231428D01*
X139261904Y-102993333D01*
X139309523Y-102802857D01*
X139357142Y-102707619D01*
X139404761Y-102660000D01*
X139500000Y-102612380D01*
X140452380Y-102612380D02*
X140547619Y-102612380D01*
X140642857Y-102660000D01*
X140690476Y-102707619D01*
X140738095Y-102802857D01*
X140785714Y-102993333D01*
X140785714Y-103231428D01*
X140738095Y-103421904D01*
X140690476Y-103517142D01*
X140642857Y-103564761D01*
X140547619Y-103612380D01*
X140452380Y-103612380D01*
X140357142Y-103564761D01*
X140309523Y-103517142D01*
X140261904Y-103421904D01*
X140214285Y-103231428D01*
X140214285Y-102993333D01*
X140261904Y-102802857D01*
X140309523Y-102707619D01*
X140357142Y-102660000D01*
X140452380Y-102612380D01*
X141214285Y-102945714D02*
X141214285Y-103612380D01*
X141214285Y-103040952D02*
X141261904Y-102993333D01*
X141357142Y-102945714D01*
X141500000Y-102945714D01*
X141595238Y-102993333D01*
X141642857Y-103088571D01*
X141642857Y-103612380D01*
D13*
X139720238Y-102089285D02*
X139708333Y-102101190D01*
X139672619Y-102113095D01*
X139648809Y-102113095D01*
X139613095Y-102101190D01*
X139589285Y-102077380D01*
X139577380Y-102053571D01*
X139565476Y-102005952D01*
X139565476Y-101970238D01*
X139577380Y-101922619D01*
X139589285Y-101898809D01*
X139613095Y-101875000D01*
X139648809Y-101863095D01*
X139672619Y-101863095D01*
X139708333Y-101875000D01*
X139720238Y-101886904D01*
X139815476Y-101886904D02*
X139827380Y-101875000D01*
X139851190Y-101863095D01*
X139910714Y-101863095D01*
X139934523Y-101875000D01*
X139946428Y-101886904D01*
X139958333Y-101910714D01*
X139958333Y-101934523D01*
X139946428Y-101970238D01*
X139803571Y-102113095D01*
X139958333Y-102113095D01*
X140196428Y-102113095D02*
X140053571Y-102113095D01*
X140125000Y-102113095D02*
X140125000Y-101863095D01*
X140101190Y-101898809D01*
X140077380Y-101922619D01*
X140053571Y-101934523D01*
X140422619Y-101863095D02*
X140303571Y-101863095D01*
X140291666Y-101982142D01*
X140303571Y-101970238D01*
X140327380Y-101958333D01*
X140386904Y-101958333D01*
X140410714Y-101970238D01*
X140422619Y-101982142D01*
X140434523Y-102005952D01*
X140434523Y-102065476D01*
X140422619Y-102089285D01*
X140410714Y-102101190D01*
X140386904Y-102113095D01*
X140327380Y-102113095D01*
X140303571Y-102101190D01*
X140291666Y-102089285D01*
%TO.C,C216*%
D11*
X148880952Y-103612380D02*
X148309523Y-103612380D01*
X148595238Y-103612380D02*
X148595238Y-102612380D01*
X148500000Y-102755238D01*
X148404761Y-102850476D01*
X148309523Y-102898095D01*
X149500000Y-102612380D02*
X149595238Y-102612380D01*
X149690476Y-102660000D01*
X149738095Y-102707619D01*
X149785714Y-102802857D01*
X149833333Y-102993333D01*
X149833333Y-103231428D01*
X149785714Y-103421904D01*
X149738095Y-103517142D01*
X149690476Y-103564761D01*
X149595238Y-103612380D01*
X149500000Y-103612380D01*
X149404761Y-103564761D01*
X149357142Y-103517142D01*
X149309523Y-103421904D01*
X149261904Y-103231428D01*
X149261904Y-102993333D01*
X149309523Y-102802857D01*
X149357142Y-102707619D01*
X149404761Y-102660000D01*
X149500000Y-102612380D01*
X150452380Y-102612380D02*
X150547619Y-102612380D01*
X150642857Y-102660000D01*
X150690476Y-102707619D01*
X150738095Y-102802857D01*
X150785714Y-102993333D01*
X150785714Y-103231428D01*
X150738095Y-103421904D01*
X150690476Y-103517142D01*
X150642857Y-103564761D01*
X150547619Y-103612380D01*
X150452380Y-103612380D01*
X150357142Y-103564761D01*
X150309523Y-103517142D01*
X150261904Y-103421904D01*
X150214285Y-103231428D01*
X150214285Y-102993333D01*
X150261904Y-102802857D01*
X150309523Y-102707619D01*
X150357142Y-102660000D01*
X150452380Y-102612380D01*
X151214285Y-102945714D02*
X151214285Y-103612380D01*
X151214285Y-103040952D02*
X151261904Y-102993333D01*
X151357142Y-102945714D01*
X151500000Y-102945714D01*
X151595238Y-102993333D01*
X151642857Y-103088571D01*
X151642857Y-103612380D01*
D13*
X149720238Y-102089285D02*
X149708333Y-102101190D01*
X149672619Y-102113095D01*
X149648809Y-102113095D01*
X149613095Y-102101190D01*
X149589285Y-102077380D01*
X149577380Y-102053571D01*
X149565476Y-102005952D01*
X149565476Y-101970238D01*
X149577380Y-101922619D01*
X149589285Y-101898809D01*
X149613095Y-101875000D01*
X149648809Y-101863095D01*
X149672619Y-101863095D01*
X149708333Y-101875000D01*
X149720238Y-101886904D01*
X149815476Y-101886904D02*
X149827380Y-101875000D01*
X149851190Y-101863095D01*
X149910714Y-101863095D01*
X149934523Y-101875000D01*
X149946428Y-101886904D01*
X149958333Y-101910714D01*
X149958333Y-101934523D01*
X149946428Y-101970238D01*
X149803571Y-102113095D01*
X149958333Y-102113095D01*
X150196428Y-102113095D02*
X150053571Y-102113095D01*
X150125000Y-102113095D02*
X150125000Y-101863095D01*
X150101190Y-101898809D01*
X150077380Y-101922619D01*
X150053571Y-101934523D01*
X150410714Y-101863095D02*
X150363095Y-101863095D01*
X150339285Y-101875000D01*
X150327380Y-101886904D01*
X150303571Y-101922619D01*
X150291666Y-101970238D01*
X150291666Y-102065476D01*
X150303571Y-102089285D01*
X150315476Y-102101190D01*
X150339285Y-102113095D01*
X150386904Y-102113095D01*
X150410714Y-102101190D01*
X150422619Y-102089285D01*
X150434523Y-102065476D01*
X150434523Y-102005952D01*
X150422619Y-101982142D01*
X150410714Y-101970238D01*
X150386904Y-101958333D01*
X150339285Y-101958333D01*
X150315476Y-101970238D01*
X150303571Y-101982142D01*
X150291666Y-102005952D01*
%TO.C,D201*%
D11*
X122190476Y-78452380D02*
X122428571Y-79452380D01*
X122619047Y-78738095D01*
X122809523Y-79452380D01*
X123047619Y-78452380D01*
X123380952Y-79404761D02*
X123523809Y-79452380D01*
X123761904Y-79452380D01*
X123857142Y-79404761D01*
X123904761Y-79357142D01*
X123952380Y-79261904D01*
X123952380Y-79166666D01*
X123904761Y-79071428D01*
X123857142Y-79023809D01*
X123761904Y-78976190D01*
X123571428Y-78928571D01*
X123476190Y-78880952D01*
X123428571Y-78833333D01*
X123380952Y-78738095D01*
X123380952Y-78642857D01*
X123428571Y-78547619D01*
X123476190Y-78500000D01*
X123571428Y-78452380D01*
X123809523Y-78452380D01*
X123952380Y-78500000D01*
X124333333Y-78547619D02*
X124380952Y-78500000D01*
X124476190Y-78452380D01*
X124714285Y-78452380D01*
X124809523Y-78500000D01*
X124857142Y-78547619D01*
X124904761Y-78642857D01*
X124904761Y-78738095D01*
X124857142Y-78880952D01*
X124285714Y-79452380D01*
X124904761Y-79452380D01*
X125476190Y-78880952D02*
X125380952Y-78833333D01*
X125333333Y-78785714D01*
X125285714Y-78690476D01*
X125285714Y-78642857D01*
X125333333Y-78547619D01*
X125380952Y-78500000D01*
X125476190Y-78452380D01*
X125666666Y-78452380D01*
X125761904Y-78500000D01*
X125809523Y-78547619D01*
X125857142Y-78642857D01*
X125857142Y-78690476D01*
X125809523Y-78785714D01*
X125761904Y-78833333D01*
X125666666Y-78880952D01*
X125476190Y-78880952D01*
X125380952Y-78928571D01*
X125333333Y-78976190D01*
X125285714Y-79071428D01*
X125285714Y-79261904D01*
X125333333Y-79357142D01*
X125380952Y-79404761D01*
X125476190Y-79452380D01*
X125666666Y-79452380D01*
X125761904Y-79404761D01*
X125809523Y-79357142D01*
X125857142Y-79261904D01*
X125857142Y-79071428D01*
X125809523Y-78976190D01*
X125761904Y-78928571D01*
X125666666Y-78880952D01*
X126809523Y-79452380D02*
X126238095Y-79452380D01*
X126523809Y-79452380D02*
X126523809Y-78452380D01*
X126428571Y-78595238D01*
X126333333Y-78690476D01*
X126238095Y-78738095D01*
X127142857Y-78452380D02*
X127761904Y-78452380D01*
X127428571Y-78833333D01*
X127571428Y-78833333D01*
X127666666Y-78880952D01*
X127714285Y-78928571D01*
X127761904Y-79023809D01*
X127761904Y-79261904D01*
X127714285Y-79357142D01*
X127666666Y-79404761D01*
X127571428Y-79452380D01*
X127285714Y-79452380D01*
X127190476Y-79404761D01*
X127142857Y-79357142D01*
X123647619Y-75361904D02*
X123647619Y-74561904D01*
X123838095Y-74561904D01*
X123952380Y-74600000D01*
X124028571Y-74676190D01*
X124066666Y-74752380D01*
X124104761Y-74904761D01*
X124104761Y-75019047D01*
X124066666Y-75171428D01*
X124028571Y-75247619D01*
X123952380Y-75323809D01*
X123838095Y-75361904D01*
X123647619Y-75361904D01*
X124409523Y-74638095D02*
X124447619Y-74600000D01*
X124523809Y-74561904D01*
X124714285Y-74561904D01*
X124790476Y-74600000D01*
X124828571Y-74638095D01*
X124866666Y-74714285D01*
X124866666Y-74790476D01*
X124828571Y-74904761D01*
X124371428Y-75361904D01*
X124866666Y-75361904D01*
X125361904Y-74561904D02*
X125438095Y-74561904D01*
X125514285Y-74600000D01*
X125552380Y-74638095D01*
X125590476Y-74714285D01*
X125628571Y-74866666D01*
X125628571Y-75057142D01*
X125590476Y-75209523D01*
X125552380Y-75285714D01*
X125514285Y-75323809D01*
X125438095Y-75361904D01*
X125361904Y-75361904D01*
X125285714Y-75323809D01*
X125247619Y-75285714D01*
X125209523Y-75209523D01*
X125171428Y-75057142D01*
X125171428Y-74866666D01*
X125209523Y-74714285D01*
X125247619Y-74638095D01*
X125285714Y-74600000D01*
X125361904Y-74561904D01*
X126390476Y-75361904D02*
X125933333Y-75361904D01*
X126161904Y-75361904D02*
X126161904Y-74561904D01*
X126085714Y-74676190D01*
X126009523Y-74752380D01*
X125933333Y-74790476D01*
%TO.C,D202*%
X132190476Y-78452380D02*
X132428571Y-79452380D01*
X132619047Y-78738095D01*
X132809523Y-79452380D01*
X133047619Y-78452380D01*
X133380952Y-79404761D02*
X133523809Y-79452380D01*
X133761904Y-79452380D01*
X133857142Y-79404761D01*
X133904761Y-79357142D01*
X133952380Y-79261904D01*
X133952380Y-79166666D01*
X133904761Y-79071428D01*
X133857142Y-79023809D01*
X133761904Y-78976190D01*
X133571428Y-78928571D01*
X133476190Y-78880952D01*
X133428571Y-78833333D01*
X133380952Y-78738095D01*
X133380952Y-78642857D01*
X133428571Y-78547619D01*
X133476190Y-78500000D01*
X133571428Y-78452380D01*
X133809523Y-78452380D01*
X133952380Y-78500000D01*
X134333333Y-78547619D02*
X134380952Y-78500000D01*
X134476190Y-78452380D01*
X134714285Y-78452380D01*
X134809523Y-78500000D01*
X134857142Y-78547619D01*
X134904761Y-78642857D01*
X134904761Y-78738095D01*
X134857142Y-78880952D01*
X134285714Y-79452380D01*
X134904761Y-79452380D01*
X135476190Y-78880952D02*
X135380952Y-78833333D01*
X135333333Y-78785714D01*
X135285714Y-78690476D01*
X135285714Y-78642857D01*
X135333333Y-78547619D01*
X135380952Y-78500000D01*
X135476190Y-78452380D01*
X135666666Y-78452380D01*
X135761904Y-78500000D01*
X135809523Y-78547619D01*
X135857142Y-78642857D01*
X135857142Y-78690476D01*
X135809523Y-78785714D01*
X135761904Y-78833333D01*
X135666666Y-78880952D01*
X135476190Y-78880952D01*
X135380952Y-78928571D01*
X135333333Y-78976190D01*
X135285714Y-79071428D01*
X135285714Y-79261904D01*
X135333333Y-79357142D01*
X135380952Y-79404761D01*
X135476190Y-79452380D01*
X135666666Y-79452380D01*
X135761904Y-79404761D01*
X135809523Y-79357142D01*
X135857142Y-79261904D01*
X135857142Y-79071428D01*
X135809523Y-78976190D01*
X135761904Y-78928571D01*
X135666666Y-78880952D01*
X136809523Y-79452380D02*
X136238095Y-79452380D01*
X136523809Y-79452380D02*
X136523809Y-78452380D01*
X136428571Y-78595238D01*
X136333333Y-78690476D01*
X136238095Y-78738095D01*
X137142857Y-78452380D02*
X137761904Y-78452380D01*
X137428571Y-78833333D01*
X137571428Y-78833333D01*
X137666666Y-78880952D01*
X137714285Y-78928571D01*
X137761904Y-79023809D01*
X137761904Y-79261904D01*
X137714285Y-79357142D01*
X137666666Y-79404761D01*
X137571428Y-79452380D01*
X137285714Y-79452380D01*
X137190476Y-79404761D01*
X137142857Y-79357142D01*
X133647619Y-75361904D02*
X133647619Y-74561904D01*
X133838095Y-74561904D01*
X133952380Y-74600000D01*
X134028571Y-74676190D01*
X134066666Y-74752380D01*
X134104761Y-74904761D01*
X134104761Y-75019047D01*
X134066666Y-75171428D01*
X134028571Y-75247619D01*
X133952380Y-75323809D01*
X133838095Y-75361904D01*
X133647619Y-75361904D01*
X134409523Y-74638095D02*
X134447619Y-74600000D01*
X134523809Y-74561904D01*
X134714285Y-74561904D01*
X134790476Y-74600000D01*
X134828571Y-74638095D01*
X134866666Y-74714285D01*
X134866666Y-74790476D01*
X134828571Y-74904761D01*
X134371428Y-75361904D01*
X134866666Y-75361904D01*
X135361904Y-74561904D02*
X135438095Y-74561904D01*
X135514285Y-74600000D01*
X135552380Y-74638095D01*
X135590476Y-74714285D01*
X135628571Y-74866666D01*
X135628571Y-75057142D01*
X135590476Y-75209523D01*
X135552380Y-75285714D01*
X135514285Y-75323809D01*
X135438095Y-75361904D01*
X135361904Y-75361904D01*
X135285714Y-75323809D01*
X135247619Y-75285714D01*
X135209523Y-75209523D01*
X135171428Y-75057142D01*
X135171428Y-74866666D01*
X135209523Y-74714285D01*
X135247619Y-74638095D01*
X135285714Y-74600000D01*
X135361904Y-74561904D01*
X135933333Y-74638095D02*
X135971428Y-74600000D01*
X136047619Y-74561904D01*
X136238095Y-74561904D01*
X136314285Y-74600000D01*
X136352380Y-74638095D01*
X136390476Y-74714285D01*
X136390476Y-74790476D01*
X136352380Y-74904761D01*
X135895238Y-75361904D01*
X136390476Y-75361904D01*
%TO.C,D203*%
X142190476Y-78452380D02*
X142428571Y-79452380D01*
X142619047Y-78738095D01*
X142809523Y-79452380D01*
X143047619Y-78452380D01*
X143380952Y-79404761D02*
X143523809Y-79452380D01*
X143761904Y-79452380D01*
X143857142Y-79404761D01*
X143904761Y-79357142D01*
X143952380Y-79261904D01*
X143952380Y-79166666D01*
X143904761Y-79071428D01*
X143857142Y-79023809D01*
X143761904Y-78976190D01*
X143571428Y-78928571D01*
X143476190Y-78880952D01*
X143428571Y-78833333D01*
X143380952Y-78738095D01*
X143380952Y-78642857D01*
X143428571Y-78547619D01*
X143476190Y-78500000D01*
X143571428Y-78452380D01*
X143809523Y-78452380D01*
X143952380Y-78500000D01*
X144333333Y-78547619D02*
X144380952Y-78500000D01*
X144476190Y-78452380D01*
X144714285Y-78452380D01*
X144809523Y-78500000D01*
X144857142Y-78547619D01*
X144904761Y-78642857D01*
X144904761Y-78738095D01*
X144857142Y-78880952D01*
X144285714Y-79452380D01*
X144904761Y-79452380D01*
X145476190Y-78880952D02*
X145380952Y-78833333D01*
X145333333Y-78785714D01*
X145285714Y-78690476D01*
X145285714Y-78642857D01*
X145333333Y-78547619D01*
X145380952Y-78500000D01*
X145476190Y-78452380D01*
X145666666Y-78452380D01*
X145761904Y-78500000D01*
X145809523Y-78547619D01*
X145857142Y-78642857D01*
X145857142Y-78690476D01*
X145809523Y-78785714D01*
X145761904Y-78833333D01*
X145666666Y-78880952D01*
X145476190Y-78880952D01*
X145380952Y-78928571D01*
X145333333Y-78976190D01*
X145285714Y-79071428D01*
X145285714Y-79261904D01*
X145333333Y-79357142D01*
X145380952Y-79404761D01*
X145476190Y-79452380D01*
X145666666Y-79452380D01*
X145761904Y-79404761D01*
X145809523Y-79357142D01*
X145857142Y-79261904D01*
X145857142Y-79071428D01*
X145809523Y-78976190D01*
X145761904Y-78928571D01*
X145666666Y-78880952D01*
X146809523Y-79452380D02*
X146238095Y-79452380D01*
X146523809Y-79452380D02*
X146523809Y-78452380D01*
X146428571Y-78595238D01*
X146333333Y-78690476D01*
X146238095Y-78738095D01*
X147142857Y-78452380D02*
X147761904Y-78452380D01*
X147428571Y-78833333D01*
X147571428Y-78833333D01*
X147666666Y-78880952D01*
X147714285Y-78928571D01*
X147761904Y-79023809D01*
X147761904Y-79261904D01*
X147714285Y-79357142D01*
X147666666Y-79404761D01*
X147571428Y-79452380D01*
X147285714Y-79452380D01*
X147190476Y-79404761D01*
X147142857Y-79357142D01*
X143647619Y-75361904D02*
X143647619Y-74561904D01*
X143838095Y-74561904D01*
X143952380Y-74600000D01*
X144028571Y-74676190D01*
X144066666Y-74752380D01*
X144104761Y-74904761D01*
X144104761Y-75019047D01*
X144066666Y-75171428D01*
X144028571Y-75247619D01*
X143952380Y-75323809D01*
X143838095Y-75361904D01*
X143647619Y-75361904D01*
X144409523Y-74638095D02*
X144447619Y-74600000D01*
X144523809Y-74561904D01*
X144714285Y-74561904D01*
X144790476Y-74600000D01*
X144828571Y-74638095D01*
X144866666Y-74714285D01*
X144866666Y-74790476D01*
X144828571Y-74904761D01*
X144371428Y-75361904D01*
X144866666Y-75361904D01*
X145361904Y-74561904D02*
X145438095Y-74561904D01*
X145514285Y-74600000D01*
X145552380Y-74638095D01*
X145590476Y-74714285D01*
X145628571Y-74866666D01*
X145628571Y-75057142D01*
X145590476Y-75209523D01*
X145552380Y-75285714D01*
X145514285Y-75323809D01*
X145438095Y-75361904D01*
X145361904Y-75361904D01*
X145285714Y-75323809D01*
X145247619Y-75285714D01*
X145209523Y-75209523D01*
X145171428Y-75057142D01*
X145171428Y-74866666D01*
X145209523Y-74714285D01*
X145247619Y-74638095D01*
X145285714Y-74600000D01*
X145361904Y-74561904D01*
X145895238Y-74561904D02*
X146390476Y-74561904D01*
X146123809Y-74866666D01*
X146238095Y-74866666D01*
X146314285Y-74904761D01*
X146352380Y-74942857D01*
X146390476Y-75019047D01*
X146390476Y-75209523D01*
X146352380Y-75285714D01*
X146314285Y-75323809D01*
X146238095Y-75361904D01*
X146009523Y-75361904D01*
X145933333Y-75323809D01*
X145895238Y-75285714D01*
%TO.C,D204*%
X152190476Y-78452380D02*
X152428571Y-79452380D01*
X152619047Y-78738095D01*
X152809523Y-79452380D01*
X153047619Y-78452380D01*
X153380952Y-79404761D02*
X153523809Y-79452380D01*
X153761904Y-79452380D01*
X153857142Y-79404761D01*
X153904761Y-79357142D01*
X153952380Y-79261904D01*
X153952380Y-79166666D01*
X153904761Y-79071428D01*
X153857142Y-79023809D01*
X153761904Y-78976190D01*
X153571428Y-78928571D01*
X153476190Y-78880952D01*
X153428571Y-78833333D01*
X153380952Y-78738095D01*
X153380952Y-78642857D01*
X153428571Y-78547619D01*
X153476190Y-78500000D01*
X153571428Y-78452380D01*
X153809523Y-78452380D01*
X153952380Y-78500000D01*
X154333333Y-78547619D02*
X154380952Y-78500000D01*
X154476190Y-78452380D01*
X154714285Y-78452380D01*
X154809523Y-78500000D01*
X154857142Y-78547619D01*
X154904761Y-78642857D01*
X154904761Y-78738095D01*
X154857142Y-78880952D01*
X154285714Y-79452380D01*
X154904761Y-79452380D01*
X155476190Y-78880952D02*
X155380952Y-78833333D01*
X155333333Y-78785714D01*
X155285714Y-78690476D01*
X155285714Y-78642857D01*
X155333333Y-78547619D01*
X155380952Y-78500000D01*
X155476190Y-78452380D01*
X155666666Y-78452380D01*
X155761904Y-78500000D01*
X155809523Y-78547619D01*
X155857142Y-78642857D01*
X155857142Y-78690476D01*
X155809523Y-78785714D01*
X155761904Y-78833333D01*
X155666666Y-78880952D01*
X155476190Y-78880952D01*
X155380952Y-78928571D01*
X155333333Y-78976190D01*
X155285714Y-79071428D01*
X155285714Y-79261904D01*
X155333333Y-79357142D01*
X155380952Y-79404761D01*
X155476190Y-79452380D01*
X155666666Y-79452380D01*
X155761904Y-79404761D01*
X155809523Y-79357142D01*
X155857142Y-79261904D01*
X155857142Y-79071428D01*
X155809523Y-78976190D01*
X155761904Y-78928571D01*
X155666666Y-78880952D01*
X156809523Y-79452380D02*
X156238095Y-79452380D01*
X156523809Y-79452380D02*
X156523809Y-78452380D01*
X156428571Y-78595238D01*
X156333333Y-78690476D01*
X156238095Y-78738095D01*
X157142857Y-78452380D02*
X157761904Y-78452380D01*
X157428571Y-78833333D01*
X157571428Y-78833333D01*
X157666666Y-78880952D01*
X157714285Y-78928571D01*
X157761904Y-79023809D01*
X157761904Y-79261904D01*
X157714285Y-79357142D01*
X157666666Y-79404761D01*
X157571428Y-79452380D01*
X157285714Y-79452380D01*
X157190476Y-79404761D01*
X157142857Y-79357142D01*
X153647619Y-75361904D02*
X153647619Y-74561904D01*
X153838095Y-74561904D01*
X153952380Y-74600000D01*
X154028571Y-74676190D01*
X154066666Y-74752380D01*
X154104761Y-74904761D01*
X154104761Y-75019047D01*
X154066666Y-75171428D01*
X154028571Y-75247619D01*
X153952380Y-75323809D01*
X153838095Y-75361904D01*
X153647619Y-75361904D01*
X154409523Y-74638095D02*
X154447619Y-74600000D01*
X154523809Y-74561904D01*
X154714285Y-74561904D01*
X154790476Y-74600000D01*
X154828571Y-74638095D01*
X154866666Y-74714285D01*
X154866666Y-74790476D01*
X154828571Y-74904761D01*
X154371428Y-75361904D01*
X154866666Y-75361904D01*
X155361904Y-74561904D02*
X155438095Y-74561904D01*
X155514285Y-74600000D01*
X155552380Y-74638095D01*
X155590476Y-74714285D01*
X155628571Y-74866666D01*
X155628571Y-75057142D01*
X155590476Y-75209523D01*
X155552380Y-75285714D01*
X155514285Y-75323809D01*
X155438095Y-75361904D01*
X155361904Y-75361904D01*
X155285714Y-75323809D01*
X155247619Y-75285714D01*
X155209523Y-75209523D01*
X155171428Y-75057142D01*
X155171428Y-74866666D01*
X155209523Y-74714285D01*
X155247619Y-74638095D01*
X155285714Y-74600000D01*
X155361904Y-74561904D01*
X156314285Y-74828571D02*
X156314285Y-75361904D01*
X156123809Y-74523809D02*
X155933333Y-75095238D01*
X156428571Y-75095238D01*
%TO.C,D205*%
X122190476Y-88452380D02*
X122428571Y-89452380D01*
X122619047Y-88738095D01*
X122809523Y-89452380D01*
X123047619Y-88452380D01*
X123380952Y-89404761D02*
X123523809Y-89452380D01*
X123761904Y-89452380D01*
X123857142Y-89404761D01*
X123904761Y-89357142D01*
X123952380Y-89261904D01*
X123952380Y-89166666D01*
X123904761Y-89071428D01*
X123857142Y-89023809D01*
X123761904Y-88976190D01*
X123571428Y-88928571D01*
X123476190Y-88880952D01*
X123428571Y-88833333D01*
X123380952Y-88738095D01*
X123380952Y-88642857D01*
X123428571Y-88547619D01*
X123476190Y-88500000D01*
X123571428Y-88452380D01*
X123809523Y-88452380D01*
X123952380Y-88500000D01*
X124333333Y-88547619D02*
X124380952Y-88500000D01*
X124476190Y-88452380D01*
X124714285Y-88452380D01*
X124809523Y-88500000D01*
X124857142Y-88547619D01*
X124904761Y-88642857D01*
X124904761Y-88738095D01*
X124857142Y-88880952D01*
X124285714Y-89452380D01*
X124904761Y-89452380D01*
X125476190Y-88880952D02*
X125380952Y-88833333D01*
X125333333Y-88785714D01*
X125285714Y-88690476D01*
X125285714Y-88642857D01*
X125333333Y-88547619D01*
X125380952Y-88500000D01*
X125476190Y-88452380D01*
X125666666Y-88452380D01*
X125761904Y-88500000D01*
X125809523Y-88547619D01*
X125857142Y-88642857D01*
X125857142Y-88690476D01*
X125809523Y-88785714D01*
X125761904Y-88833333D01*
X125666666Y-88880952D01*
X125476190Y-88880952D01*
X125380952Y-88928571D01*
X125333333Y-88976190D01*
X125285714Y-89071428D01*
X125285714Y-89261904D01*
X125333333Y-89357142D01*
X125380952Y-89404761D01*
X125476190Y-89452380D01*
X125666666Y-89452380D01*
X125761904Y-89404761D01*
X125809523Y-89357142D01*
X125857142Y-89261904D01*
X125857142Y-89071428D01*
X125809523Y-88976190D01*
X125761904Y-88928571D01*
X125666666Y-88880952D01*
X126809523Y-89452380D02*
X126238095Y-89452380D01*
X126523809Y-89452380D02*
X126523809Y-88452380D01*
X126428571Y-88595238D01*
X126333333Y-88690476D01*
X126238095Y-88738095D01*
X127142857Y-88452380D02*
X127761904Y-88452380D01*
X127428571Y-88833333D01*
X127571428Y-88833333D01*
X127666666Y-88880952D01*
X127714285Y-88928571D01*
X127761904Y-89023809D01*
X127761904Y-89261904D01*
X127714285Y-89357142D01*
X127666666Y-89404761D01*
X127571428Y-89452380D01*
X127285714Y-89452380D01*
X127190476Y-89404761D01*
X127142857Y-89357142D01*
X123647619Y-85361904D02*
X123647619Y-84561904D01*
X123838095Y-84561904D01*
X123952380Y-84600000D01*
X124028571Y-84676190D01*
X124066666Y-84752380D01*
X124104761Y-84904761D01*
X124104761Y-85019047D01*
X124066666Y-85171428D01*
X124028571Y-85247619D01*
X123952380Y-85323809D01*
X123838095Y-85361904D01*
X123647619Y-85361904D01*
X124409523Y-84638095D02*
X124447619Y-84600000D01*
X124523809Y-84561904D01*
X124714285Y-84561904D01*
X124790476Y-84600000D01*
X124828571Y-84638095D01*
X124866666Y-84714285D01*
X124866666Y-84790476D01*
X124828571Y-84904761D01*
X124371428Y-85361904D01*
X124866666Y-85361904D01*
X125361904Y-84561904D02*
X125438095Y-84561904D01*
X125514285Y-84600000D01*
X125552380Y-84638095D01*
X125590476Y-84714285D01*
X125628571Y-84866666D01*
X125628571Y-85057142D01*
X125590476Y-85209523D01*
X125552380Y-85285714D01*
X125514285Y-85323809D01*
X125438095Y-85361904D01*
X125361904Y-85361904D01*
X125285714Y-85323809D01*
X125247619Y-85285714D01*
X125209523Y-85209523D01*
X125171428Y-85057142D01*
X125171428Y-84866666D01*
X125209523Y-84714285D01*
X125247619Y-84638095D01*
X125285714Y-84600000D01*
X125361904Y-84561904D01*
X126352380Y-84561904D02*
X125971428Y-84561904D01*
X125933333Y-84942857D01*
X125971428Y-84904761D01*
X126047619Y-84866666D01*
X126238095Y-84866666D01*
X126314285Y-84904761D01*
X126352380Y-84942857D01*
X126390476Y-85019047D01*
X126390476Y-85209523D01*
X126352380Y-85285714D01*
X126314285Y-85323809D01*
X126238095Y-85361904D01*
X126047619Y-85361904D01*
X125971428Y-85323809D01*
X125933333Y-85285714D01*
%TO.C,D206*%
X132190476Y-88452380D02*
X132428571Y-89452380D01*
X132619047Y-88738095D01*
X132809523Y-89452380D01*
X133047619Y-88452380D01*
X133380952Y-89404761D02*
X133523809Y-89452380D01*
X133761904Y-89452380D01*
X133857142Y-89404761D01*
X133904761Y-89357142D01*
X133952380Y-89261904D01*
X133952380Y-89166666D01*
X133904761Y-89071428D01*
X133857142Y-89023809D01*
X133761904Y-88976190D01*
X133571428Y-88928571D01*
X133476190Y-88880952D01*
X133428571Y-88833333D01*
X133380952Y-88738095D01*
X133380952Y-88642857D01*
X133428571Y-88547619D01*
X133476190Y-88500000D01*
X133571428Y-88452380D01*
X133809523Y-88452380D01*
X133952380Y-88500000D01*
X134333333Y-88547619D02*
X134380952Y-88500000D01*
X134476190Y-88452380D01*
X134714285Y-88452380D01*
X134809523Y-88500000D01*
X134857142Y-88547619D01*
X134904761Y-88642857D01*
X134904761Y-88738095D01*
X134857142Y-88880952D01*
X134285714Y-89452380D01*
X134904761Y-89452380D01*
X135476190Y-88880952D02*
X135380952Y-88833333D01*
X135333333Y-88785714D01*
X135285714Y-88690476D01*
X135285714Y-88642857D01*
X135333333Y-88547619D01*
X135380952Y-88500000D01*
X135476190Y-88452380D01*
X135666666Y-88452380D01*
X135761904Y-88500000D01*
X135809523Y-88547619D01*
X135857142Y-88642857D01*
X135857142Y-88690476D01*
X135809523Y-88785714D01*
X135761904Y-88833333D01*
X135666666Y-88880952D01*
X135476190Y-88880952D01*
X135380952Y-88928571D01*
X135333333Y-88976190D01*
X135285714Y-89071428D01*
X135285714Y-89261904D01*
X135333333Y-89357142D01*
X135380952Y-89404761D01*
X135476190Y-89452380D01*
X135666666Y-89452380D01*
X135761904Y-89404761D01*
X135809523Y-89357142D01*
X135857142Y-89261904D01*
X135857142Y-89071428D01*
X135809523Y-88976190D01*
X135761904Y-88928571D01*
X135666666Y-88880952D01*
X136809523Y-89452380D02*
X136238095Y-89452380D01*
X136523809Y-89452380D02*
X136523809Y-88452380D01*
X136428571Y-88595238D01*
X136333333Y-88690476D01*
X136238095Y-88738095D01*
X137142857Y-88452380D02*
X137761904Y-88452380D01*
X137428571Y-88833333D01*
X137571428Y-88833333D01*
X137666666Y-88880952D01*
X137714285Y-88928571D01*
X137761904Y-89023809D01*
X137761904Y-89261904D01*
X137714285Y-89357142D01*
X137666666Y-89404761D01*
X137571428Y-89452380D01*
X137285714Y-89452380D01*
X137190476Y-89404761D01*
X137142857Y-89357142D01*
X133647619Y-85361904D02*
X133647619Y-84561904D01*
X133838095Y-84561904D01*
X133952380Y-84600000D01*
X134028571Y-84676190D01*
X134066666Y-84752380D01*
X134104761Y-84904761D01*
X134104761Y-85019047D01*
X134066666Y-85171428D01*
X134028571Y-85247619D01*
X133952380Y-85323809D01*
X133838095Y-85361904D01*
X133647619Y-85361904D01*
X134409523Y-84638095D02*
X134447619Y-84600000D01*
X134523809Y-84561904D01*
X134714285Y-84561904D01*
X134790476Y-84600000D01*
X134828571Y-84638095D01*
X134866666Y-84714285D01*
X134866666Y-84790476D01*
X134828571Y-84904761D01*
X134371428Y-85361904D01*
X134866666Y-85361904D01*
X135361904Y-84561904D02*
X135438095Y-84561904D01*
X135514285Y-84600000D01*
X135552380Y-84638095D01*
X135590476Y-84714285D01*
X135628571Y-84866666D01*
X135628571Y-85057142D01*
X135590476Y-85209523D01*
X135552380Y-85285714D01*
X135514285Y-85323809D01*
X135438095Y-85361904D01*
X135361904Y-85361904D01*
X135285714Y-85323809D01*
X135247619Y-85285714D01*
X135209523Y-85209523D01*
X135171428Y-85057142D01*
X135171428Y-84866666D01*
X135209523Y-84714285D01*
X135247619Y-84638095D01*
X135285714Y-84600000D01*
X135361904Y-84561904D01*
X136314285Y-84561904D02*
X136161904Y-84561904D01*
X136085714Y-84600000D01*
X136047619Y-84638095D01*
X135971428Y-84752380D01*
X135933333Y-84904761D01*
X135933333Y-85209523D01*
X135971428Y-85285714D01*
X136009523Y-85323809D01*
X136085714Y-85361904D01*
X136238095Y-85361904D01*
X136314285Y-85323809D01*
X136352380Y-85285714D01*
X136390476Y-85209523D01*
X136390476Y-85019047D01*
X136352380Y-84942857D01*
X136314285Y-84904761D01*
X136238095Y-84866666D01*
X136085714Y-84866666D01*
X136009523Y-84904761D01*
X135971428Y-84942857D01*
X135933333Y-85019047D01*
%TO.C,D207*%
X142190476Y-88452380D02*
X142428571Y-89452380D01*
X142619047Y-88738095D01*
X142809523Y-89452380D01*
X143047619Y-88452380D01*
X143380952Y-89404761D02*
X143523809Y-89452380D01*
X143761904Y-89452380D01*
X143857142Y-89404761D01*
X143904761Y-89357142D01*
X143952380Y-89261904D01*
X143952380Y-89166666D01*
X143904761Y-89071428D01*
X143857142Y-89023809D01*
X143761904Y-88976190D01*
X143571428Y-88928571D01*
X143476190Y-88880952D01*
X143428571Y-88833333D01*
X143380952Y-88738095D01*
X143380952Y-88642857D01*
X143428571Y-88547619D01*
X143476190Y-88500000D01*
X143571428Y-88452380D01*
X143809523Y-88452380D01*
X143952380Y-88500000D01*
X144333333Y-88547619D02*
X144380952Y-88500000D01*
X144476190Y-88452380D01*
X144714285Y-88452380D01*
X144809523Y-88500000D01*
X144857142Y-88547619D01*
X144904761Y-88642857D01*
X144904761Y-88738095D01*
X144857142Y-88880952D01*
X144285714Y-89452380D01*
X144904761Y-89452380D01*
X145476190Y-88880952D02*
X145380952Y-88833333D01*
X145333333Y-88785714D01*
X145285714Y-88690476D01*
X145285714Y-88642857D01*
X145333333Y-88547619D01*
X145380952Y-88500000D01*
X145476190Y-88452380D01*
X145666666Y-88452380D01*
X145761904Y-88500000D01*
X145809523Y-88547619D01*
X145857142Y-88642857D01*
X145857142Y-88690476D01*
X145809523Y-88785714D01*
X145761904Y-88833333D01*
X145666666Y-88880952D01*
X145476190Y-88880952D01*
X145380952Y-88928571D01*
X145333333Y-88976190D01*
X145285714Y-89071428D01*
X145285714Y-89261904D01*
X145333333Y-89357142D01*
X145380952Y-89404761D01*
X145476190Y-89452380D01*
X145666666Y-89452380D01*
X145761904Y-89404761D01*
X145809523Y-89357142D01*
X145857142Y-89261904D01*
X145857142Y-89071428D01*
X145809523Y-88976190D01*
X145761904Y-88928571D01*
X145666666Y-88880952D01*
X146809523Y-89452380D02*
X146238095Y-89452380D01*
X146523809Y-89452380D02*
X146523809Y-88452380D01*
X146428571Y-88595238D01*
X146333333Y-88690476D01*
X146238095Y-88738095D01*
X147142857Y-88452380D02*
X147761904Y-88452380D01*
X147428571Y-88833333D01*
X147571428Y-88833333D01*
X147666666Y-88880952D01*
X147714285Y-88928571D01*
X147761904Y-89023809D01*
X147761904Y-89261904D01*
X147714285Y-89357142D01*
X147666666Y-89404761D01*
X147571428Y-89452380D01*
X147285714Y-89452380D01*
X147190476Y-89404761D01*
X147142857Y-89357142D01*
X143647619Y-85361904D02*
X143647619Y-84561904D01*
X143838095Y-84561904D01*
X143952380Y-84600000D01*
X144028571Y-84676190D01*
X144066666Y-84752380D01*
X144104761Y-84904761D01*
X144104761Y-85019047D01*
X144066666Y-85171428D01*
X144028571Y-85247619D01*
X143952380Y-85323809D01*
X143838095Y-85361904D01*
X143647619Y-85361904D01*
X144409523Y-84638095D02*
X144447619Y-84600000D01*
X144523809Y-84561904D01*
X144714285Y-84561904D01*
X144790476Y-84600000D01*
X144828571Y-84638095D01*
X144866666Y-84714285D01*
X144866666Y-84790476D01*
X144828571Y-84904761D01*
X144371428Y-85361904D01*
X144866666Y-85361904D01*
X145361904Y-84561904D02*
X145438095Y-84561904D01*
X145514285Y-84600000D01*
X145552380Y-84638095D01*
X145590476Y-84714285D01*
X145628571Y-84866666D01*
X145628571Y-85057142D01*
X145590476Y-85209523D01*
X145552380Y-85285714D01*
X145514285Y-85323809D01*
X145438095Y-85361904D01*
X145361904Y-85361904D01*
X145285714Y-85323809D01*
X145247619Y-85285714D01*
X145209523Y-85209523D01*
X145171428Y-85057142D01*
X145171428Y-84866666D01*
X145209523Y-84714285D01*
X145247619Y-84638095D01*
X145285714Y-84600000D01*
X145361904Y-84561904D01*
X145895238Y-84561904D02*
X146428571Y-84561904D01*
X146085714Y-85361904D01*
%TO.C,D208*%
X152190476Y-88452380D02*
X152428571Y-89452380D01*
X152619047Y-88738095D01*
X152809523Y-89452380D01*
X153047619Y-88452380D01*
X153380952Y-89404761D02*
X153523809Y-89452380D01*
X153761904Y-89452380D01*
X153857142Y-89404761D01*
X153904761Y-89357142D01*
X153952380Y-89261904D01*
X153952380Y-89166666D01*
X153904761Y-89071428D01*
X153857142Y-89023809D01*
X153761904Y-88976190D01*
X153571428Y-88928571D01*
X153476190Y-88880952D01*
X153428571Y-88833333D01*
X153380952Y-88738095D01*
X153380952Y-88642857D01*
X153428571Y-88547619D01*
X153476190Y-88500000D01*
X153571428Y-88452380D01*
X153809523Y-88452380D01*
X153952380Y-88500000D01*
X154333333Y-88547619D02*
X154380952Y-88500000D01*
X154476190Y-88452380D01*
X154714285Y-88452380D01*
X154809523Y-88500000D01*
X154857142Y-88547619D01*
X154904761Y-88642857D01*
X154904761Y-88738095D01*
X154857142Y-88880952D01*
X154285714Y-89452380D01*
X154904761Y-89452380D01*
X155476190Y-88880952D02*
X155380952Y-88833333D01*
X155333333Y-88785714D01*
X155285714Y-88690476D01*
X155285714Y-88642857D01*
X155333333Y-88547619D01*
X155380952Y-88500000D01*
X155476190Y-88452380D01*
X155666666Y-88452380D01*
X155761904Y-88500000D01*
X155809523Y-88547619D01*
X155857142Y-88642857D01*
X155857142Y-88690476D01*
X155809523Y-88785714D01*
X155761904Y-88833333D01*
X155666666Y-88880952D01*
X155476190Y-88880952D01*
X155380952Y-88928571D01*
X155333333Y-88976190D01*
X155285714Y-89071428D01*
X155285714Y-89261904D01*
X155333333Y-89357142D01*
X155380952Y-89404761D01*
X155476190Y-89452380D01*
X155666666Y-89452380D01*
X155761904Y-89404761D01*
X155809523Y-89357142D01*
X155857142Y-89261904D01*
X155857142Y-89071428D01*
X155809523Y-88976190D01*
X155761904Y-88928571D01*
X155666666Y-88880952D01*
X156809523Y-89452380D02*
X156238095Y-89452380D01*
X156523809Y-89452380D02*
X156523809Y-88452380D01*
X156428571Y-88595238D01*
X156333333Y-88690476D01*
X156238095Y-88738095D01*
X157142857Y-88452380D02*
X157761904Y-88452380D01*
X157428571Y-88833333D01*
X157571428Y-88833333D01*
X157666666Y-88880952D01*
X157714285Y-88928571D01*
X157761904Y-89023809D01*
X157761904Y-89261904D01*
X157714285Y-89357142D01*
X157666666Y-89404761D01*
X157571428Y-89452380D01*
X157285714Y-89452380D01*
X157190476Y-89404761D01*
X157142857Y-89357142D01*
X153647619Y-85361904D02*
X153647619Y-84561904D01*
X153838095Y-84561904D01*
X153952380Y-84600000D01*
X154028571Y-84676190D01*
X154066666Y-84752380D01*
X154104761Y-84904761D01*
X154104761Y-85019047D01*
X154066666Y-85171428D01*
X154028571Y-85247619D01*
X153952380Y-85323809D01*
X153838095Y-85361904D01*
X153647619Y-85361904D01*
X154409523Y-84638095D02*
X154447619Y-84600000D01*
X154523809Y-84561904D01*
X154714285Y-84561904D01*
X154790476Y-84600000D01*
X154828571Y-84638095D01*
X154866666Y-84714285D01*
X154866666Y-84790476D01*
X154828571Y-84904761D01*
X154371428Y-85361904D01*
X154866666Y-85361904D01*
X155361904Y-84561904D02*
X155438095Y-84561904D01*
X155514285Y-84600000D01*
X155552380Y-84638095D01*
X155590476Y-84714285D01*
X155628571Y-84866666D01*
X155628571Y-85057142D01*
X155590476Y-85209523D01*
X155552380Y-85285714D01*
X155514285Y-85323809D01*
X155438095Y-85361904D01*
X155361904Y-85361904D01*
X155285714Y-85323809D01*
X155247619Y-85285714D01*
X155209523Y-85209523D01*
X155171428Y-85057142D01*
X155171428Y-84866666D01*
X155209523Y-84714285D01*
X155247619Y-84638095D01*
X155285714Y-84600000D01*
X155361904Y-84561904D01*
X156085714Y-84904761D02*
X156009523Y-84866666D01*
X155971428Y-84828571D01*
X155933333Y-84752380D01*
X155933333Y-84714285D01*
X155971428Y-84638095D01*
X156009523Y-84600000D01*
X156085714Y-84561904D01*
X156238095Y-84561904D01*
X156314285Y-84600000D01*
X156352380Y-84638095D01*
X156390476Y-84714285D01*
X156390476Y-84752380D01*
X156352380Y-84828571D01*
X156314285Y-84866666D01*
X156238095Y-84904761D01*
X156085714Y-84904761D01*
X156009523Y-84942857D01*
X155971428Y-84980952D01*
X155933333Y-85057142D01*
X155933333Y-85209523D01*
X155971428Y-85285714D01*
X156009523Y-85323809D01*
X156085714Y-85361904D01*
X156238095Y-85361904D01*
X156314285Y-85323809D01*
X156352380Y-85285714D01*
X156390476Y-85209523D01*
X156390476Y-85057142D01*
X156352380Y-84980952D01*
X156314285Y-84942857D01*
X156238095Y-84904761D01*
%TO.C,D209*%
X122190476Y-98452380D02*
X122428571Y-99452380D01*
X122619047Y-98738095D01*
X122809523Y-99452380D01*
X123047619Y-98452380D01*
X123380952Y-99404761D02*
X123523809Y-99452380D01*
X123761904Y-99452380D01*
X123857142Y-99404761D01*
X123904761Y-99357142D01*
X123952380Y-99261904D01*
X123952380Y-99166666D01*
X123904761Y-99071428D01*
X123857142Y-99023809D01*
X123761904Y-98976190D01*
X123571428Y-98928571D01*
X123476190Y-98880952D01*
X123428571Y-98833333D01*
X123380952Y-98738095D01*
X123380952Y-98642857D01*
X123428571Y-98547619D01*
X123476190Y-98500000D01*
X123571428Y-98452380D01*
X123809523Y-98452380D01*
X123952380Y-98500000D01*
X124333333Y-98547619D02*
X124380952Y-98500000D01*
X124476190Y-98452380D01*
X124714285Y-98452380D01*
X124809523Y-98500000D01*
X124857142Y-98547619D01*
X124904761Y-98642857D01*
X124904761Y-98738095D01*
X124857142Y-98880952D01*
X124285714Y-99452380D01*
X124904761Y-99452380D01*
X125476190Y-98880952D02*
X125380952Y-98833333D01*
X125333333Y-98785714D01*
X125285714Y-98690476D01*
X125285714Y-98642857D01*
X125333333Y-98547619D01*
X125380952Y-98500000D01*
X125476190Y-98452380D01*
X125666666Y-98452380D01*
X125761904Y-98500000D01*
X125809523Y-98547619D01*
X125857142Y-98642857D01*
X125857142Y-98690476D01*
X125809523Y-98785714D01*
X125761904Y-98833333D01*
X125666666Y-98880952D01*
X125476190Y-98880952D01*
X125380952Y-98928571D01*
X125333333Y-98976190D01*
X125285714Y-99071428D01*
X125285714Y-99261904D01*
X125333333Y-99357142D01*
X125380952Y-99404761D01*
X125476190Y-99452380D01*
X125666666Y-99452380D01*
X125761904Y-99404761D01*
X125809523Y-99357142D01*
X125857142Y-99261904D01*
X125857142Y-99071428D01*
X125809523Y-98976190D01*
X125761904Y-98928571D01*
X125666666Y-98880952D01*
X126809523Y-99452380D02*
X126238095Y-99452380D01*
X126523809Y-99452380D02*
X126523809Y-98452380D01*
X126428571Y-98595238D01*
X126333333Y-98690476D01*
X126238095Y-98738095D01*
X127142857Y-98452380D02*
X127761904Y-98452380D01*
X127428571Y-98833333D01*
X127571428Y-98833333D01*
X127666666Y-98880952D01*
X127714285Y-98928571D01*
X127761904Y-99023809D01*
X127761904Y-99261904D01*
X127714285Y-99357142D01*
X127666666Y-99404761D01*
X127571428Y-99452380D01*
X127285714Y-99452380D01*
X127190476Y-99404761D01*
X127142857Y-99357142D01*
X123647619Y-95361904D02*
X123647619Y-94561904D01*
X123838095Y-94561904D01*
X123952380Y-94600000D01*
X124028571Y-94676190D01*
X124066666Y-94752380D01*
X124104761Y-94904761D01*
X124104761Y-95019047D01*
X124066666Y-95171428D01*
X124028571Y-95247619D01*
X123952380Y-95323809D01*
X123838095Y-95361904D01*
X123647619Y-95361904D01*
X124409523Y-94638095D02*
X124447619Y-94600000D01*
X124523809Y-94561904D01*
X124714285Y-94561904D01*
X124790476Y-94600000D01*
X124828571Y-94638095D01*
X124866666Y-94714285D01*
X124866666Y-94790476D01*
X124828571Y-94904761D01*
X124371428Y-95361904D01*
X124866666Y-95361904D01*
X125361904Y-94561904D02*
X125438095Y-94561904D01*
X125514285Y-94600000D01*
X125552380Y-94638095D01*
X125590476Y-94714285D01*
X125628571Y-94866666D01*
X125628571Y-95057142D01*
X125590476Y-95209523D01*
X125552380Y-95285714D01*
X125514285Y-95323809D01*
X125438095Y-95361904D01*
X125361904Y-95361904D01*
X125285714Y-95323809D01*
X125247619Y-95285714D01*
X125209523Y-95209523D01*
X125171428Y-95057142D01*
X125171428Y-94866666D01*
X125209523Y-94714285D01*
X125247619Y-94638095D01*
X125285714Y-94600000D01*
X125361904Y-94561904D01*
X126009523Y-95361904D02*
X126161904Y-95361904D01*
X126238095Y-95323809D01*
X126276190Y-95285714D01*
X126352380Y-95171428D01*
X126390476Y-95019047D01*
X126390476Y-94714285D01*
X126352380Y-94638095D01*
X126314285Y-94600000D01*
X126238095Y-94561904D01*
X126085714Y-94561904D01*
X126009523Y-94600000D01*
X125971428Y-94638095D01*
X125933333Y-94714285D01*
X125933333Y-94904761D01*
X125971428Y-94980952D01*
X126009523Y-95019047D01*
X126085714Y-95057142D01*
X126238095Y-95057142D01*
X126314285Y-95019047D01*
X126352380Y-94980952D01*
X126390476Y-94904761D01*
%TO.C,D210*%
X132190476Y-98452380D02*
X132428571Y-99452380D01*
X132619047Y-98738095D01*
X132809523Y-99452380D01*
X133047619Y-98452380D01*
X133380952Y-99404761D02*
X133523809Y-99452380D01*
X133761904Y-99452380D01*
X133857142Y-99404761D01*
X133904761Y-99357142D01*
X133952380Y-99261904D01*
X133952380Y-99166666D01*
X133904761Y-99071428D01*
X133857142Y-99023809D01*
X133761904Y-98976190D01*
X133571428Y-98928571D01*
X133476190Y-98880952D01*
X133428571Y-98833333D01*
X133380952Y-98738095D01*
X133380952Y-98642857D01*
X133428571Y-98547619D01*
X133476190Y-98500000D01*
X133571428Y-98452380D01*
X133809523Y-98452380D01*
X133952380Y-98500000D01*
X134333333Y-98547619D02*
X134380952Y-98500000D01*
X134476190Y-98452380D01*
X134714285Y-98452380D01*
X134809523Y-98500000D01*
X134857142Y-98547619D01*
X134904761Y-98642857D01*
X134904761Y-98738095D01*
X134857142Y-98880952D01*
X134285714Y-99452380D01*
X134904761Y-99452380D01*
X135476190Y-98880952D02*
X135380952Y-98833333D01*
X135333333Y-98785714D01*
X135285714Y-98690476D01*
X135285714Y-98642857D01*
X135333333Y-98547619D01*
X135380952Y-98500000D01*
X135476190Y-98452380D01*
X135666666Y-98452380D01*
X135761904Y-98500000D01*
X135809523Y-98547619D01*
X135857142Y-98642857D01*
X135857142Y-98690476D01*
X135809523Y-98785714D01*
X135761904Y-98833333D01*
X135666666Y-98880952D01*
X135476190Y-98880952D01*
X135380952Y-98928571D01*
X135333333Y-98976190D01*
X135285714Y-99071428D01*
X135285714Y-99261904D01*
X135333333Y-99357142D01*
X135380952Y-99404761D01*
X135476190Y-99452380D01*
X135666666Y-99452380D01*
X135761904Y-99404761D01*
X135809523Y-99357142D01*
X135857142Y-99261904D01*
X135857142Y-99071428D01*
X135809523Y-98976190D01*
X135761904Y-98928571D01*
X135666666Y-98880952D01*
X136809523Y-99452380D02*
X136238095Y-99452380D01*
X136523809Y-99452380D02*
X136523809Y-98452380D01*
X136428571Y-98595238D01*
X136333333Y-98690476D01*
X136238095Y-98738095D01*
X137142857Y-98452380D02*
X137761904Y-98452380D01*
X137428571Y-98833333D01*
X137571428Y-98833333D01*
X137666666Y-98880952D01*
X137714285Y-98928571D01*
X137761904Y-99023809D01*
X137761904Y-99261904D01*
X137714285Y-99357142D01*
X137666666Y-99404761D01*
X137571428Y-99452380D01*
X137285714Y-99452380D01*
X137190476Y-99404761D01*
X137142857Y-99357142D01*
X133647619Y-95361904D02*
X133647619Y-94561904D01*
X133838095Y-94561904D01*
X133952380Y-94600000D01*
X134028571Y-94676190D01*
X134066666Y-94752380D01*
X134104761Y-94904761D01*
X134104761Y-95019047D01*
X134066666Y-95171428D01*
X134028571Y-95247619D01*
X133952380Y-95323809D01*
X133838095Y-95361904D01*
X133647619Y-95361904D01*
X134409523Y-94638095D02*
X134447619Y-94600000D01*
X134523809Y-94561904D01*
X134714285Y-94561904D01*
X134790476Y-94600000D01*
X134828571Y-94638095D01*
X134866666Y-94714285D01*
X134866666Y-94790476D01*
X134828571Y-94904761D01*
X134371428Y-95361904D01*
X134866666Y-95361904D01*
X135628571Y-95361904D02*
X135171428Y-95361904D01*
X135400000Y-95361904D02*
X135400000Y-94561904D01*
X135323809Y-94676190D01*
X135247619Y-94752380D01*
X135171428Y-94790476D01*
X136123809Y-94561904D02*
X136200000Y-94561904D01*
X136276190Y-94600000D01*
X136314285Y-94638095D01*
X136352380Y-94714285D01*
X136390476Y-94866666D01*
X136390476Y-95057142D01*
X136352380Y-95209523D01*
X136314285Y-95285714D01*
X136276190Y-95323809D01*
X136200000Y-95361904D01*
X136123809Y-95361904D01*
X136047619Y-95323809D01*
X136009523Y-95285714D01*
X135971428Y-95209523D01*
X135933333Y-95057142D01*
X135933333Y-94866666D01*
X135971428Y-94714285D01*
X136009523Y-94638095D01*
X136047619Y-94600000D01*
X136123809Y-94561904D01*
%TO.C,D211*%
X142190476Y-98452380D02*
X142428571Y-99452380D01*
X142619047Y-98738095D01*
X142809523Y-99452380D01*
X143047619Y-98452380D01*
X143380952Y-99404761D02*
X143523809Y-99452380D01*
X143761904Y-99452380D01*
X143857142Y-99404761D01*
X143904761Y-99357142D01*
X143952380Y-99261904D01*
X143952380Y-99166666D01*
X143904761Y-99071428D01*
X143857142Y-99023809D01*
X143761904Y-98976190D01*
X143571428Y-98928571D01*
X143476190Y-98880952D01*
X143428571Y-98833333D01*
X143380952Y-98738095D01*
X143380952Y-98642857D01*
X143428571Y-98547619D01*
X143476190Y-98500000D01*
X143571428Y-98452380D01*
X143809523Y-98452380D01*
X143952380Y-98500000D01*
X144333333Y-98547619D02*
X144380952Y-98500000D01*
X144476190Y-98452380D01*
X144714285Y-98452380D01*
X144809523Y-98500000D01*
X144857142Y-98547619D01*
X144904761Y-98642857D01*
X144904761Y-98738095D01*
X144857142Y-98880952D01*
X144285714Y-99452380D01*
X144904761Y-99452380D01*
X145476190Y-98880952D02*
X145380952Y-98833333D01*
X145333333Y-98785714D01*
X145285714Y-98690476D01*
X145285714Y-98642857D01*
X145333333Y-98547619D01*
X145380952Y-98500000D01*
X145476190Y-98452380D01*
X145666666Y-98452380D01*
X145761904Y-98500000D01*
X145809523Y-98547619D01*
X145857142Y-98642857D01*
X145857142Y-98690476D01*
X145809523Y-98785714D01*
X145761904Y-98833333D01*
X145666666Y-98880952D01*
X145476190Y-98880952D01*
X145380952Y-98928571D01*
X145333333Y-98976190D01*
X145285714Y-99071428D01*
X145285714Y-99261904D01*
X145333333Y-99357142D01*
X145380952Y-99404761D01*
X145476190Y-99452380D01*
X145666666Y-99452380D01*
X145761904Y-99404761D01*
X145809523Y-99357142D01*
X145857142Y-99261904D01*
X145857142Y-99071428D01*
X145809523Y-98976190D01*
X145761904Y-98928571D01*
X145666666Y-98880952D01*
X146809523Y-99452380D02*
X146238095Y-99452380D01*
X146523809Y-99452380D02*
X146523809Y-98452380D01*
X146428571Y-98595238D01*
X146333333Y-98690476D01*
X146238095Y-98738095D01*
X147142857Y-98452380D02*
X147761904Y-98452380D01*
X147428571Y-98833333D01*
X147571428Y-98833333D01*
X147666666Y-98880952D01*
X147714285Y-98928571D01*
X147761904Y-99023809D01*
X147761904Y-99261904D01*
X147714285Y-99357142D01*
X147666666Y-99404761D01*
X147571428Y-99452380D01*
X147285714Y-99452380D01*
X147190476Y-99404761D01*
X147142857Y-99357142D01*
X143647619Y-95361904D02*
X143647619Y-94561904D01*
X143838095Y-94561904D01*
X143952380Y-94600000D01*
X144028571Y-94676190D01*
X144066666Y-94752380D01*
X144104761Y-94904761D01*
X144104761Y-95019047D01*
X144066666Y-95171428D01*
X144028571Y-95247619D01*
X143952380Y-95323809D01*
X143838095Y-95361904D01*
X143647619Y-95361904D01*
X144409523Y-94638095D02*
X144447619Y-94600000D01*
X144523809Y-94561904D01*
X144714285Y-94561904D01*
X144790476Y-94600000D01*
X144828571Y-94638095D01*
X144866666Y-94714285D01*
X144866666Y-94790476D01*
X144828571Y-94904761D01*
X144371428Y-95361904D01*
X144866666Y-95361904D01*
X145628571Y-95361904D02*
X145171428Y-95361904D01*
X145400000Y-95361904D02*
X145400000Y-94561904D01*
X145323809Y-94676190D01*
X145247619Y-94752380D01*
X145171428Y-94790476D01*
X146390476Y-95361904D02*
X145933333Y-95361904D01*
X146161904Y-95361904D02*
X146161904Y-94561904D01*
X146085714Y-94676190D01*
X146009523Y-94752380D01*
X145933333Y-94790476D01*
%TO.C,D212*%
X152190476Y-98452380D02*
X152428571Y-99452380D01*
X152619047Y-98738095D01*
X152809523Y-99452380D01*
X153047619Y-98452380D01*
X153380952Y-99404761D02*
X153523809Y-99452380D01*
X153761904Y-99452380D01*
X153857142Y-99404761D01*
X153904761Y-99357142D01*
X153952380Y-99261904D01*
X153952380Y-99166666D01*
X153904761Y-99071428D01*
X153857142Y-99023809D01*
X153761904Y-98976190D01*
X153571428Y-98928571D01*
X153476190Y-98880952D01*
X153428571Y-98833333D01*
X153380952Y-98738095D01*
X153380952Y-98642857D01*
X153428571Y-98547619D01*
X153476190Y-98500000D01*
X153571428Y-98452380D01*
X153809523Y-98452380D01*
X153952380Y-98500000D01*
X154333333Y-98547619D02*
X154380952Y-98500000D01*
X154476190Y-98452380D01*
X154714285Y-98452380D01*
X154809523Y-98500000D01*
X154857142Y-98547619D01*
X154904761Y-98642857D01*
X154904761Y-98738095D01*
X154857142Y-98880952D01*
X154285714Y-99452380D01*
X154904761Y-99452380D01*
X155476190Y-98880952D02*
X155380952Y-98833333D01*
X155333333Y-98785714D01*
X155285714Y-98690476D01*
X155285714Y-98642857D01*
X155333333Y-98547619D01*
X155380952Y-98500000D01*
X155476190Y-98452380D01*
X155666666Y-98452380D01*
X155761904Y-98500000D01*
X155809523Y-98547619D01*
X155857142Y-98642857D01*
X155857142Y-98690476D01*
X155809523Y-98785714D01*
X155761904Y-98833333D01*
X155666666Y-98880952D01*
X155476190Y-98880952D01*
X155380952Y-98928571D01*
X155333333Y-98976190D01*
X155285714Y-99071428D01*
X155285714Y-99261904D01*
X155333333Y-99357142D01*
X155380952Y-99404761D01*
X155476190Y-99452380D01*
X155666666Y-99452380D01*
X155761904Y-99404761D01*
X155809523Y-99357142D01*
X155857142Y-99261904D01*
X155857142Y-99071428D01*
X155809523Y-98976190D01*
X155761904Y-98928571D01*
X155666666Y-98880952D01*
X156809523Y-99452380D02*
X156238095Y-99452380D01*
X156523809Y-99452380D02*
X156523809Y-98452380D01*
X156428571Y-98595238D01*
X156333333Y-98690476D01*
X156238095Y-98738095D01*
X157142857Y-98452380D02*
X157761904Y-98452380D01*
X157428571Y-98833333D01*
X157571428Y-98833333D01*
X157666666Y-98880952D01*
X157714285Y-98928571D01*
X157761904Y-99023809D01*
X157761904Y-99261904D01*
X157714285Y-99357142D01*
X157666666Y-99404761D01*
X157571428Y-99452380D01*
X157285714Y-99452380D01*
X157190476Y-99404761D01*
X157142857Y-99357142D01*
X153647619Y-95361904D02*
X153647619Y-94561904D01*
X153838095Y-94561904D01*
X153952380Y-94600000D01*
X154028571Y-94676190D01*
X154066666Y-94752380D01*
X154104761Y-94904761D01*
X154104761Y-95019047D01*
X154066666Y-95171428D01*
X154028571Y-95247619D01*
X153952380Y-95323809D01*
X153838095Y-95361904D01*
X153647619Y-95361904D01*
X154409523Y-94638095D02*
X154447619Y-94600000D01*
X154523809Y-94561904D01*
X154714285Y-94561904D01*
X154790476Y-94600000D01*
X154828571Y-94638095D01*
X154866666Y-94714285D01*
X154866666Y-94790476D01*
X154828571Y-94904761D01*
X154371428Y-95361904D01*
X154866666Y-95361904D01*
X155628571Y-95361904D02*
X155171428Y-95361904D01*
X155400000Y-95361904D02*
X155400000Y-94561904D01*
X155323809Y-94676190D01*
X155247619Y-94752380D01*
X155171428Y-94790476D01*
X155933333Y-94638095D02*
X155971428Y-94600000D01*
X156047619Y-94561904D01*
X156238095Y-94561904D01*
X156314285Y-94600000D01*
X156352380Y-94638095D01*
X156390476Y-94714285D01*
X156390476Y-94790476D01*
X156352380Y-94904761D01*
X155895238Y-95361904D01*
X156390476Y-95361904D01*
%TO.C,D213*%
X122190476Y-108452380D02*
X122428571Y-109452380D01*
X122619047Y-108738095D01*
X122809523Y-109452380D01*
X123047619Y-108452380D01*
X123380952Y-109404761D02*
X123523809Y-109452380D01*
X123761904Y-109452380D01*
X123857142Y-109404761D01*
X123904761Y-109357142D01*
X123952380Y-109261904D01*
X123952380Y-109166666D01*
X123904761Y-109071428D01*
X123857142Y-109023809D01*
X123761904Y-108976190D01*
X123571428Y-108928571D01*
X123476190Y-108880952D01*
X123428571Y-108833333D01*
X123380952Y-108738095D01*
X123380952Y-108642857D01*
X123428571Y-108547619D01*
X123476190Y-108500000D01*
X123571428Y-108452380D01*
X123809523Y-108452380D01*
X123952380Y-108500000D01*
X124333333Y-108547619D02*
X124380952Y-108500000D01*
X124476190Y-108452380D01*
X124714285Y-108452380D01*
X124809523Y-108500000D01*
X124857142Y-108547619D01*
X124904761Y-108642857D01*
X124904761Y-108738095D01*
X124857142Y-108880952D01*
X124285714Y-109452380D01*
X124904761Y-109452380D01*
X125476190Y-108880952D02*
X125380952Y-108833333D01*
X125333333Y-108785714D01*
X125285714Y-108690476D01*
X125285714Y-108642857D01*
X125333333Y-108547619D01*
X125380952Y-108500000D01*
X125476190Y-108452380D01*
X125666666Y-108452380D01*
X125761904Y-108500000D01*
X125809523Y-108547619D01*
X125857142Y-108642857D01*
X125857142Y-108690476D01*
X125809523Y-108785714D01*
X125761904Y-108833333D01*
X125666666Y-108880952D01*
X125476190Y-108880952D01*
X125380952Y-108928571D01*
X125333333Y-108976190D01*
X125285714Y-109071428D01*
X125285714Y-109261904D01*
X125333333Y-109357142D01*
X125380952Y-109404761D01*
X125476190Y-109452380D01*
X125666666Y-109452380D01*
X125761904Y-109404761D01*
X125809523Y-109357142D01*
X125857142Y-109261904D01*
X125857142Y-109071428D01*
X125809523Y-108976190D01*
X125761904Y-108928571D01*
X125666666Y-108880952D01*
X126809523Y-109452380D02*
X126238095Y-109452380D01*
X126523809Y-109452380D02*
X126523809Y-108452380D01*
X126428571Y-108595238D01*
X126333333Y-108690476D01*
X126238095Y-108738095D01*
X127142857Y-108452380D02*
X127761904Y-108452380D01*
X127428571Y-108833333D01*
X127571428Y-108833333D01*
X127666666Y-108880952D01*
X127714285Y-108928571D01*
X127761904Y-109023809D01*
X127761904Y-109261904D01*
X127714285Y-109357142D01*
X127666666Y-109404761D01*
X127571428Y-109452380D01*
X127285714Y-109452380D01*
X127190476Y-109404761D01*
X127142857Y-109357142D01*
X123647619Y-105361904D02*
X123647619Y-104561904D01*
X123838095Y-104561904D01*
X123952380Y-104600000D01*
X124028571Y-104676190D01*
X124066666Y-104752380D01*
X124104761Y-104904761D01*
X124104761Y-105019047D01*
X124066666Y-105171428D01*
X124028571Y-105247619D01*
X123952380Y-105323809D01*
X123838095Y-105361904D01*
X123647619Y-105361904D01*
X124409523Y-104638095D02*
X124447619Y-104600000D01*
X124523809Y-104561904D01*
X124714285Y-104561904D01*
X124790476Y-104600000D01*
X124828571Y-104638095D01*
X124866666Y-104714285D01*
X124866666Y-104790476D01*
X124828571Y-104904761D01*
X124371428Y-105361904D01*
X124866666Y-105361904D01*
X125628571Y-105361904D02*
X125171428Y-105361904D01*
X125400000Y-105361904D02*
X125400000Y-104561904D01*
X125323809Y-104676190D01*
X125247619Y-104752380D01*
X125171428Y-104790476D01*
X125895238Y-104561904D02*
X126390476Y-104561904D01*
X126123809Y-104866666D01*
X126238095Y-104866666D01*
X126314285Y-104904761D01*
X126352380Y-104942857D01*
X126390476Y-105019047D01*
X126390476Y-105209523D01*
X126352380Y-105285714D01*
X126314285Y-105323809D01*
X126238095Y-105361904D01*
X126009523Y-105361904D01*
X125933333Y-105323809D01*
X125895238Y-105285714D01*
%TO.C,D214*%
X132190476Y-108452380D02*
X132428571Y-109452380D01*
X132619047Y-108738095D01*
X132809523Y-109452380D01*
X133047619Y-108452380D01*
X133380952Y-109404761D02*
X133523809Y-109452380D01*
X133761904Y-109452380D01*
X133857142Y-109404761D01*
X133904761Y-109357142D01*
X133952380Y-109261904D01*
X133952380Y-109166666D01*
X133904761Y-109071428D01*
X133857142Y-109023809D01*
X133761904Y-108976190D01*
X133571428Y-108928571D01*
X133476190Y-108880952D01*
X133428571Y-108833333D01*
X133380952Y-108738095D01*
X133380952Y-108642857D01*
X133428571Y-108547619D01*
X133476190Y-108500000D01*
X133571428Y-108452380D01*
X133809523Y-108452380D01*
X133952380Y-108500000D01*
X134333333Y-108547619D02*
X134380952Y-108500000D01*
X134476190Y-108452380D01*
X134714285Y-108452380D01*
X134809523Y-108500000D01*
X134857142Y-108547619D01*
X134904761Y-108642857D01*
X134904761Y-108738095D01*
X134857142Y-108880952D01*
X134285714Y-109452380D01*
X134904761Y-109452380D01*
X135476190Y-108880952D02*
X135380952Y-108833333D01*
X135333333Y-108785714D01*
X135285714Y-108690476D01*
X135285714Y-108642857D01*
X135333333Y-108547619D01*
X135380952Y-108500000D01*
X135476190Y-108452380D01*
X135666666Y-108452380D01*
X135761904Y-108500000D01*
X135809523Y-108547619D01*
X135857142Y-108642857D01*
X135857142Y-108690476D01*
X135809523Y-108785714D01*
X135761904Y-108833333D01*
X135666666Y-108880952D01*
X135476190Y-108880952D01*
X135380952Y-108928571D01*
X135333333Y-108976190D01*
X135285714Y-109071428D01*
X135285714Y-109261904D01*
X135333333Y-109357142D01*
X135380952Y-109404761D01*
X135476190Y-109452380D01*
X135666666Y-109452380D01*
X135761904Y-109404761D01*
X135809523Y-109357142D01*
X135857142Y-109261904D01*
X135857142Y-109071428D01*
X135809523Y-108976190D01*
X135761904Y-108928571D01*
X135666666Y-108880952D01*
X136809523Y-109452380D02*
X136238095Y-109452380D01*
X136523809Y-109452380D02*
X136523809Y-108452380D01*
X136428571Y-108595238D01*
X136333333Y-108690476D01*
X136238095Y-108738095D01*
X137142857Y-108452380D02*
X137761904Y-108452380D01*
X137428571Y-108833333D01*
X137571428Y-108833333D01*
X137666666Y-108880952D01*
X137714285Y-108928571D01*
X137761904Y-109023809D01*
X137761904Y-109261904D01*
X137714285Y-109357142D01*
X137666666Y-109404761D01*
X137571428Y-109452380D01*
X137285714Y-109452380D01*
X137190476Y-109404761D01*
X137142857Y-109357142D01*
X133647619Y-105361904D02*
X133647619Y-104561904D01*
X133838095Y-104561904D01*
X133952380Y-104600000D01*
X134028571Y-104676190D01*
X134066666Y-104752380D01*
X134104761Y-104904761D01*
X134104761Y-105019047D01*
X134066666Y-105171428D01*
X134028571Y-105247619D01*
X133952380Y-105323809D01*
X133838095Y-105361904D01*
X133647619Y-105361904D01*
X134409523Y-104638095D02*
X134447619Y-104600000D01*
X134523809Y-104561904D01*
X134714285Y-104561904D01*
X134790476Y-104600000D01*
X134828571Y-104638095D01*
X134866666Y-104714285D01*
X134866666Y-104790476D01*
X134828571Y-104904761D01*
X134371428Y-105361904D01*
X134866666Y-105361904D01*
X135628571Y-105361904D02*
X135171428Y-105361904D01*
X135400000Y-105361904D02*
X135400000Y-104561904D01*
X135323809Y-104676190D01*
X135247619Y-104752380D01*
X135171428Y-104790476D01*
X136314285Y-104828571D02*
X136314285Y-105361904D01*
X136123809Y-104523809D02*
X135933333Y-105095238D01*
X136428571Y-105095238D01*
%TO.C,D215*%
X142190476Y-108452380D02*
X142428571Y-109452380D01*
X142619047Y-108738095D01*
X142809523Y-109452380D01*
X143047619Y-108452380D01*
X143380952Y-109404761D02*
X143523809Y-109452380D01*
X143761904Y-109452380D01*
X143857142Y-109404761D01*
X143904761Y-109357142D01*
X143952380Y-109261904D01*
X143952380Y-109166666D01*
X143904761Y-109071428D01*
X143857142Y-109023809D01*
X143761904Y-108976190D01*
X143571428Y-108928571D01*
X143476190Y-108880952D01*
X143428571Y-108833333D01*
X143380952Y-108738095D01*
X143380952Y-108642857D01*
X143428571Y-108547619D01*
X143476190Y-108500000D01*
X143571428Y-108452380D01*
X143809523Y-108452380D01*
X143952380Y-108500000D01*
X144333333Y-108547619D02*
X144380952Y-108500000D01*
X144476190Y-108452380D01*
X144714285Y-108452380D01*
X144809523Y-108500000D01*
X144857142Y-108547619D01*
X144904761Y-108642857D01*
X144904761Y-108738095D01*
X144857142Y-108880952D01*
X144285714Y-109452380D01*
X144904761Y-109452380D01*
X145476190Y-108880952D02*
X145380952Y-108833333D01*
X145333333Y-108785714D01*
X145285714Y-108690476D01*
X145285714Y-108642857D01*
X145333333Y-108547619D01*
X145380952Y-108500000D01*
X145476190Y-108452380D01*
X145666666Y-108452380D01*
X145761904Y-108500000D01*
X145809523Y-108547619D01*
X145857142Y-108642857D01*
X145857142Y-108690476D01*
X145809523Y-108785714D01*
X145761904Y-108833333D01*
X145666666Y-108880952D01*
X145476190Y-108880952D01*
X145380952Y-108928571D01*
X145333333Y-108976190D01*
X145285714Y-109071428D01*
X145285714Y-109261904D01*
X145333333Y-109357142D01*
X145380952Y-109404761D01*
X145476190Y-109452380D01*
X145666666Y-109452380D01*
X145761904Y-109404761D01*
X145809523Y-109357142D01*
X145857142Y-109261904D01*
X145857142Y-109071428D01*
X145809523Y-108976190D01*
X145761904Y-108928571D01*
X145666666Y-108880952D01*
X146809523Y-109452380D02*
X146238095Y-109452380D01*
X146523809Y-109452380D02*
X146523809Y-108452380D01*
X146428571Y-108595238D01*
X146333333Y-108690476D01*
X146238095Y-108738095D01*
X147142857Y-108452380D02*
X147761904Y-108452380D01*
X147428571Y-108833333D01*
X147571428Y-108833333D01*
X147666666Y-108880952D01*
X147714285Y-108928571D01*
X147761904Y-109023809D01*
X147761904Y-109261904D01*
X147714285Y-109357142D01*
X147666666Y-109404761D01*
X147571428Y-109452380D01*
X147285714Y-109452380D01*
X147190476Y-109404761D01*
X147142857Y-109357142D01*
X143647619Y-105361904D02*
X143647619Y-104561904D01*
X143838095Y-104561904D01*
X143952380Y-104600000D01*
X144028571Y-104676190D01*
X144066666Y-104752380D01*
X144104761Y-104904761D01*
X144104761Y-105019047D01*
X144066666Y-105171428D01*
X144028571Y-105247619D01*
X143952380Y-105323809D01*
X143838095Y-105361904D01*
X143647619Y-105361904D01*
X144409523Y-104638095D02*
X144447619Y-104600000D01*
X144523809Y-104561904D01*
X144714285Y-104561904D01*
X144790476Y-104600000D01*
X144828571Y-104638095D01*
X144866666Y-104714285D01*
X144866666Y-104790476D01*
X144828571Y-104904761D01*
X144371428Y-105361904D01*
X144866666Y-105361904D01*
X145628571Y-105361904D02*
X145171428Y-105361904D01*
X145400000Y-105361904D02*
X145400000Y-104561904D01*
X145323809Y-104676190D01*
X145247619Y-104752380D01*
X145171428Y-104790476D01*
X146352380Y-104561904D02*
X145971428Y-104561904D01*
X145933333Y-104942857D01*
X145971428Y-104904761D01*
X146047619Y-104866666D01*
X146238095Y-104866666D01*
X146314285Y-104904761D01*
X146352380Y-104942857D01*
X146390476Y-105019047D01*
X146390476Y-105209523D01*
X146352380Y-105285714D01*
X146314285Y-105323809D01*
X146238095Y-105361904D01*
X146047619Y-105361904D01*
X145971428Y-105323809D01*
X145933333Y-105285714D01*
%TO.C,D216*%
X152190476Y-108452380D02*
X152428571Y-109452380D01*
X152619047Y-108738095D01*
X152809523Y-109452380D01*
X153047619Y-108452380D01*
X153380952Y-109404761D02*
X153523809Y-109452380D01*
X153761904Y-109452380D01*
X153857142Y-109404761D01*
X153904761Y-109357142D01*
X153952380Y-109261904D01*
X153952380Y-109166666D01*
X153904761Y-109071428D01*
X153857142Y-109023809D01*
X153761904Y-108976190D01*
X153571428Y-108928571D01*
X153476190Y-108880952D01*
X153428571Y-108833333D01*
X153380952Y-108738095D01*
X153380952Y-108642857D01*
X153428571Y-108547619D01*
X153476190Y-108500000D01*
X153571428Y-108452380D01*
X153809523Y-108452380D01*
X153952380Y-108500000D01*
X154333333Y-108547619D02*
X154380952Y-108500000D01*
X154476190Y-108452380D01*
X154714285Y-108452380D01*
X154809523Y-108500000D01*
X154857142Y-108547619D01*
X154904761Y-108642857D01*
X154904761Y-108738095D01*
X154857142Y-108880952D01*
X154285714Y-109452380D01*
X154904761Y-109452380D01*
X155476190Y-108880952D02*
X155380952Y-108833333D01*
X155333333Y-108785714D01*
X155285714Y-108690476D01*
X155285714Y-108642857D01*
X155333333Y-108547619D01*
X155380952Y-108500000D01*
X155476190Y-108452380D01*
X155666666Y-108452380D01*
X155761904Y-108500000D01*
X155809523Y-108547619D01*
X155857142Y-108642857D01*
X155857142Y-108690476D01*
X155809523Y-108785714D01*
X155761904Y-108833333D01*
X155666666Y-108880952D01*
X155476190Y-108880952D01*
X155380952Y-108928571D01*
X155333333Y-108976190D01*
X155285714Y-109071428D01*
X155285714Y-109261904D01*
X155333333Y-109357142D01*
X155380952Y-109404761D01*
X155476190Y-109452380D01*
X155666666Y-109452380D01*
X155761904Y-109404761D01*
X155809523Y-109357142D01*
X155857142Y-109261904D01*
X155857142Y-109071428D01*
X155809523Y-108976190D01*
X155761904Y-108928571D01*
X155666666Y-108880952D01*
X156809523Y-109452380D02*
X156238095Y-109452380D01*
X156523809Y-109452380D02*
X156523809Y-108452380D01*
X156428571Y-108595238D01*
X156333333Y-108690476D01*
X156238095Y-108738095D01*
X157142857Y-108452380D02*
X157761904Y-108452380D01*
X157428571Y-108833333D01*
X157571428Y-108833333D01*
X157666666Y-108880952D01*
X157714285Y-108928571D01*
X157761904Y-109023809D01*
X157761904Y-109261904D01*
X157714285Y-109357142D01*
X157666666Y-109404761D01*
X157571428Y-109452380D01*
X157285714Y-109452380D01*
X157190476Y-109404761D01*
X157142857Y-109357142D01*
X153647619Y-105361904D02*
X153647619Y-104561904D01*
X153838095Y-104561904D01*
X153952380Y-104600000D01*
X154028571Y-104676190D01*
X154066666Y-104752380D01*
X154104761Y-104904761D01*
X154104761Y-105019047D01*
X154066666Y-105171428D01*
X154028571Y-105247619D01*
X153952380Y-105323809D01*
X153838095Y-105361904D01*
X153647619Y-105361904D01*
X154409523Y-104638095D02*
X154447619Y-104600000D01*
X154523809Y-104561904D01*
X154714285Y-104561904D01*
X154790476Y-104600000D01*
X154828571Y-104638095D01*
X154866666Y-104714285D01*
X154866666Y-104790476D01*
X154828571Y-104904761D01*
X154371428Y-105361904D01*
X154866666Y-105361904D01*
X155628571Y-105361904D02*
X155171428Y-105361904D01*
X155400000Y-105361904D02*
X155400000Y-104561904D01*
X155323809Y-104676190D01*
X155247619Y-104752380D01*
X155171428Y-104790476D01*
X156314285Y-104561904D02*
X156161904Y-104561904D01*
X156085714Y-104600000D01*
X156047619Y-104638095D01*
X155971428Y-104752380D01*
X155933333Y-104904761D01*
X155933333Y-105209523D01*
X155971428Y-105285714D01*
X156009523Y-105323809D01*
X156085714Y-105361904D01*
X156238095Y-105361904D01*
X156314285Y-105323809D01*
X156352380Y-105285714D01*
X156390476Y-105209523D01*
X156390476Y-105019047D01*
X156352380Y-104942857D01*
X156314285Y-104904761D01*
X156238095Y-104866666D01*
X156085714Y-104866666D01*
X156009523Y-104904761D01*
X155971428Y-104942857D01*
X155933333Y-105019047D01*
%TO.C,J101*%
X135991904Y-66318571D02*
X136325238Y-66318571D01*
X136468095Y-66842380D02*
X135991904Y-66842380D01*
X135991904Y-65842380D01*
X136468095Y-65842380D01*
X136849047Y-66794761D02*
X136991904Y-66842380D01*
X137230000Y-66842380D01*
X137325238Y-66794761D01*
X137372857Y-66747142D01*
X137420476Y-66651904D01*
X137420476Y-66556666D01*
X137372857Y-66461428D01*
X137325238Y-66413809D01*
X137230000Y-66366190D01*
X137039523Y-66318571D01*
X136944285Y-66270952D01*
X136896666Y-66223333D01*
X136849047Y-66128095D01*
X136849047Y-66032857D01*
X136896666Y-65937619D01*
X136944285Y-65890000D01*
X137039523Y-65842380D01*
X137277619Y-65842380D01*
X137420476Y-65890000D01*
X137849047Y-66842380D02*
X137849047Y-65842380D01*
X138230000Y-65842380D01*
X138325238Y-65890000D01*
X138372857Y-65937619D01*
X138420476Y-66032857D01*
X138420476Y-66175714D01*
X138372857Y-66270952D01*
X138325238Y-66318571D01*
X138230000Y-66366190D01*
X137849047Y-66366190D01*
X138849047Y-66461428D02*
X139610952Y-66461428D01*
X140277619Y-65842380D02*
X140372857Y-65842380D01*
X140468095Y-65890000D01*
X140515714Y-65937619D01*
X140563333Y-66032857D01*
X140610952Y-66223333D01*
X140610952Y-66461428D01*
X140563333Y-66651904D01*
X140515714Y-66747142D01*
X140468095Y-66794761D01*
X140372857Y-66842380D01*
X140277619Y-66842380D01*
X140182380Y-66794761D01*
X140134761Y-66747142D01*
X140087142Y-66651904D01*
X140039523Y-66461428D01*
X140039523Y-66223333D01*
X140087142Y-66032857D01*
X140134761Y-65937619D01*
X140182380Y-65890000D01*
X140277619Y-65842380D01*
X141563333Y-66842380D02*
X140991904Y-66842380D01*
X141277619Y-66842380D02*
X141277619Y-65842380D01*
X141182380Y-65985238D01*
X141087142Y-66080476D01*
X140991904Y-66128095D01*
X141944285Y-66794761D02*
X142087142Y-66842380D01*
X142325238Y-66842380D01*
X142420476Y-66794761D01*
X142468095Y-66747142D01*
X142515714Y-66651904D01*
X142515714Y-66556666D01*
X142468095Y-66461428D01*
X142420476Y-66413809D01*
X142325238Y-66366190D01*
X142134761Y-66318571D01*
X142039523Y-66270952D01*
X141991904Y-66223333D01*
X141944285Y-66128095D01*
X141944285Y-66032857D01*
X141991904Y-65937619D01*
X142039523Y-65890000D01*
X142134761Y-65842380D01*
X142372857Y-65842380D01*
X142515714Y-65890000D01*
X138682380Y-61095714D02*
X139396666Y-61095714D01*
X139539523Y-61143333D01*
X139634761Y-61238571D01*
X139682380Y-61381428D01*
X139682380Y-61476666D01*
X139682380Y-60095714D02*
X139682380Y-60667142D01*
X139682380Y-60381428D02*
X138682380Y-60381428D01*
X138825238Y-60476666D01*
X138920476Y-60571904D01*
X138968095Y-60667142D01*
X138682380Y-59476666D02*
X138682380Y-59381428D01*
X138730000Y-59286190D01*
X138777619Y-59238571D01*
X138872857Y-59190952D01*
X139063333Y-59143333D01*
X139301428Y-59143333D01*
X139491904Y-59190952D01*
X139587142Y-59238571D01*
X139634761Y-59286190D01*
X139682380Y-59381428D01*
X139682380Y-59476666D01*
X139634761Y-59571904D01*
X139587142Y-59619523D01*
X139491904Y-59667142D01*
X139301428Y-59714761D01*
X139063333Y-59714761D01*
X138872857Y-59667142D01*
X138777619Y-59619523D01*
X138730000Y-59571904D01*
X138682380Y-59476666D01*
X139682380Y-58190952D02*
X139682380Y-58762380D01*
X139682380Y-58476666D02*
X138682380Y-58476666D01*
X138825238Y-58571904D01*
X138920476Y-58667142D01*
X138968095Y-58762380D01*
%TO.C,J102*%
X125714285Y-66592380D02*
X125714285Y-65592380D01*
X126095238Y-65592380D01*
X126190476Y-65640000D01*
X126238095Y-65687619D01*
X126285714Y-65782857D01*
X126285714Y-65925714D01*
X126238095Y-66020952D01*
X126190476Y-66068571D01*
X126095238Y-66116190D01*
X125714285Y-66116190D01*
X127285714Y-66592380D02*
X126952380Y-66116190D01*
X126714285Y-66592380D02*
X126714285Y-65592380D01*
X127095238Y-65592380D01*
X127190476Y-65640000D01*
X127238095Y-65687619D01*
X127285714Y-65782857D01*
X127285714Y-65925714D01*
X127238095Y-66020952D01*
X127190476Y-66068571D01*
X127095238Y-66116190D01*
X126714285Y-66116190D01*
X127904761Y-65592380D02*
X128095238Y-65592380D01*
X128190476Y-65640000D01*
X128285714Y-65735238D01*
X128333333Y-65925714D01*
X128333333Y-66259047D01*
X128285714Y-66449523D01*
X128190476Y-66544761D01*
X128095238Y-66592380D01*
X127904761Y-66592380D01*
X127809523Y-66544761D01*
X127714285Y-66449523D01*
X127666666Y-66259047D01*
X127666666Y-65925714D01*
X127714285Y-65735238D01*
X127809523Y-65640000D01*
X127904761Y-65592380D01*
X129285714Y-65640000D02*
X129190476Y-65592380D01*
X129047619Y-65592380D01*
X128904761Y-65640000D01*
X128809523Y-65735238D01*
X128761904Y-65830476D01*
X128714285Y-66020952D01*
X128714285Y-66163809D01*
X128761904Y-66354285D01*
X128809523Y-66449523D01*
X128904761Y-66544761D01*
X129047619Y-66592380D01*
X129142857Y-66592380D01*
X129285714Y-66544761D01*
X129333333Y-66497142D01*
X129333333Y-66163809D01*
X129142857Y-66163809D01*
X126952380Y-61285714D02*
X127666666Y-61285714D01*
X127809523Y-61333333D01*
X127904761Y-61428571D01*
X127952380Y-61571428D01*
X127952380Y-61666666D01*
X127952380Y-60285714D02*
X127952380Y-60857142D01*
X127952380Y-60571428D02*
X126952380Y-60571428D01*
X127095238Y-60666666D01*
X127190476Y-60761904D01*
X127238095Y-60857142D01*
X126952380Y-59666666D02*
X126952380Y-59571428D01*
X127000000Y-59476190D01*
X127047619Y-59428571D01*
X127142857Y-59380952D01*
X127333333Y-59333333D01*
X127571428Y-59333333D01*
X127761904Y-59380952D01*
X127857142Y-59428571D01*
X127904761Y-59476190D01*
X127952380Y-59571428D01*
X127952380Y-59666666D01*
X127904761Y-59761904D01*
X127857142Y-59809523D01*
X127761904Y-59857142D01*
X127571428Y-59904761D01*
X127333333Y-59904761D01*
X127142857Y-59857142D01*
X127047619Y-59809523D01*
X127000000Y-59761904D01*
X126952380Y-59666666D01*
X127047619Y-58952380D02*
X127000000Y-58904761D01*
X126952380Y-58809523D01*
X126952380Y-58571428D01*
X127000000Y-58476190D01*
X127047619Y-58428571D01*
X127142857Y-58380952D01*
X127238095Y-58380952D01*
X127380952Y-58428571D01*
X127952380Y-59000000D01*
X127952380Y-58380952D01*
%TO.C,J103*%
X103095238Y-62814761D02*
X103190476Y-62862380D01*
X103380952Y-62862380D01*
X103476190Y-62814761D01*
X103523809Y-62719523D01*
X103523809Y-62671904D01*
X103476190Y-62576666D01*
X103380952Y-62529047D01*
X103238095Y-62529047D01*
X103142857Y-62481428D01*
X103095238Y-62386190D01*
X103095238Y-62338571D01*
X103142857Y-62243333D01*
X103238095Y-62195714D01*
X103380952Y-62195714D01*
X103476190Y-62243333D01*
X104333333Y-62814761D02*
X104238095Y-62862380D01*
X104047619Y-62862380D01*
X103952380Y-62814761D01*
X103904761Y-62719523D01*
X103904761Y-62338571D01*
X103952380Y-62243333D01*
X104047619Y-62195714D01*
X104238095Y-62195714D01*
X104333333Y-62243333D01*
X104380952Y-62338571D01*
X104380952Y-62433809D01*
X103904761Y-62529047D01*
X104809523Y-62862380D02*
X104809523Y-62195714D01*
X104809523Y-62386190D02*
X104857142Y-62290952D01*
X104904761Y-62243333D01*
X105000000Y-62195714D01*
X105095238Y-62195714D01*
X105428571Y-62862380D02*
X105428571Y-62195714D01*
X105428571Y-61862380D02*
X105380952Y-61910000D01*
X105428571Y-61957619D01*
X105476190Y-61910000D01*
X105428571Y-61862380D01*
X105428571Y-61957619D01*
X106333333Y-62862380D02*
X106333333Y-62338571D01*
X106285714Y-62243333D01*
X106190476Y-62195714D01*
X106000000Y-62195714D01*
X105904761Y-62243333D01*
X106333333Y-62814761D02*
X106238095Y-62862380D01*
X106000000Y-62862380D01*
X105904761Y-62814761D01*
X105857142Y-62719523D01*
X105857142Y-62624285D01*
X105904761Y-62529047D01*
X106000000Y-62481428D01*
X106238095Y-62481428D01*
X106333333Y-62433809D01*
X106952380Y-62862380D02*
X106857142Y-62814761D01*
X106809523Y-62719523D01*
X106809523Y-61862380D01*
X104452380Y-58825714D02*
X105166666Y-58825714D01*
X105309523Y-58873333D01*
X105404761Y-58968571D01*
X105452380Y-59111428D01*
X105452380Y-59206666D01*
X105452380Y-57825714D02*
X105452380Y-58397142D01*
X105452380Y-58111428D02*
X104452380Y-58111428D01*
X104595238Y-58206666D01*
X104690476Y-58301904D01*
X104738095Y-58397142D01*
X104452380Y-57206666D02*
X104452380Y-57111428D01*
X104500000Y-57016190D01*
X104547619Y-56968571D01*
X104642857Y-56920952D01*
X104833333Y-56873333D01*
X105071428Y-56873333D01*
X105261904Y-56920952D01*
X105357142Y-56968571D01*
X105404761Y-57016190D01*
X105452380Y-57111428D01*
X105452380Y-57206666D01*
X105404761Y-57301904D01*
X105357142Y-57349523D01*
X105261904Y-57397142D01*
X105071428Y-57444761D01*
X104833333Y-57444761D01*
X104642857Y-57397142D01*
X104547619Y-57349523D01*
X104500000Y-57301904D01*
X104452380Y-57206666D01*
X104452380Y-56540000D02*
X104452380Y-55920952D01*
X104833333Y-56254285D01*
X104833333Y-56111428D01*
X104880952Y-56016190D01*
X104928571Y-55968571D01*
X105023809Y-55920952D01*
X105261904Y-55920952D01*
X105357142Y-55968571D01*
X105404761Y-56016190D01*
X105452380Y-56111428D01*
X105452380Y-56397142D01*
X105404761Y-56492380D01*
X105357142Y-56540000D01*
%TO.C,J104*%
X101332380Y-90983333D02*
X100332380Y-90983333D01*
X100332380Y-90602380D01*
X100380000Y-90507142D01*
X100427619Y-90459523D01*
X100522857Y-90411904D01*
X100665714Y-90411904D01*
X100760952Y-90459523D01*
X100808571Y-90507142D01*
X100856190Y-90602380D01*
X100856190Y-90983333D01*
X100332380Y-90078571D02*
X101332380Y-89840476D01*
X100618095Y-89650000D01*
X101332380Y-89459523D01*
X100332380Y-89221428D01*
X101332380Y-88269047D02*
X100856190Y-88602380D01*
X101332380Y-88840476D02*
X100332380Y-88840476D01*
X100332380Y-88459523D01*
X100380000Y-88364285D01*
X100427619Y-88316666D01*
X100522857Y-88269047D01*
X100665714Y-88269047D01*
X100760952Y-88316666D01*
X100808571Y-88364285D01*
X100856190Y-88459523D01*
X100856190Y-88840476D01*
X109452380Y-90935714D02*
X110166666Y-90935714D01*
X110309523Y-90983333D01*
X110404761Y-91078571D01*
X110452380Y-91221428D01*
X110452380Y-91316666D01*
X110452380Y-89935714D02*
X110452380Y-90507142D01*
X110452380Y-90221428D02*
X109452380Y-90221428D01*
X109595238Y-90316666D01*
X109690476Y-90411904D01*
X109738095Y-90507142D01*
X109452380Y-89316666D02*
X109452380Y-89221428D01*
X109500000Y-89126190D01*
X109547619Y-89078571D01*
X109642857Y-89030952D01*
X109833333Y-88983333D01*
X110071428Y-88983333D01*
X110261904Y-89030952D01*
X110357142Y-89078571D01*
X110404761Y-89126190D01*
X110452380Y-89221428D01*
X110452380Y-89316666D01*
X110404761Y-89411904D01*
X110357142Y-89459523D01*
X110261904Y-89507142D01*
X110071428Y-89554761D01*
X109833333Y-89554761D01*
X109642857Y-89507142D01*
X109547619Y-89459523D01*
X109500000Y-89411904D01*
X109452380Y-89316666D01*
X109785714Y-88126190D02*
X110452380Y-88126190D01*
X109404761Y-88364285D02*
X110119047Y-88602380D01*
X110119047Y-87983333D01*
%TO.C,R201*%
X122122380Y-74666666D02*
X122122380Y-75238095D01*
X122122380Y-74952380D02*
X121122380Y-74952380D01*
X121265238Y-75047619D01*
X121360476Y-75142857D01*
X121408095Y-75238095D01*
X121122380Y-73761904D02*
X121122380Y-74238095D01*
X121598571Y-74285714D01*
X121550952Y-74238095D01*
X121503333Y-74142857D01*
X121503333Y-73904761D01*
X121550952Y-73809523D01*
X121598571Y-73761904D01*
X121693809Y-73714285D01*
X121931904Y-73714285D01*
X122027142Y-73761904D01*
X122074761Y-73809523D01*
X122122380Y-73904761D01*
X122122380Y-74142857D01*
X122074761Y-74238095D01*
X122027142Y-74285714D01*
X121122380Y-73095238D02*
X121122380Y-73000000D01*
X121170000Y-72904761D01*
X121217619Y-72857142D01*
X121312857Y-72809523D01*
X121503333Y-72761904D01*
X121741428Y-72761904D01*
X121931904Y-72809523D01*
X122027142Y-72857142D01*
X122074761Y-72904761D01*
X122122380Y-73000000D01*
X122122380Y-73095238D01*
X122074761Y-73190476D01*
X122027142Y-73238095D01*
X121931904Y-73285714D01*
X121741428Y-73333333D01*
X121503333Y-73333333D01*
X121312857Y-73285714D01*
X121217619Y-73238095D01*
X121170000Y-73190476D01*
X121122380Y-73095238D01*
D13*
X120617619Y-74290952D02*
X120493809Y-74377619D01*
X120617619Y-74439523D02*
X120357619Y-74439523D01*
X120357619Y-74340476D01*
X120370000Y-74315714D01*
X120382380Y-74303333D01*
X120407142Y-74290952D01*
X120444285Y-74290952D01*
X120469047Y-74303333D01*
X120481428Y-74315714D01*
X120493809Y-74340476D01*
X120493809Y-74439523D01*
X120382380Y-74191904D02*
X120370000Y-74179523D01*
X120357619Y-74154761D01*
X120357619Y-74092857D01*
X120370000Y-74068095D01*
X120382380Y-74055714D01*
X120407142Y-74043333D01*
X120431904Y-74043333D01*
X120469047Y-74055714D01*
X120617619Y-74204285D01*
X120617619Y-74043333D01*
X120357619Y-73882380D02*
X120357619Y-73857619D01*
X120370000Y-73832857D01*
X120382380Y-73820476D01*
X120407142Y-73808095D01*
X120456666Y-73795714D01*
X120518571Y-73795714D01*
X120568095Y-73808095D01*
X120592857Y-73820476D01*
X120605238Y-73832857D01*
X120617619Y-73857619D01*
X120617619Y-73882380D01*
X120605238Y-73907142D01*
X120592857Y-73919523D01*
X120568095Y-73931904D01*
X120518571Y-73944285D01*
X120456666Y-73944285D01*
X120407142Y-73931904D01*
X120382380Y-73919523D01*
X120370000Y-73907142D01*
X120357619Y-73882380D01*
X120617619Y-73548095D02*
X120617619Y-73696666D01*
X120617619Y-73622380D02*
X120357619Y-73622380D01*
X120394761Y-73647142D01*
X120419523Y-73671904D01*
X120431904Y-73696666D01*
%TO.C,R202*%
D11*
X132122380Y-74666666D02*
X132122380Y-75238095D01*
X132122380Y-74952380D02*
X131122380Y-74952380D01*
X131265238Y-75047619D01*
X131360476Y-75142857D01*
X131408095Y-75238095D01*
X131122380Y-73761904D02*
X131122380Y-74238095D01*
X131598571Y-74285714D01*
X131550952Y-74238095D01*
X131503333Y-74142857D01*
X131503333Y-73904761D01*
X131550952Y-73809523D01*
X131598571Y-73761904D01*
X131693809Y-73714285D01*
X131931904Y-73714285D01*
X132027142Y-73761904D01*
X132074761Y-73809523D01*
X132122380Y-73904761D01*
X132122380Y-74142857D01*
X132074761Y-74238095D01*
X132027142Y-74285714D01*
X131122380Y-73095238D02*
X131122380Y-73000000D01*
X131170000Y-72904761D01*
X131217619Y-72857142D01*
X131312857Y-72809523D01*
X131503333Y-72761904D01*
X131741428Y-72761904D01*
X131931904Y-72809523D01*
X132027142Y-72857142D01*
X132074761Y-72904761D01*
X132122380Y-73000000D01*
X132122380Y-73095238D01*
X132074761Y-73190476D01*
X132027142Y-73238095D01*
X131931904Y-73285714D01*
X131741428Y-73333333D01*
X131503333Y-73333333D01*
X131312857Y-73285714D01*
X131217619Y-73238095D01*
X131170000Y-73190476D01*
X131122380Y-73095238D01*
D13*
X130617619Y-74290952D02*
X130493809Y-74377619D01*
X130617619Y-74439523D02*
X130357619Y-74439523D01*
X130357619Y-74340476D01*
X130370000Y-74315714D01*
X130382380Y-74303333D01*
X130407142Y-74290952D01*
X130444285Y-74290952D01*
X130469047Y-74303333D01*
X130481428Y-74315714D01*
X130493809Y-74340476D01*
X130493809Y-74439523D01*
X130382380Y-74191904D02*
X130370000Y-74179523D01*
X130357619Y-74154761D01*
X130357619Y-74092857D01*
X130370000Y-74068095D01*
X130382380Y-74055714D01*
X130407142Y-74043333D01*
X130431904Y-74043333D01*
X130469047Y-74055714D01*
X130617619Y-74204285D01*
X130617619Y-74043333D01*
X130357619Y-73882380D02*
X130357619Y-73857619D01*
X130370000Y-73832857D01*
X130382380Y-73820476D01*
X130407142Y-73808095D01*
X130456666Y-73795714D01*
X130518571Y-73795714D01*
X130568095Y-73808095D01*
X130592857Y-73820476D01*
X130605238Y-73832857D01*
X130617619Y-73857619D01*
X130617619Y-73882380D01*
X130605238Y-73907142D01*
X130592857Y-73919523D01*
X130568095Y-73931904D01*
X130518571Y-73944285D01*
X130456666Y-73944285D01*
X130407142Y-73931904D01*
X130382380Y-73919523D01*
X130370000Y-73907142D01*
X130357619Y-73882380D01*
X130382380Y-73696666D02*
X130370000Y-73684285D01*
X130357619Y-73659523D01*
X130357619Y-73597619D01*
X130370000Y-73572857D01*
X130382380Y-73560476D01*
X130407142Y-73548095D01*
X130431904Y-73548095D01*
X130469047Y-73560476D01*
X130617619Y-73709047D01*
X130617619Y-73548095D01*
%TO.C,R203*%
D11*
X142122380Y-74666666D02*
X142122380Y-75238095D01*
X142122380Y-74952380D02*
X141122380Y-74952380D01*
X141265238Y-75047619D01*
X141360476Y-75142857D01*
X141408095Y-75238095D01*
X141122380Y-73761904D02*
X141122380Y-74238095D01*
X141598571Y-74285714D01*
X141550952Y-74238095D01*
X141503333Y-74142857D01*
X141503333Y-73904761D01*
X141550952Y-73809523D01*
X141598571Y-73761904D01*
X141693809Y-73714285D01*
X141931904Y-73714285D01*
X142027142Y-73761904D01*
X142074761Y-73809523D01*
X142122380Y-73904761D01*
X142122380Y-74142857D01*
X142074761Y-74238095D01*
X142027142Y-74285714D01*
X141122380Y-73095238D02*
X141122380Y-73000000D01*
X141170000Y-72904761D01*
X141217619Y-72857142D01*
X141312857Y-72809523D01*
X141503333Y-72761904D01*
X141741428Y-72761904D01*
X141931904Y-72809523D01*
X142027142Y-72857142D01*
X142074761Y-72904761D01*
X142122380Y-73000000D01*
X142122380Y-73095238D01*
X142074761Y-73190476D01*
X142027142Y-73238095D01*
X141931904Y-73285714D01*
X141741428Y-73333333D01*
X141503333Y-73333333D01*
X141312857Y-73285714D01*
X141217619Y-73238095D01*
X141170000Y-73190476D01*
X141122380Y-73095238D01*
D13*
X140617619Y-74290952D02*
X140493809Y-74377619D01*
X140617619Y-74439523D02*
X140357619Y-74439523D01*
X140357619Y-74340476D01*
X140370000Y-74315714D01*
X140382380Y-74303333D01*
X140407142Y-74290952D01*
X140444285Y-74290952D01*
X140469047Y-74303333D01*
X140481428Y-74315714D01*
X140493809Y-74340476D01*
X140493809Y-74439523D01*
X140382380Y-74191904D02*
X140370000Y-74179523D01*
X140357619Y-74154761D01*
X140357619Y-74092857D01*
X140370000Y-74068095D01*
X140382380Y-74055714D01*
X140407142Y-74043333D01*
X140431904Y-74043333D01*
X140469047Y-74055714D01*
X140617619Y-74204285D01*
X140617619Y-74043333D01*
X140357619Y-73882380D02*
X140357619Y-73857619D01*
X140370000Y-73832857D01*
X140382380Y-73820476D01*
X140407142Y-73808095D01*
X140456666Y-73795714D01*
X140518571Y-73795714D01*
X140568095Y-73808095D01*
X140592857Y-73820476D01*
X140605238Y-73832857D01*
X140617619Y-73857619D01*
X140617619Y-73882380D01*
X140605238Y-73907142D01*
X140592857Y-73919523D01*
X140568095Y-73931904D01*
X140518571Y-73944285D01*
X140456666Y-73944285D01*
X140407142Y-73931904D01*
X140382380Y-73919523D01*
X140370000Y-73907142D01*
X140357619Y-73882380D01*
X140357619Y-73709047D02*
X140357619Y-73548095D01*
X140456666Y-73634761D01*
X140456666Y-73597619D01*
X140469047Y-73572857D01*
X140481428Y-73560476D01*
X140506190Y-73548095D01*
X140568095Y-73548095D01*
X140592857Y-73560476D01*
X140605238Y-73572857D01*
X140617619Y-73597619D01*
X140617619Y-73671904D01*
X140605238Y-73696666D01*
X140592857Y-73709047D01*
%TO.C,R204*%
D11*
X152122380Y-74666666D02*
X152122380Y-75238095D01*
X152122380Y-74952380D02*
X151122380Y-74952380D01*
X151265238Y-75047619D01*
X151360476Y-75142857D01*
X151408095Y-75238095D01*
X151122380Y-73761904D02*
X151122380Y-74238095D01*
X151598571Y-74285714D01*
X151550952Y-74238095D01*
X151503333Y-74142857D01*
X151503333Y-73904761D01*
X151550952Y-73809523D01*
X151598571Y-73761904D01*
X151693809Y-73714285D01*
X151931904Y-73714285D01*
X152027142Y-73761904D01*
X152074761Y-73809523D01*
X152122380Y-73904761D01*
X152122380Y-74142857D01*
X152074761Y-74238095D01*
X152027142Y-74285714D01*
X151122380Y-73095238D02*
X151122380Y-73000000D01*
X151170000Y-72904761D01*
X151217619Y-72857142D01*
X151312857Y-72809523D01*
X151503333Y-72761904D01*
X151741428Y-72761904D01*
X151931904Y-72809523D01*
X152027142Y-72857142D01*
X152074761Y-72904761D01*
X152122380Y-73000000D01*
X152122380Y-73095238D01*
X152074761Y-73190476D01*
X152027142Y-73238095D01*
X151931904Y-73285714D01*
X151741428Y-73333333D01*
X151503333Y-73333333D01*
X151312857Y-73285714D01*
X151217619Y-73238095D01*
X151170000Y-73190476D01*
X151122380Y-73095238D01*
D13*
X150617619Y-74290952D02*
X150493809Y-74377619D01*
X150617619Y-74439523D02*
X150357619Y-74439523D01*
X150357619Y-74340476D01*
X150370000Y-74315714D01*
X150382380Y-74303333D01*
X150407142Y-74290952D01*
X150444285Y-74290952D01*
X150469047Y-74303333D01*
X150481428Y-74315714D01*
X150493809Y-74340476D01*
X150493809Y-74439523D01*
X150382380Y-74191904D02*
X150370000Y-74179523D01*
X150357619Y-74154761D01*
X150357619Y-74092857D01*
X150370000Y-74068095D01*
X150382380Y-74055714D01*
X150407142Y-74043333D01*
X150431904Y-74043333D01*
X150469047Y-74055714D01*
X150617619Y-74204285D01*
X150617619Y-74043333D01*
X150357619Y-73882380D02*
X150357619Y-73857619D01*
X150370000Y-73832857D01*
X150382380Y-73820476D01*
X150407142Y-73808095D01*
X150456666Y-73795714D01*
X150518571Y-73795714D01*
X150568095Y-73808095D01*
X150592857Y-73820476D01*
X150605238Y-73832857D01*
X150617619Y-73857619D01*
X150617619Y-73882380D01*
X150605238Y-73907142D01*
X150592857Y-73919523D01*
X150568095Y-73931904D01*
X150518571Y-73944285D01*
X150456666Y-73944285D01*
X150407142Y-73931904D01*
X150382380Y-73919523D01*
X150370000Y-73907142D01*
X150357619Y-73882380D01*
X150444285Y-73572857D02*
X150617619Y-73572857D01*
X150345238Y-73634761D02*
X150530952Y-73696666D01*
X150530952Y-73535714D01*
%TO.C,R205*%
D11*
X122122380Y-84666666D02*
X122122380Y-85238095D01*
X122122380Y-84952380D02*
X121122380Y-84952380D01*
X121265238Y-85047619D01*
X121360476Y-85142857D01*
X121408095Y-85238095D01*
X121122380Y-83761904D02*
X121122380Y-84238095D01*
X121598571Y-84285714D01*
X121550952Y-84238095D01*
X121503333Y-84142857D01*
X121503333Y-83904761D01*
X121550952Y-83809523D01*
X121598571Y-83761904D01*
X121693809Y-83714285D01*
X121931904Y-83714285D01*
X122027142Y-83761904D01*
X122074761Y-83809523D01*
X122122380Y-83904761D01*
X122122380Y-84142857D01*
X122074761Y-84238095D01*
X122027142Y-84285714D01*
X121122380Y-83095238D02*
X121122380Y-83000000D01*
X121170000Y-82904761D01*
X121217619Y-82857142D01*
X121312857Y-82809523D01*
X121503333Y-82761904D01*
X121741428Y-82761904D01*
X121931904Y-82809523D01*
X122027142Y-82857142D01*
X122074761Y-82904761D01*
X122122380Y-83000000D01*
X122122380Y-83095238D01*
X122074761Y-83190476D01*
X122027142Y-83238095D01*
X121931904Y-83285714D01*
X121741428Y-83333333D01*
X121503333Y-83333333D01*
X121312857Y-83285714D01*
X121217619Y-83238095D01*
X121170000Y-83190476D01*
X121122380Y-83095238D01*
D13*
X120617619Y-84290952D02*
X120493809Y-84377619D01*
X120617619Y-84439523D02*
X120357619Y-84439523D01*
X120357619Y-84340476D01*
X120370000Y-84315714D01*
X120382380Y-84303333D01*
X120407142Y-84290952D01*
X120444285Y-84290952D01*
X120469047Y-84303333D01*
X120481428Y-84315714D01*
X120493809Y-84340476D01*
X120493809Y-84439523D01*
X120382380Y-84191904D02*
X120370000Y-84179523D01*
X120357619Y-84154761D01*
X120357619Y-84092857D01*
X120370000Y-84068095D01*
X120382380Y-84055714D01*
X120407142Y-84043333D01*
X120431904Y-84043333D01*
X120469047Y-84055714D01*
X120617619Y-84204285D01*
X120617619Y-84043333D01*
X120357619Y-83882380D02*
X120357619Y-83857619D01*
X120370000Y-83832857D01*
X120382380Y-83820476D01*
X120407142Y-83808095D01*
X120456666Y-83795714D01*
X120518571Y-83795714D01*
X120568095Y-83808095D01*
X120592857Y-83820476D01*
X120605238Y-83832857D01*
X120617619Y-83857619D01*
X120617619Y-83882380D01*
X120605238Y-83907142D01*
X120592857Y-83919523D01*
X120568095Y-83931904D01*
X120518571Y-83944285D01*
X120456666Y-83944285D01*
X120407142Y-83931904D01*
X120382380Y-83919523D01*
X120370000Y-83907142D01*
X120357619Y-83882380D01*
X120357619Y-83560476D02*
X120357619Y-83684285D01*
X120481428Y-83696666D01*
X120469047Y-83684285D01*
X120456666Y-83659523D01*
X120456666Y-83597619D01*
X120469047Y-83572857D01*
X120481428Y-83560476D01*
X120506190Y-83548095D01*
X120568095Y-83548095D01*
X120592857Y-83560476D01*
X120605238Y-83572857D01*
X120617619Y-83597619D01*
X120617619Y-83659523D01*
X120605238Y-83684285D01*
X120592857Y-83696666D01*
%TO.C,R206*%
D11*
X132122380Y-84666666D02*
X132122380Y-85238095D01*
X132122380Y-84952380D02*
X131122380Y-84952380D01*
X131265238Y-85047619D01*
X131360476Y-85142857D01*
X131408095Y-85238095D01*
X131122380Y-83761904D02*
X131122380Y-84238095D01*
X131598571Y-84285714D01*
X131550952Y-84238095D01*
X131503333Y-84142857D01*
X131503333Y-83904761D01*
X131550952Y-83809523D01*
X131598571Y-83761904D01*
X131693809Y-83714285D01*
X131931904Y-83714285D01*
X132027142Y-83761904D01*
X132074761Y-83809523D01*
X132122380Y-83904761D01*
X132122380Y-84142857D01*
X132074761Y-84238095D01*
X132027142Y-84285714D01*
X131122380Y-83095238D02*
X131122380Y-83000000D01*
X131170000Y-82904761D01*
X131217619Y-82857142D01*
X131312857Y-82809523D01*
X131503333Y-82761904D01*
X131741428Y-82761904D01*
X131931904Y-82809523D01*
X132027142Y-82857142D01*
X132074761Y-82904761D01*
X132122380Y-83000000D01*
X132122380Y-83095238D01*
X132074761Y-83190476D01*
X132027142Y-83238095D01*
X131931904Y-83285714D01*
X131741428Y-83333333D01*
X131503333Y-83333333D01*
X131312857Y-83285714D01*
X131217619Y-83238095D01*
X131170000Y-83190476D01*
X131122380Y-83095238D01*
D13*
X130617619Y-84290952D02*
X130493809Y-84377619D01*
X130617619Y-84439523D02*
X130357619Y-84439523D01*
X130357619Y-84340476D01*
X130370000Y-84315714D01*
X130382380Y-84303333D01*
X130407142Y-84290952D01*
X130444285Y-84290952D01*
X130469047Y-84303333D01*
X130481428Y-84315714D01*
X130493809Y-84340476D01*
X130493809Y-84439523D01*
X130382380Y-84191904D02*
X130370000Y-84179523D01*
X130357619Y-84154761D01*
X130357619Y-84092857D01*
X130370000Y-84068095D01*
X130382380Y-84055714D01*
X130407142Y-84043333D01*
X130431904Y-84043333D01*
X130469047Y-84055714D01*
X130617619Y-84204285D01*
X130617619Y-84043333D01*
X130357619Y-83882380D02*
X130357619Y-83857619D01*
X130370000Y-83832857D01*
X130382380Y-83820476D01*
X130407142Y-83808095D01*
X130456666Y-83795714D01*
X130518571Y-83795714D01*
X130568095Y-83808095D01*
X130592857Y-83820476D01*
X130605238Y-83832857D01*
X130617619Y-83857619D01*
X130617619Y-83882380D01*
X130605238Y-83907142D01*
X130592857Y-83919523D01*
X130568095Y-83931904D01*
X130518571Y-83944285D01*
X130456666Y-83944285D01*
X130407142Y-83931904D01*
X130382380Y-83919523D01*
X130370000Y-83907142D01*
X130357619Y-83882380D01*
X130357619Y-83572857D02*
X130357619Y-83622380D01*
X130370000Y-83647142D01*
X130382380Y-83659523D01*
X130419523Y-83684285D01*
X130469047Y-83696666D01*
X130568095Y-83696666D01*
X130592857Y-83684285D01*
X130605238Y-83671904D01*
X130617619Y-83647142D01*
X130617619Y-83597619D01*
X130605238Y-83572857D01*
X130592857Y-83560476D01*
X130568095Y-83548095D01*
X130506190Y-83548095D01*
X130481428Y-83560476D01*
X130469047Y-83572857D01*
X130456666Y-83597619D01*
X130456666Y-83647142D01*
X130469047Y-83671904D01*
X130481428Y-83684285D01*
X130506190Y-83696666D01*
%TO.C,R207*%
D11*
X142122380Y-84666666D02*
X142122380Y-85238095D01*
X142122380Y-84952380D02*
X141122380Y-84952380D01*
X141265238Y-85047619D01*
X141360476Y-85142857D01*
X141408095Y-85238095D01*
X141122380Y-83761904D02*
X141122380Y-84238095D01*
X141598571Y-84285714D01*
X141550952Y-84238095D01*
X141503333Y-84142857D01*
X141503333Y-83904761D01*
X141550952Y-83809523D01*
X141598571Y-83761904D01*
X141693809Y-83714285D01*
X141931904Y-83714285D01*
X142027142Y-83761904D01*
X142074761Y-83809523D01*
X142122380Y-83904761D01*
X142122380Y-84142857D01*
X142074761Y-84238095D01*
X142027142Y-84285714D01*
X141122380Y-83095238D02*
X141122380Y-83000000D01*
X141170000Y-82904761D01*
X141217619Y-82857142D01*
X141312857Y-82809523D01*
X141503333Y-82761904D01*
X141741428Y-82761904D01*
X141931904Y-82809523D01*
X142027142Y-82857142D01*
X142074761Y-82904761D01*
X142122380Y-83000000D01*
X142122380Y-83095238D01*
X142074761Y-83190476D01*
X142027142Y-83238095D01*
X141931904Y-83285714D01*
X141741428Y-83333333D01*
X141503333Y-83333333D01*
X141312857Y-83285714D01*
X141217619Y-83238095D01*
X141170000Y-83190476D01*
X141122380Y-83095238D01*
D13*
X140617619Y-84290952D02*
X140493809Y-84377619D01*
X140617619Y-84439523D02*
X140357619Y-84439523D01*
X140357619Y-84340476D01*
X140370000Y-84315714D01*
X140382380Y-84303333D01*
X140407142Y-84290952D01*
X140444285Y-84290952D01*
X140469047Y-84303333D01*
X140481428Y-84315714D01*
X140493809Y-84340476D01*
X140493809Y-84439523D01*
X140382380Y-84191904D02*
X140370000Y-84179523D01*
X140357619Y-84154761D01*
X140357619Y-84092857D01*
X140370000Y-84068095D01*
X140382380Y-84055714D01*
X140407142Y-84043333D01*
X140431904Y-84043333D01*
X140469047Y-84055714D01*
X140617619Y-84204285D01*
X140617619Y-84043333D01*
X140357619Y-83882380D02*
X140357619Y-83857619D01*
X140370000Y-83832857D01*
X140382380Y-83820476D01*
X140407142Y-83808095D01*
X140456666Y-83795714D01*
X140518571Y-83795714D01*
X140568095Y-83808095D01*
X140592857Y-83820476D01*
X140605238Y-83832857D01*
X140617619Y-83857619D01*
X140617619Y-83882380D01*
X140605238Y-83907142D01*
X140592857Y-83919523D01*
X140568095Y-83931904D01*
X140518571Y-83944285D01*
X140456666Y-83944285D01*
X140407142Y-83931904D01*
X140382380Y-83919523D01*
X140370000Y-83907142D01*
X140357619Y-83882380D01*
X140357619Y-83709047D02*
X140357619Y-83535714D01*
X140617619Y-83647142D01*
%TO.C,R208*%
D11*
X152122380Y-84656666D02*
X152122380Y-85228095D01*
X152122380Y-84942380D02*
X151122380Y-84942380D01*
X151265238Y-85037619D01*
X151360476Y-85132857D01*
X151408095Y-85228095D01*
X151122380Y-83751904D02*
X151122380Y-84228095D01*
X151598571Y-84275714D01*
X151550952Y-84228095D01*
X151503333Y-84132857D01*
X151503333Y-83894761D01*
X151550952Y-83799523D01*
X151598571Y-83751904D01*
X151693809Y-83704285D01*
X151931904Y-83704285D01*
X152027142Y-83751904D01*
X152074761Y-83799523D01*
X152122380Y-83894761D01*
X152122380Y-84132857D01*
X152074761Y-84228095D01*
X152027142Y-84275714D01*
X151122380Y-83085238D02*
X151122380Y-82990000D01*
X151170000Y-82894761D01*
X151217619Y-82847142D01*
X151312857Y-82799523D01*
X151503333Y-82751904D01*
X151741428Y-82751904D01*
X151931904Y-82799523D01*
X152027142Y-82847142D01*
X152074761Y-82894761D01*
X152122380Y-82990000D01*
X152122380Y-83085238D01*
X152074761Y-83180476D01*
X152027142Y-83228095D01*
X151931904Y-83275714D01*
X151741428Y-83323333D01*
X151503333Y-83323333D01*
X151312857Y-83275714D01*
X151217619Y-83228095D01*
X151170000Y-83180476D01*
X151122380Y-83085238D01*
D13*
X150617619Y-84280952D02*
X150493809Y-84367619D01*
X150617619Y-84429523D02*
X150357619Y-84429523D01*
X150357619Y-84330476D01*
X150370000Y-84305714D01*
X150382380Y-84293333D01*
X150407142Y-84280952D01*
X150444285Y-84280952D01*
X150469047Y-84293333D01*
X150481428Y-84305714D01*
X150493809Y-84330476D01*
X150493809Y-84429523D01*
X150382380Y-84181904D02*
X150370000Y-84169523D01*
X150357619Y-84144761D01*
X150357619Y-84082857D01*
X150370000Y-84058095D01*
X150382380Y-84045714D01*
X150407142Y-84033333D01*
X150431904Y-84033333D01*
X150469047Y-84045714D01*
X150617619Y-84194285D01*
X150617619Y-84033333D01*
X150357619Y-83872380D02*
X150357619Y-83847619D01*
X150370000Y-83822857D01*
X150382380Y-83810476D01*
X150407142Y-83798095D01*
X150456666Y-83785714D01*
X150518571Y-83785714D01*
X150568095Y-83798095D01*
X150592857Y-83810476D01*
X150605238Y-83822857D01*
X150617619Y-83847619D01*
X150617619Y-83872380D01*
X150605238Y-83897142D01*
X150592857Y-83909523D01*
X150568095Y-83921904D01*
X150518571Y-83934285D01*
X150456666Y-83934285D01*
X150407142Y-83921904D01*
X150382380Y-83909523D01*
X150370000Y-83897142D01*
X150357619Y-83872380D01*
X150469047Y-83637142D02*
X150456666Y-83661904D01*
X150444285Y-83674285D01*
X150419523Y-83686666D01*
X150407142Y-83686666D01*
X150382380Y-83674285D01*
X150370000Y-83661904D01*
X150357619Y-83637142D01*
X150357619Y-83587619D01*
X150370000Y-83562857D01*
X150382380Y-83550476D01*
X150407142Y-83538095D01*
X150419523Y-83538095D01*
X150444285Y-83550476D01*
X150456666Y-83562857D01*
X150469047Y-83587619D01*
X150469047Y-83637142D01*
X150481428Y-83661904D01*
X150493809Y-83674285D01*
X150518571Y-83686666D01*
X150568095Y-83686666D01*
X150592857Y-83674285D01*
X150605238Y-83661904D01*
X150617619Y-83637142D01*
X150617619Y-83587619D01*
X150605238Y-83562857D01*
X150592857Y-83550476D01*
X150568095Y-83538095D01*
X150518571Y-83538095D01*
X150493809Y-83550476D01*
X150481428Y-83562857D01*
X150469047Y-83587619D01*
%TO.C,R209*%
D11*
X122122380Y-94666666D02*
X122122380Y-95238095D01*
X122122380Y-94952380D02*
X121122380Y-94952380D01*
X121265238Y-95047619D01*
X121360476Y-95142857D01*
X121408095Y-95238095D01*
X121122380Y-93761904D02*
X121122380Y-94238095D01*
X121598571Y-94285714D01*
X121550952Y-94238095D01*
X121503333Y-94142857D01*
X121503333Y-93904761D01*
X121550952Y-93809523D01*
X121598571Y-93761904D01*
X121693809Y-93714285D01*
X121931904Y-93714285D01*
X122027142Y-93761904D01*
X122074761Y-93809523D01*
X122122380Y-93904761D01*
X122122380Y-94142857D01*
X122074761Y-94238095D01*
X122027142Y-94285714D01*
X121122380Y-93095238D02*
X121122380Y-93000000D01*
X121170000Y-92904761D01*
X121217619Y-92857142D01*
X121312857Y-92809523D01*
X121503333Y-92761904D01*
X121741428Y-92761904D01*
X121931904Y-92809523D01*
X122027142Y-92857142D01*
X122074761Y-92904761D01*
X122122380Y-93000000D01*
X122122380Y-93095238D01*
X122074761Y-93190476D01*
X122027142Y-93238095D01*
X121931904Y-93285714D01*
X121741428Y-93333333D01*
X121503333Y-93333333D01*
X121312857Y-93285714D01*
X121217619Y-93238095D01*
X121170000Y-93190476D01*
X121122380Y-93095238D01*
D13*
X120617619Y-94290952D02*
X120493809Y-94377619D01*
X120617619Y-94439523D02*
X120357619Y-94439523D01*
X120357619Y-94340476D01*
X120370000Y-94315714D01*
X120382380Y-94303333D01*
X120407142Y-94290952D01*
X120444285Y-94290952D01*
X120469047Y-94303333D01*
X120481428Y-94315714D01*
X120493809Y-94340476D01*
X120493809Y-94439523D01*
X120382380Y-94191904D02*
X120370000Y-94179523D01*
X120357619Y-94154761D01*
X120357619Y-94092857D01*
X120370000Y-94068095D01*
X120382380Y-94055714D01*
X120407142Y-94043333D01*
X120431904Y-94043333D01*
X120469047Y-94055714D01*
X120617619Y-94204285D01*
X120617619Y-94043333D01*
X120357619Y-93882380D02*
X120357619Y-93857619D01*
X120370000Y-93832857D01*
X120382380Y-93820476D01*
X120407142Y-93808095D01*
X120456666Y-93795714D01*
X120518571Y-93795714D01*
X120568095Y-93808095D01*
X120592857Y-93820476D01*
X120605238Y-93832857D01*
X120617619Y-93857619D01*
X120617619Y-93882380D01*
X120605238Y-93907142D01*
X120592857Y-93919523D01*
X120568095Y-93931904D01*
X120518571Y-93944285D01*
X120456666Y-93944285D01*
X120407142Y-93931904D01*
X120382380Y-93919523D01*
X120370000Y-93907142D01*
X120357619Y-93882380D01*
X120617619Y-93671904D02*
X120617619Y-93622380D01*
X120605238Y-93597619D01*
X120592857Y-93585238D01*
X120555714Y-93560476D01*
X120506190Y-93548095D01*
X120407142Y-93548095D01*
X120382380Y-93560476D01*
X120370000Y-93572857D01*
X120357619Y-93597619D01*
X120357619Y-93647142D01*
X120370000Y-93671904D01*
X120382380Y-93684285D01*
X120407142Y-93696666D01*
X120469047Y-93696666D01*
X120493809Y-93684285D01*
X120506190Y-93671904D01*
X120518571Y-93647142D01*
X120518571Y-93597619D01*
X120506190Y-93572857D01*
X120493809Y-93560476D01*
X120469047Y-93548095D01*
%TO.C,R210*%
D11*
X132122380Y-94666666D02*
X132122380Y-95238095D01*
X132122380Y-94952380D02*
X131122380Y-94952380D01*
X131265238Y-95047619D01*
X131360476Y-95142857D01*
X131408095Y-95238095D01*
X131122380Y-93761904D02*
X131122380Y-94238095D01*
X131598571Y-94285714D01*
X131550952Y-94238095D01*
X131503333Y-94142857D01*
X131503333Y-93904761D01*
X131550952Y-93809523D01*
X131598571Y-93761904D01*
X131693809Y-93714285D01*
X131931904Y-93714285D01*
X132027142Y-93761904D01*
X132074761Y-93809523D01*
X132122380Y-93904761D01*
X132122380Y-94142857D01*
X132074761Y-94238095D01*
X132027142Y-94285714D01*
X131122380Y-93095238D02*
X131122380Y-93000000D01*
X131170000Y-92904761D01*
X131217619Y-92857142D01*
X131312857Y-92809523D01*
X131503333Y-92761904D01*
X131741428Y-92761904D01*
X131931904Y-92809523D01*
X132027142Y-92857142D01*
X132074761Y-92904761D01*
X132122380Y-93000000D01*
X132122380Y-93095238D01*
X132074761Y-93190476D01*
X132027142Y-93238095D01*
X131931904Y-93285714D01*
X131741428Y-93333333D01*
X131503333Y-93333333D01*
X131312857Y-93285714D01*
X131217619Y-93238095D01*
X131170000Y-93190476D01*
X131122380Y-93095238D01*
D13*
X130617619Y-94290952D02*
X130493809Y-94377619D01*
X130617619Y-94439523D02*
X130357619Y-94439523D01*
X130357619Y-94340476D01*
X130370000Y-94315714D01*
X130382380Y-94303333D01*
X130407142Y-94290952D01*
X130444285Y-94290952D01*
X130469047Y-94303333D01*
X130481428Y-94315714D01*
X130493809Y-94340476D01*
X130493809Y-94439523D01*
X130382380Y-94191904D02*
X130370000Y-94179523D01*
X130357619Y-94154761D01*
X130357619Y-94092857D01*
X130370000Y-94068095D01*
X130382380Y-94055714D01*
X130407142Y-94043333D01*
X130431904Y-94043333D01*
X130469047Y-94055714D01*
X130617619Y-94204285D01*
X130617619Y-94043333D01*
X130617619Y-93795714D02*
X130617619Y-93944285D01*
X130617619Y-93870000D02*
X130357619Y-93870000D01*
X130394761Y-93894761D01*
X130419523Y-93919523D01*
X130431904Y-93944285D01*
X130357619Y-93634761D02*
X130357619Y-93610000D01*
X130370000Y-93585238D01*
X130382380Y-93572857D01*
X130407142Y-93560476D01*
X130456666Y-93548095D01*
X130518571Y-93548095D01*
X130568095Y-93560476D01*
X130592857Y-93572857D01*
X130605238Y-93585238D01*
X130617619Y-93610000D01*
X130617619Y-93634761D01*
X130605238Y-93659523D01*
X130592857Y-93671904D01*
X130568095Y-93684285D01*
X130518571Y-93696666D01*
X130456666Y-93696666D01*
X130407142Y-93684285D01*
X130382380Y-93671904D01*
X130370000Y-93659523D01*
X130357619Y-93634761D01*
%TO.C,R211*%
D11*
X142122380Y-94666666D02*
X142122380Y-95238095D01*
X142122380Y-94952380D02*
X141122380Y-94952380D01*
X141265238Y-95047619D01*
X141360476Y-95142857D01*
X141408095Y-95238095D01*
X141122380Y-93761904D02*
X141122380Y-94238095D01*
X141598571Y-94285714D01*
X141550952Y-94238095D01*
X141503333Y-94142857D01*
X141503333Y-93904761D01*
X141550952Y-93809523D01*
X141598571Y-93761904D01*
X141693809Y-93714285D01*
X141931904Y-93714285D01*
X142027142Y-93761904D01*
X142074761Y-93809523D01*
X142122380Y-93904761D01*
X142122380Y-94142857D01*
X142074761Y-94238095D01*
X142027142Y-94285714D01*
X141122380Y-93095238D02*
X141122380Y-93000000D01*
X141170000Y-92904761D01*
X141217619Y-92857142D01*
X141312857Y-92809523D01*
X141503333Y-92761904D01*
X141741428Y-92761904D01*
X141931904Y-92809523D01*
X142027142Y-92857142D01*
X142074761Y-92904761D01*
X142122380Y-93000000D01*
X142122380Y-93095238D01*
X142074761Y-93190476D01*
X142027142Y-93238095D01*
X141931904Y-93285714D01*
X141741428Y-93333333D01*
X141503333Y-93333333D01*
X141312857Y-93285714D01*
X141217619Y-93238095D01*
X141170000Y-93190476D01*
X141122380Y-93095238D01*
D13*
X140617619Y-94290952D02*
X140493809Y-94377619D01*
X140617619Y-94439523D02*
X140357619Y-94439523D01*
X140357619Y-94340476D01*
X140370000Y-94315714D01*
X140382380Y-94303333D01*
X140407142Y-94290952D01*
X140444285Y-94290952D01*
X140469047Y-94303333D01*
X140481428Y-94315714D01*
X140493809Y-94340476D01*
X140493809Y-94439523D01*
X140382380Y-94191904D02*
X140370000Y-94179523D01*
X140357619Y-94154761D01*
X140357619Y-94092857D01*
X140370000Y-94068095D01*
X140382380Y-94055714D01*
X140407142Y-94043333D01*
X140431904Y-94043333D01*
X140469047Y-94055714D01*
X140617619Y-94204285D01*
X140617619Y-94043333D01*
X140617619Y-93795714D02*
X140617619Y-93944285D01*
X140617619Y-93870000D02*
X140357619Y-93870000D01*
X140394761Y-93894761D01*
X140419523Y-93919523D01*
X140431904Y-93944285D01*
X140617619Y-93548095D02*
X140617619Y-93696666D01*
X140617619Y-93622380D02*
X140357619Y-93622380D01*
X140394761Y-93647142D01*
X140419523Y-93671904D01*
X140431904Y-93696666D01*
%TO.C,R212*%
D11*
X152122380Y-94666666D02*
X152122380Y-95238095D01*
X152122380Y-94952380D02*
X151122380Y-94952380D01*
X151265238Y-95047619D01*
X151360476Y-95142857D01*
X151408095Y-95238095D01*
X151122380Y-93761904D02*
X151122380Y-94238095D01*
X151598571Y-94285714D01*
X151550952Y-94238095D01*
X151503333Y-94142857D01*
X151503333Y-93904761D01*
X151550952Y-93809523D01*
X151598571Y-93761904D01*
X151693809Y-93714285D01*
X151931904Y-93714285D01*
X152027142Y-93761904D01*
X152074761Y-93809523D01*
X152122380Y-93904761D01*
X152122380Y-94142857D01*
X152074761Y-94238095D01*
X152027142Y-94285714D01*
X151122380Y-93095238D02*
X151122380Y-93000000D01*
X151170000Y-92904761D01*
X151217619Y-92857142D01*
X151312857Y-92809523D01*
X151503333Y-92761904D01*
X151741428Y-92761904D01*
X151931904Y-92809523D01*
X152027142Y-92857142D01*
X152074761Y-92904761D01*
X152122380Y-93000000D01*
X152122380Y-93095238D01*
X152074761Y-93190476D01*
X152027142Y-93238095D01*
X151931904Y-93285714D01*
X151741428Y-93333333D01*
X151503333Y-93333333D01*
X151312857Y-93285714D01*
X151217619Y-93238095D01*
X151170000Y-93190476D01*
X151122380Y-93095238D01*
D13*
X150617619Y-94290952D02*
X150493809Y-94377619D01*
X150617619Y-94439523D02*
X150357619Y-94439523D01*
X150357619Y-94340476D01*
X150370000Y-94315714D01*
X150382380Y-94303333D01*
X150407142Y-94290952D01*
X150444285Y-94290952D01*
X150469047Y-94303333D01*
X150481428Y-94315714D01*
X150493809Y-94340476D01*
X150493809Y-94439523D01*
X150382380Y-94191904D02*
X150370000Y-94179523D01*
X150357619Y-94154761D01*
X150357619Y-94092857D01*
X150370000Y-94068095D01*
X150382380Y-94055714D01*
X150407142Y-94043333D01*
X150431904Y-94043333D01*
X150469047Y-94055714D01*
X150617619Y-94204285D01*
X150617619Y-94043333D01*
X150617619Y-93795714D02*
X150617619Y-93944285D01*
X150617619Y-93870000D02*
X150357619Y-93870000D01*
X150394761Y-93894761D01*
X150419523Y-93919523D01*
X150431904Y-93944285D01*
X150382380Y-93696666D02*
X150370000Y-93684285D01*
X150357619Y-93659523D01*
X150357619Y-93597619D01*
X150370000Y-93572857D01*
X150382380Y-93560476D01*
X150407142Y-93548095D01*
X150431904Y-93548095D01*
X150469047Y-93560476D01*
X150617619Y-93709047D01*
X150617619Y-93548095D01*
%TO.C,R213*%
D11*
X122122380Y-104666666D02*
X122122380Y-105238095D01*
X122122380Y-104952380D02*
X121122380Y-104952380D01*
X121265238Y-105047619D01*
X121360476Y-105142857D01*
X121408095Y-105238095D01*
X121122380Y-103761904D02*
X121122380Y-104238095D01*
X121598571Y-104285714D01*
X121550952Y-104238095D01*
X121503333Y-104142857D01*
X121503333Y-103904761D01*
X121550952Y-103809523D01*
X121598571Y-103761904D01*
X121693809Y-103714285D01*
X121931904Y-103714285D01*
X122027142Y-103761904D01*
X122074761Y-103809523D01*
X122122380Y-103904761D01*
X122122380Y-104142857D01*
X122074761Y-104238095D01*
X122027142Y-104285714D01*
X121122380Y-103095238D02*
X121122380Y-103000000D01*
X121170000Y-102904761D01*
X121217619Y-102857142D01*
X121312857Y-102809523D01*
X121503333Y-102761904D01*
X121741428Y-102761904D01*
X121931904Y-102809523D01*
X122027142Y-102857142D01*
X122074761Y-102904761D01*
X122122380Y-103000000D01*
X122122380Y-103095238D01*
X122074761Y-103190476D01*
X122027142Y-103238095D01*
X121931904Y-103285714D01*
X121741428Y-103333333D01*
X121503333Y-103333333D01*
X121312857Y-103285714D01*
X121217619Y-103238095D01*
X121170000Y-103190476D01*
X121122380Y-103095238D01*
D13*
X120617619Y-104290952D02*
X120493809Y-104377619D01*
X120617619Y-104439523D02*
X120357619Y-104439523D01*
X120357619Y-104340476D01*
X120370000Y-104315714D01*
X120382380Y-104303333D01*
X120407142Y-104290952D01*
X120444285Y-104290952D01*
X120469047Y-104303333D01*
X120481428Y-104315714D01*
X120493809Y-104340476D01*
X120493809Y-104439523D01*
X120382380Y-104191904D02*
X120370000Y-104179523D01*
X120357619Y-104154761D01*
X120357619Y-104092857D01*
X120370000Y-104068095D01*
X120382380Y-104055714D01*
X120407142Y-104043333D01*
X120431904Y-104043333D01*
X120469047Y-104055714D01*
X120617619Y-104204285D01*
X120617619Y-104043333D01*
X120617619Y-103795714D02*
X120617619Y-103944285D01*
X120617619Y-103870000D02*
X120357619Y-103870000D01*
X120394761Y-103894761D01*
X120419523Y-103919523D01*
X120431904Y-103944285D01*
X120357619Y-103709047D02*
X120357619Y-103548095D01*
X120456666Y-103634761D01*
X120456666Y-103597619D01*
X120469047Y-103572857D01*
X120481428Y-103560476D01*
X120506190Y-103548095D01*
X120568095Y-103548095D01*
X120592857Y-103560476D01*
X120605238Y-103572857D01*
X120617619Y-103597619D01*
X120617619Y-103671904D01*
X120605238Y-103696666D01*
X120592857Y-103709047D01*
%TO.C,R214*%
D11*
X132122380Y-104676666D02*
X132122380Y-105248095D01*
X132122380Y-104962380D02*
X131122380Y-104962380D01*
X131265238Y-105057619D01*
X131360476Y-105152857D01*
X131408095Y-105248095D01*
X131122380Y-103771904D02*
X131122380Y-104248095D01*
X131598571Y-104295714D01*
X131550952Y-104248095D01*
X131503333Y-104152857D01*
X131503333Y-103914761D01*
X131550952Y-103819523D01*
X131598571Y-103771904D01*
X131693809Y-103724285D01*
X131931904Y-103724285D01*
X132027142Y-103771904D01*
X132074761Y-103819523D01*
X132122380Y-103914761D01*
X132122380Y-104152857D01*
X132074761Y-104248095D01*
X132027142Y-104295714D01*
X131122380Y-103105238D02*
X131122380Y-103010000D01*
X131170000Y-102914761D01*
X131217619Y-102867142D01*
X131312857Y-102819523D01*
X131503333Y-102771904D01*
X131741428Y-102771904D01*
X131931904Y-102819523D01*
X132027142Y-102867142D01*
X132074761Y-102914761D01*
X132122380Y-103010000D01*
X132122380Y-103105238D01*
X132074761Y-103200476D01*
X132027142Y-103248095D01*
X131931904Y-103295714D01*
X131741428Y-103343333D01*
X131503333Y-103343333D01*
X131312857Y-103295714D01*
X131217619Y-103248095D01*
X131170000Y-103200476D01*
X131122380Y-103105238D01*
D13*
X130617619Y-104300952D02*
X130493809Y-104387619D01*
X130617619Y-104449523D02*
X130357619Y-104449523D01*
X130357619Y-104350476D01*
X130370000Y-104325714D01*
X130382380Y-104313333D01*
X130407142Y-104300952D01*
X130444285Y-104300952D01*
X130469047Y-104313333D01*
X130481428Y-104325714D01*
X130493809Y-104350476D01*
X130493809Y-104449523D01*
X130382380Y-104201904D02*
X130370000Y-104189523D01*
X130357619Y-104164761D01*
X130357619Y-104102857D01*
X130370000Y-104078095D01*
X130382380Y-104065714D01*
X130407142Y-104053333D01*
X130431904Y-104053333D01*
X130469047Y-104065714D01*
X130617619Y-104214285D01*
X130617619Y-104053333D01*
X130617619Y-103805714D02*
X130617619Y-103954285D01*
X130617619Y-103880000D02*
X130357619Y-103880000D01*
X130394761Y-103904761D01*
X130419523Y-103929523D01*
X130431904Y-103954285D01*
X130444285Y-103582857D02*
X130617619Y-103582857D01*
X130345238Y-103644761D02*
X130530952Y-103706666D01*
X130530952Y-103545714D01*
%TO.C,R215*%
D11*
X142122380Y-104666666D02*
X142122380Y-105238095D01*
X142122380Y-104952380D02*
X141122380Y-104952380D01*
X141265238Y-105047619D01*
X141360476Y-105142857D01*
X141408095Y-105238095D01*
X141122380Y-103761904D02*
X141122380Y-104238095D01*
X141598571Y-104285714D01*
X141550952Y-104238095D01*
X141503333Y-104142857D01*
X141503333Y-103904761D01*
X141550952Y-103809523D01*
X141598571Y-103761904D01*
X141693809Y-103714285D01*
X141931904Y-103714285D01*
X142027142Y-103761904D01*
X142074761Y-103809523D01*
X142122380Y-103904761D01*
X142122380Y-104142857D01*
X142074761Y-104238095D01*
X142027142Y-104285714D01*
X141122380Y-103095238D02*
X141122380Y-103000000D01*
X141170000Y-102904761D01*
X141217619Y-102857142D01*
X141312857Y-102809523D01*
X141503333Y-102761904D01*
X141741428Y-102761904D01*
X141931904Y-102809523D01*
X142027142Y-102857142D01*
X142074761Y-102904761D01*
X142122380Y-103000000D01*
X142122380Y-103095238D01*
X142074761Y-103190476D01*
X142027142Y-103238095D01*
X141931904Y-103285714D01*
X141741428Y-103333333D01*
X141503333Y-103333333D01*
X141312857Y-103285714D01*
X141217619Y-103238095D01*
X141170000Y-103190476D01*
X141122380Y-103095238D01*
D13*
X140617619Y-104290952D02*
X140493809Y-104377619D01*
X140617619Y-104439523D02*
X140357619Y-104439523D01*
X140357619Y-104340476D01*
X140370000Y-104315714D01*
X140382380Y-104303333D01*
X140407142Y-104290952D01*
X140444285Y-104290952D01*
X140469047Y-104303333D01*
X140481428Y-104315714D01*
X140493809Y-104340476D01*
X140493809Y-104439523D01*
X140382380Y-104191904D02*
X140370000Y-104179523D01*
X140357619Y-104154761D01*
X140357619Y-104092857D01*
X140370000Y-104068095D01*
X140382380Y-104055714D01*
X140407142Y-104043333D01*
X140431904Y-104043333D01*
X140469047Y-104055714D01*
X140617619Y-104204285D01*
X140617619Y-104043333D01*
X140617619Y-103795714D02*
X140617619Y-103944285D01*
X140617619Y-103870000D02*
X140357619Y-103870000D01*
X140394761Y-103894761D01*
X140419523Y-103919523D01*
X140431904Y-103944285D01*
X140357619Y-103560476D02*
X140357619Y-103684285D01*
X140481428Y-103696666D01*
X140469047Y-103684285D01*
X140456666Y-103659523D01*
X140456666Y-103597619D01*
X140469047Y-103572857D01*
X140481428Y-103560476D01*
X140506190Y-103548095D01*
X140568095Y-103548095D01*
X140592857Y-103560476D01*
X140605238Y-103572857D01*
X140617619Y-103597619D01*
X140617619Y-103659523D01*
X140605238Y-103684285D01*
X140592857Y-103696666D01*
%TO.C,R216*%
D11*
X152122380Y-104666666D02*
X152122380Y-105238095D01*
X152122380Y-104952380D02*
X151122380Y-104952380D01*
X151265238Y-105047619D01*
X151360476Y-105142857D01*
X151408095Y-105238095D01*
X151122380Y-103761904D02*
X151122380Y-104238095D01*
X151598571Y-104285714D01*
X151550952Y-104238095D01*
X151503333Y-104142857D01*
X151503333Y-103904761D01*
X151550952Y-103809523D01*
X151598571Y-103761904D01*
X151693809Y-103714285D01*
X151931904Y-103714285D01*
X152027142Y-103761904D01*
X152074761Y-103809523D01*
X152122380Y-103904761D01*
X152122380Y-104142857D01*
X152074761Y-104238095D01*
X152027142Y-104285714D01*
X151122380Y-103095238D02*
X151122380Y-103000000D01*
X151170000Y-102904761D01*
X151217619Y-102857142D01*
X151312857Y-102809523D01*
X151503333Y-102761904D01*
X151741428Y-102761904D01*
X151931904Y-102809523D01*
X152027142Y-102857142D01*
X152074761Y-102904761D01*
X152122380Y-103000000D01*
X152122380Y-103095238D01*
X152074761Y-103190476D01*
X152027142Y-103238095D01*
X151931904Y-103285714D01*
X151741428Y-103333333D01*
X151503333Y-103333333D01*
X151312857Y-103285714D01*
X151217619Y-103238095D01*
X151170000Y-103190476D01*
X151122380Y-103095238D01*
D13*
X150617619Y-104290952D02*
X150493809Y-104377619D01*
X150617619Y-104439523D02*
X150357619Y-104439523D01*
X150357619Y-104340476D01*
X150370000Y-104315714D01*
X150382380Y-104303333D01*
X150407142Y-104290952D01*
X150444285Y-104290952D01*
X150469047Y-104303333D01*
X150481428Y-104315714D01*
X150493809Y-104340476D01*
X150493809Y-104439523D01*
X150382380Y-104191904D02*
X150370000Y-104179523D01*
X150357619Y-104154761D01*
X150357619Y-104092857D01*
X150370000Y-104068095D01*
X150382380Y-104055714D01*
X150407142Y-104043333D01*
X150431904Y-104043333D01*
X150469047Y-104055714D01*
X150617619Y-104204285D01*
X150617619Y-104043333D01*
X150617619Y-103795714D02*
X150617619Y-103944285D01*
X150617619Y-103870000D02*
X150357619Y-103870000D01*
X150394761Y-103894761D01*
X150419523Y-103919523D01*
X150431904Y-103944285D01*
X150357619Y-103572857D02*
X150357619Y-103622380D01*
X150370000Y-103647142D01*
X150382380Y-103659523D01*
X150419523Y-103684285D01*
X150469047Y-103696666D01*
X150568095Y-103696666D01*
X150592857Y-103684285D01*
X150605238Y-103671904D01*
X150617619Y-103647142D01*
X150617619Y-103597619D01*
X150605238Y-103572857D01*
X150592857Y-103560476D01*
X150568095Y-103548095D01*
X150506190Y-103548095D01*
X150481428Y-103560476D01*
X150469047Y-103572857D01*
X150456666Y-103597619D01*
X150456666Y-103647142D01*
X150469047Y-103671904D01*
X150481428Y-103684285D01*
X150506190Y-103696666D01*
%TO.C,TP201*%
D11*
X149166666Y-106902380D02*
X149738095Y-106902380D01*
X149452380Y-107902380D02*
X149452380Y-106902380D01*
X150452380Y-107854761D02*
X150357142Y-107902380D01*
X150166666Y-107902380D01*
X150071428Y-107854761D01*
X150023809Y-107759523D01*
X150023809Y-107378571D01*
X150071428Y-107283333D01*
X150166666Y-107235714D01*
X150357142Y-107235714D01*
X150452380Y-107283333D01*
X150500000Y-107378571D01*
X150500000Y-107473809D01*
X150023809Y-107569047D01*
X150880952Y-107854761D02*
X150976190Y-107902380D01*
X151166666Y-107902380D01*
X151261904Y-107854761D01*
X151309523Y-107759523D01*
X151309523Y-107711904D01*
X151261904Y-107616666D01*
X151166666Y-107569047D01*
X151023809Y-107569047D01*
X150928571Y-107521428D01*
X150880952Y-107426190D01*
X150880952Y-107378571D01*
X150928571Y-107283333D01*
X151023809Y-107235714D01*
X151166666Y-107235714D01*
X151261904Y-107283333D01*
X151595238Y-107235714D02*
X151976190Y-107235714D01*
X151738095Y-106902380D02*
X151738095Y-107759523D01*
X151785714Y-107854761D01*
X151880952Y-107902380D01*
X151976190Y-107902380D01*
X152309523Y-107902380D02*
X152309523Y-106902380D01*
X152690476Y-106902380D01*
X152785714Y-106950000D01*
X152833333Y-106997619D01*
X152880952Y-107092857D01*
X152880952Y-107235714D01*
X152833333Y-107330952D01*
X152785714Y-107378571D01*
X152690476Y-107426190D01*
X152309523Y-107426190D01*
X153452380Y-107902380D02*
X153357142Y-107854761D01*
X153309523Y-107807142D01*
X153261904Y-107711904D01*
X153261904Y-107426190D01*
X153309523Y-107330952D01*
X153357142Y-107283333D01*
X153452380Y-107235714D01*
X153595238Y-107235714D01*
X153690476Y-107283333D01*
X153738095Y-107330952D01*
X153785714Y-107426190D01*
X153785714Y-107711904D01*
X153738095Y-107807142D01*
X153690476Y-107854761D01*
X153595238Y-107902380D01*
X153452380Y-107902380D01*
X154214285Y-107902380D02*
X154214285Y-107235714D01*
X154214285Y-106902380D02*
X154166666Y-106950000D01*
X154214285Y-106997619D01*
X154261904Y-106950000D01*
X154214285Y-106902380D01*
X154214285Y-106997619D01*
X154690476Y-107235714D02*
X154690476Y-107902380D01*
X154690476Y-107330952D02*
X154738095Y-107283333D01*
X154833333Y-107235714D01*
X154976190Y-107235714D01*
X155071428Y-107283333D01*
X155119047Y-107378571D01*
X155119047Y-107902380D01*
X155452380Y-107235714D02*
X155833333Y-107235714D01*
X155595238Y-106902380D02*
X155595238Y-107759523D01*
X155642857Y-107854761D01*
X155738095Y-107902380D01*
X155833333Y-107902380D01*
X150285714Y-109902380D02*
X150857142Y-109902380D01*
X150571428Y-110902380D02*
X150571428Y-109902380D01*
X151190476Y-110902380D02*
X151190476Y-109902380D01*
X151571428Y-109902380D01*
X151666666Y-109950000D01*
X151714285Y-109997619D01*
X151761904Y-110092857D01*
X151761904Y-110235714D01*
X151714285Y-110330952D01*
X151666666Y-110378571D01*
X151571428Y-110426190D01*
X151190476Y-110426190D01*
X152142857Y-109997619D02*
X152190476Y-109950000D01*
X152285714Y-109902380D01*
X152523809Y-109902380D01*
X152619047Y-109950000D01*
X152666666Y-109997619D01*
X152714285Y-110092857D01*
X152714285Y-110188095D01*
X152666666Y-110330952D01*
X152095238Y-110902380D01*
X152714285Y-110902380D01*
X153333333Y-109902380D02*
X153428571Y-109902380D01*
X153523809Y-109950000D01*
X153571428Y-109997619D01*
X153619047Y-110092857D01*
X153666666Y-110283333D01*
X153666666Y-110521428D01*
X153619047Y-110711904D01*
X153571428Y-110807142D01*
X153523809Y-110854761D01*
X153428571Y-110902380D01*
X153333333Y-110902380D01*
X153238095Y-110854761D01*
X153190476Y-110807142D01*
X153142857Y-110711904D01*
X153095238Y-110521428D01*
X153095238Y-110283333D01*
X153142857Y-110092857D01*
X153190476Y-109997619D01*
X153238095Y-109950000D01*
X153333333Y-109902380D01*
X154619047Y-110902380D02*
X154047619Y-110902380D01*
X154333333Y-110902380D02*
X154333333Y-109902380D01*
X154238095Y-110045238D01*
X154142857Y-110140476D01*
X154047619Y-110188095D01*
%TO.C,U101*%
X106571428Y-79666666D02*
X107047619Y-79666666D01*
X106476190Y-79952380D02*
X106809523Y-78952380D01*
X107142857Y-79952380D01*
X107380952Y-78952380D02*
X108047619Y-78952380D01*
X107380952Y-79952380D01*
X108047619Y-79952380D01*
X108952380Y-79952380D02*
X108380952Y-79952380D01*
X108666666Y-79952380D02*
X108666666Y-78952380D01*
X108571428Y-79095238D01*
X108476190Y-79190476D01*
X108380952Y-79238095D01*
X109904761Y-79952380D02*
X109333333Y-79952380D01*
X109619047Y-79952380D02*
X109619047Y-78952380D01*
X109523809Y-79095238D01*
X109428571Y-79190476D01*
X109333333Y-79238095D01*
X110857142Y-79952380D02*
X110285714Y-79952380D01*
X110571428Y-79952380D02*
X110571428Y-78952380D01*
X110476190Y-79095238D01*
X110380952Y-79190476D01*
X110285714Y-79238095D01*
X111190476Y-78952380D02*
X111857142Y-78952380D01*
X111428571Y-79952380D01*
X112238095Y-79571428D02*
X113000000Y-79571428D01*
X113380952Y-78952380D02*
X114000000Y-78952380D01*
X113666666Y-79333333D01*
X113809523Y-79333333D01*
X113904761Y-79380952D01*
X113952380Y-79428571D01*
X114000000Y-79523809D01*
X114000000Y-79761904D01*
X113952380Y-79857142D01*
X113904761Y-79904761D01*
X113809523Y-79952380D01*
X113523809Y-79952380D01*
X113428571Y-79904761D01*
X113380952Y-79857142D01*
X114428571Y-79857142D02*
X114476190Y-79904761D01*
X114428571Y-79952380D01*
X114380952Y-79904761D01*
X114428571Y-79857142D01*
X114428571Y-79952380D01*
X114809523Y-78952380D02*
X115428571Y-78952380D01*
X115095238Y-79333333D01*
X115238095Y-79333333D01*
X115333333Y-79380952D01*
X115380952Y-79428571D01*
X115428571Y-79523809D01*
X115428571Y-79761904D01*
X115380952Y-79857142D01*
X115333333Y-79904761D01*
X115238095Y-79952380D01*
X114952380Y-79952380D01*
X114857142Y-79904761D01*
X114809523Y-79857142D01*
D14*
X110561904Y-76371428D02*
X111209523Y-76371428D01*
X111285714Y-76333333D01*
X111323809Y-76295238D01*
X111361904Y-76219047D01*
X111361904Y-76066666D01*
X111323809Y-75990476D01*
X111285714Y-75952380D01*
X111209523Y-75914285D01*
X110561904Y-75914285D01*
X111361904Y-75114285D02*
X111361904Y-75571428D01*
X111361904Y-75342857D02*
X110561904Y-75342857D01*
X110676190Y-75419047D01*
X110752380Y-75495238D01*
X110790476Y-75571428D01*
X110561904Y-74619047D02*
X110561904Y-74542857D01*
X110600000Y-74466666D01*
X110638095Y-74428571D01*
X110714285Y-74390476D01*
X110866666Y-74352380D01*
X111057142Y-74352380D01*
X111209523Y-74390476D01*
X111285714Y-74428571D01*
X111323809Y-74466666D01*
X111361904Y-74542857D01*
X111361904Y-74619047D01*
X111323809Y-74695238D01*
X111285714Y-74733333D01*
X111209523Y-74771428D01*
X111057142Y-74809523D01*
X110866666Y-74809523D01*
X110714285Y-74771428D01*
X110638095Y-74733333D01*
X110600000Y-74695238D01*
X110561904Y-74619047D01*
X111361904Y-73590476D02*
X111361904Y-74047619D01*
X111361904Y-73819047D02*
X110561904Y-73819047D01*
X110676190Y-73895238D01*
X110752380Y-73971428D01*
X110790476Y-74047619D01*
%TO.C,H101*%
D11*
X113585714Y-65452380D02*
X113585714Y-64452380D01*
X113585714Y-64928571D02*
X114157142Y-64928571D01*
X114157142Y-65452380D02*
X114157142Y-64452380D01*
X115157142Y-65452380D02*
X114585714Y-65452380D01*
X114871428Y-65452380D02*
X114871428Y-64452380D01*
X114776190Y-64595238D01*
X114680952Y-64690476D01*
X114585714Y-64738095D01*
X115776190Y-64452380D02*
X115871428Y-64452380D01*
X115966666Y-64500000D01*
X116014285Y-64547619D01*
X116061904Y-64642857D01*
X116109523Y-64833333D01*
X116109523Y-65071428D01*
X116061904Y-65261904D01*
X116014285Y-65357142D01*
X115966666Y-65404761D01*
X115871428Y-65452380D01*
X115776190Y-65452380D01*
X115680952Y-65404761D01*
X115633333Y-65357142D01*
X115585714Y-65261904D01*
X115538095Y-65071428D01*
X115538095Y-64833333D01*
X115585714Y-64642857D01*
X115633333Y-64547619D01*
X115680952Y-64500000D01*
X115776190Y-64452380D01*
X117061904Y-65452380D02*
X116490476Y-65452380D01*
X116776190Y-65452380D02*
X116776190Y-64452380D01*
X116680952Y-64595238D01*
X116585714Y-64690476D01*
X116490476Y-64738095D01*
%TO.C,H102*%
X163585714Y-65452380D02*
X163585714Y-64452380D01*
X163585714Y-64928571D02*
X164157142Y-64928571D01*
X164157142Y-65452380D02*
X164157142Y-64452380D01*
X165157142Y-65452380D02*
X164585714Y-65452380D01*
X164871428Y-65452380D02*
X164871428Y-64452380D01*
X164776190Y-64595238D01*
X164680952Y-64690476D01*
X164585714Y-64738095D01*
X165776190Y-64452380D02*
X165871428Y-64452380D01*
X165966666Y-64500000D01*
X166014285Y-64547619D01*
X166061904Y-64642857D01*
X166109523Y-64833333D01*
X166109523Y-65071428D01*
X166061904Y-65261904D01*
X166014285Y-65357142D01*
X165966666Y-65404761D01*
X165871428Y-65452380D01*
X165776190Y-65452380D01*
X165680952Y-65404761D01*
X165633333Y-65357142D01*
X165585714Y-65261904D01*
X165538095Y-65071428D01*
X165538095Y-64833333D01*
X165585714Y-64642857D01*
X165633333Y-64547619D01*
X165680952Y-64500000D01*
X165776190Y-64452380D01*
X166490476Y-64547619D02*
X166538095Y-64500000D01*
X166633333Y-64452380D01*
X166871428Y-64452380D01*
X166966666Y-64500000D01*
X167014285Y-64547619D01*
X167061904Y-64642857D01*
X167061904Y-64738095D01*
X167014285Y-64880952D01*
X166442857Y-65452380D01*
X167061904Y-65452380D01*
%TO.C,H103*%
X113585714Y-115452380D02*
X113585714Y-114452380D01*
X113585714Y-114928571D02*
X114157142Y-114928571D01*
X114157142Y-115452380D02*
X114157142Y-114452380D01*
X115157142Y-115452380D02*
X114585714Y-115452380D01*
X114871428Y-115452380D02*
X114871428Y-114452380D01*
X114776190Y-114595238D01*
X114680952Y-114690476D01*
X114585714Y-114738095D01*
X115776190Y-114452380D02*
X115871428Y-114452380D01*
X115966666Y-114500000D01*
X116014285Y-114547619D01*
X116061904Y-114642857D01*
X116109523Y-114833333D01*
X116109523Y-115071428D01*
X116061904Y-115261904D01*
X116014285Y-115357142D01*
X115966666Y-115404761D01*
X115871428Y-115452380D01*
X115776190Y-115452380D01*
X115680952Y-115404761D01*
X115633333Y-115357142D01*
X115585714Y-115261904D01*
X115538095Y-115071428D01*
X115538095Y-114833333D01*
X115585714Y-114642857D01*
X115633333Y-114547619D01*
X115680952Y-114500000D01*
X115776190Y-114452380D01*
X116442857Y-114452380D02*
X117061904Y-114452380D01*
X116728571Y-114833333D01*
X116871428Y-114833333D01*
X116966666Y-114880952D01*
X117014285Y-114928571D01*
X117061904Y-115023809D01*
X117061904Y-115261904D01*
X117014285Y-115357142D01*
X116966666Y-115404761D01*
X116871428Y-115452380D01*
X116585714Y-115452380D01*
X116490476Y-115404761D01*
X116442857Y-115357142D01*
%TO.C,H104*%
X163585714Y-115452380D02*
X163585714Y-114452380D01*
X163585714Y-114928571D02*
X164157142Y-114928571D01*
X164157142Y-115452380D02*
X164157142Y-114452380D01*
X165157142Y-115452380D02*
X164585714Y-115452380D01*
X164871428Y-115452380D02*
X164871428Y-114452380D01*
X164776190Y-114595238D01*
X164680952Y-114690476D01*
X164585714Y-114738095D01*
X165776190Y-114452380D02*
X165871428Y-114452380D01*
X165966666Y-114500000D01*
X166014285Y-114547619D01*
X166061904Y-114642857D01*
X166109523Y-114833333D01*
X166109523Y-115071428D01*
X166061904Y-115261904D01*
X166014285Y-115357142D01*
X165966666Y-115404761D01*
X165871428Y-115452380D01*
X165776190Y-115452380D01*
X165680952Y-115404761D01*
X165633333Y-115357142D01*
X165585714Y-115261904D01*
X165538095Y-115071428D01*
X165538095Y-114833333D01*
X165585714Y-114642857D01*
X165633333Y-114547619D01*
X165680952Y-114500000D01*
X165776190Y-114452380D01*
X166966666Y-114785714D02*
X166966666Y-115452380D01*
X166728571Y-114404761D02*
X166490476Y-115119047D01*
X167109523Y-115119047D01*
%TD*%
M02*
