G04 #@! TF.GenerationSoftware,KiCad,Pcbnew,5.1.9+dfsg1-1~bpo10+1*
G04 #@! TF.CreationDate,2021-09-24T07:36:11+00:00*
G04 #@! TF.ProjectId,blinkenlights,626c696e-6b65-46e6-9c69-676874732e6b,rev?*
G04 #@! TF.SameCoordinates,Original*
G04 #@! TF.FileFunction,Soldermask,Top*
G04 #@! TF.FilePolarity,Negative*
%FSLAX46Y46*%
G04 Gerber Fmt 4.6, Leading zero omitted, Abs format (unit mm)*
G04 Created by KiCad (PCBNEW 5.1.9+dfsg1-1~bpo10+1) date 2021-09-24 07:36:11*
%MOMM*%
%LPD*%
G01*
G04 APERTURE LIST*
%ADD10R,1.500000X1.000000*%
%ADD11R,1.700000X1.700000*%
%ADD12O,1.700000X1.700000*%
%ADD13R,3.150000X1.000000*%
%ADD14R,3.000000X1.500000*%
%ADD15O,3.000000X1.500000*%
%ADD16C,1.000000*%
%ADD17R,2.000000X3.800000*%
%ADD18R,2.000000X1.500000*%
%ADD19C,7.000000*%
G04 APERTURE END LIST*
G36*
G01*
X104925001Y-74125000D02*
X103074999Y-74125000D01*
G75*
G02*
X102825000Y-73875001I0J249999D01*
G01*
X102825000Y-73049999D01*
G75*
G02*
X103074999Y-72800000I249999J0D01*
G01*
X104925001Y-72800000D01*
G75*
G02*
X105175000Y-73049999I0J-249999D01*
G01*
X105175000Y-73875001D01*
G75*
G02*
X104925001Y-74125000I-249999J0D01*
G01*
G37*
G36*
G01*
X104925001Y-77200000D02*
X103074999Y-77200000D01*
G75*
G02*
X102825000Y-76950001I0J249999D01*
G01*
X102825000Y-76124999D01*
G75*
G02*
X103074999Y-75875000I249999J0D01*
G01*
X104925001Y-75875000D01*
G75*
G02*
X105175000Y-76124999I0J-249999D01*
G01*
X105175000Y-76950001D01*
G75*
G02*
X104925001Y-77200000I-249999J0D01*
G01*
G37*
G36*
G01*
X120300000Y-69425001D02*
X120300000Y-67574999D01*
G75*
G02*
X120549999Y-67325000I249999J0D01*
G01*
X121375001Y-67325000D01*
G75*
G02*
X121625000Y-67574999I0J-249999D01*
G01*
X121625000Y-69425001D01*
G75*
G02*
X121375001Y-69675000I-249999J0D01*
G01*
X120549999Y-69675000D01*
G75*
G02*
X120300000Y-69425001I0J249999D01*
G01*
G37*
G36*
G01*
X123375000Y-69425001D02*
X123375000Y-67574999D01*
G75*
G02*
X123624999Y-67325000I249999J0D01*
G01*
X124450001Y-67325000D01*
G75*
G02*
X124700000Y-67574999I0J-249999D01*
G01*
X124700000Y-69425001D01*
G75*
G02*
X124450001Y-69675000I-249999J0D01*
G01*
X123624999Y-69675000D01*
G75*
G02*
X123375000Y-69425001I0J249999D01*
G01*
G37*
G36*
G01*
X119260000Y-72170000D02*
X119260000Y-71830000D01*
G75*
G02*
X119400000Y-71690000I140000J0D01*
G01*
X119680000Y-71690000D01*
G75*
G02*
X119820000Y-71830000I0J-140000D01*
G01*
X119820000Y-72170000D01*
G75*
G02*
X119680000Y-72310000I-140000J0D01*
G01*
X119400000Y-72310000D01*
G75*
G02*
X119260000Y-72170000I0J140000D01*
G01*
G37*
G36*
G01*
X120220000Y-72170000D02*
X120220000Y-71830000D01*
G75*
G02*
X120360000Y-71690000I140000J0D01*
G01*
X120640000Y-71690000D01*
G75*
G02*
X120780000Y-71830000I0J-140000D01*
G01*
X120780000Y-72170000D01*
G75*
G02*
X120640000Y-72310000I-140000J0D01*
G01*
X120360000Y-72310000D01*
G75*
G02*
X120220000Y-72170000I0J140000D01*
G01*
G37*
G36*
G01*
X129260000Y-72170000D02*
X129260000Y-71830000D01*
G75*
G02*
X129400000Y-71690000I140000J0D01*
G01*
X129680000Y-71690000D01*
G75*
G02*
X129820000Y-71830000I0J-140000D01*
G01*
X129820000Y-72170000D01*
G75*
G02*
X129680000Y-72310000I-140000J0D01*
G01*
X129400000Y-72310000D01*
G75*
G02*
X129260000Y-72170000I0J140000D01*
G01*
G37*
G36*
G01*
X130220000Y-72170000D02*
X130220000Y-71830000D01*
G75*
G02*
X130360000Y-71690000I140000J0D01*
G01*
X130640000Y-71690000D01*
G75*
G02*
X130780000Y-71830000I0J-140000D01*
G01*
X130780000Y-72170000D01*
G75*
G02*
X130640000Y-72310000I-140000J0D01*
G01*
X130360000Y-72310000D01*
G75*
G02*
X130220000Y-72170000I0J140000D01*
G01*
G37*
G36*
G01*
X140220000Y-72170000D02*
X140220000Y-71830000D01*
G75*
G02*
X140360000Y-71690000I140000J0D01*
G01*
X140640000Y-71690000D01*
G75*
G02*
X140780000Y-71830000I0J-140000D01*
G01*
X140780000Y-72170000D01*
G75*
G02*
X140640000Y-72310000I-140000J0D01*
G01*
X140360000Y-72310000D01*
G75*
G02*
X140220000Y-72170000I0J140000D01*
G01*
G37*
G36*
G01*
X139260000Y-72170000D02*
X139260000Y-71830000D01*
G75*
G02*
X139400000Y-71690000I140000J0D01*
G01*
X139680000Y-71690000D01*
G75*
G02*
X139820000Y-71830000I0J-140000D01*
G01*
X139820000Y-72170000D01*
G75*
G02*
X139680000Y-72310000I-140000J0D01*
G01*
X139400000Y-72310000D01*
G75*
G02*
X139260000Y-72170000I0J140000D01*
G01*
G37*
G36*
G01*
X150220000Y-72170000D02*
X150220000Y-71830000D01*
G75*
G02*
X150360000Y-71690000I140000J0D01*
G01*
X150640000Y-71690000D01*
G75*
G02*
X150780000Y-71830000I0J-140000D01*
G01*
X150780000Y-72170000D01*
G75*
G02*
X150640000Y-72310000I-140000J0D01*
G01*
X150360000Y-72310000D01*
G75*
G02*
X150220000Y-72170000I0J140000D01*
G01*
G37*
G36*
G01*
X149260000Y-72170000D02*
X149260000Y-71830000D01*
G75*
G02*
X149400000Y-71690000I140000J0D01*
G01*
X149680000Y-71690000D01*
G75*
G02*
X149820000Y-71830000I0J-140000D01*
G01*
X149820000Y-72170000D01*
G75*
G02*
X149680000Y-72310000I-140000J0D01*
G01*
X149400000Y-72310000D01*
G75*
G02*
X149260000Y-72170000I0J140000D01*
G01*
G37*
G36*
G01*
X120220000Y-82170000D02*
X120220000Y-81830000D01*
G75*
G02*
X120360000Y-81690000I140000J0D01*
G01*
X120640000Y-81690000D01*
G75*
G02*
X120780000Y-81830000I0J-140000D01*
G01*
X120780000Y-82170000D01*
G75*
G02*
X120640000Y-82310000I-140000J0D01*
G01*
X120360000Y-82310000D01*
G75*
G02*
X120220000Y-82170000I0J140000D01*
G01*
G37*
G36*
G01*
X119260000Y-82170000D02*
X119260000Y-81830000D01*
G75*
G02*
X119400000Y-81690000I140000J0D01*
G01*
X119680000Y-81690000D01*
G75*
G02*
X119820000Y-81830000I0J-140000D01*
G01*
X119820000Y-82170000D01*
G75*
G02*
X119680000Y-82310000I-140000J0D01*
G01*
X119400000Y-82310000D01*
G75*
G02*
X119260000Y-82170000I0J140000D01*
G01*
G37*
G36*
G01*
X130220000Y-82170000D02*
X130220000Y-81830000D01*
G75*
G02*
X130360000Y-81690000I140000J0D01*
G01*
X130640000Y-81690000D01*
G75*
G02*
X130780000Y-81830000I0J-140000D01*
G01*
X130780000Y-82170000D01*
G75*
G02*
X130640000Y-82310000I-140000J0D01*
G01*
X130360000Y-82310000D01*
G75*
G02*
X130220000Y-82170000I0J140000D01*
G01*
G37*
G36*
G01*
X129260000Y-82170000D02*
X129260000Y-81830000D01*
G75*
G02*
X129400000Y-81690000I140000J0D01*
G01*
X129680000Y-81690000D01*
G75*
G02*
X129820000Y-81830000I0J-140000D01*
G01*
X129820000Y-82170000D01*
G75*
G02*
X129680000Y-82310000I-140000J0D01*
G01*
X129400000Y-82310000D01*
G75*
G02*
X129260000Y-82170000I0J140000D01*
G01*
G37*
G36*
G01*
X140220000Y-82170000D02*
X140220000Y-81830000D01*
G75*
G02*
X140360000Y-81690000I140000J0D01*
G01*
X140640000Y-81690000D01*
G75*
G02*
X140780000Y-81830000I0J-140000D01*
G01*
X140780000Y-82170000D01*
G75*
G02*
X140640000Y-82310000I-140000J0D01*
G01*
X140360000Y-82310000D01*
G75*
G02*
X140220000Y-82170000I0J140000D01*
G01*
G37*
G36*
G01*
X139260000Y-82170000D02*
X139260000Y-81830000D01*
G75*
G02*
X139400000Y-81690000I140000J0D01*
G01*
X139680000Y-81690000D01*
G75*
G02*
X139820000Y-81830000I0J-140000D01*
G01*
X139820000Y-82170000D01*
G75*
G02*
X139680000Y-82310000I-140000J0D01*
G01*
X139400000Y-82310000D01*
G75*
G02*
X139260000Y-82170000I0J140000D01*
G01*
G37*
G36*
G01*
X149240000Y-82170000D02*
X149240000Y-81830000D01*
G75*
G02*
X149380000Y-81690000I140000J0D01*
G01*
X149660000Y-81690000D01*
G75*
G02*
X149800000Y-81830000I0J-140000D01*
G01*
X149800000Y-82170000D01*
G75*
G02*
X149660000Y-82310000I-140000J0D01*
G01*
X149380000Y-82310000D01*
G75*
G02*
X149240000Y-82170000I0J140000D01*
G01*
G37*
G36*
G01*
X150200000Y-82170000D02*
X150200000Y-81830000D01*
G75*
G02*
X150340000Y-81690000I140000J0D01*
G01*
X150620000Y-81690000D01*
G75*
G02*
X150760000Y-81830000I0J-140000D01*
G01*
X150760000Y-82170000D01*
G75*
G02*
X150620000Y-82310000I-140000J0D01*
G01*
X150340000Y-82310000D01*
G75*
G02*
X150200000Y-82170000I0J140000D01*
G01*
G37*
G36*
G01*
X119260000Y-92170000D02*
X119260000Y-91830000D01*
G75*
G02*
X119400000Y-91690000I140000J0D01*
G01*
X119680000Y-91690000D01*
G75*
G02*
X119820000Y-91830000I0J-140000D01*
G01*
X119820000Y-92170000D01*
G75*
G02*
X119680000Y-92310000I-140000J0D01*
G01*
X119400000Y-92310000D01*
G75*
G02*
X119260000Y-92170000I0J140000D01*
G01*
G37*
G36*
G01*
X120220000Y-92170000D02*
X120220000Y-91830000D01*
G75*
G02*
X120360000Y-91690000I140000J0D01*
G01*
X120640000Y-91690000D01*
G75*
G02*
X120780000Y-91830000I0J-140000D01*
G01*
X120780000Y-92170000D01*
G75*
G02*
X120640000Y-92310000I-140000J0D01*
G01*
X120360000Y-92310000D01*
G75*
G02*
X120220000Y-92170000I0J140000D01*
G01*
G37*
G36*
G01*
X129260000Y-92170000D02*
X129260000Y-91830000D01*
G75*
G02*
X129400000Y-91690000I140000J0D01*
G01*
X129680000Y-91690000D01*
G75*
G02*
X129820000Y-91830000I0J-140000D01*
G01*
X129820000Y-92170000D01*
G75*
G02*
X129680000Y-92310000I-140000J0D01*
G01*
X129400000Y-92310000D01*
G75*
G02*
X129260000Y-92170000I0J140000D01*
G01*
G37*
G36*
G01*
X130220000Y-92170000D02*
X130220000Y-91830000D01*
G75*
G02*
X130360000Y-91690000I140000J0D01*
G01*
X130640000Y-91690000D01*
G75*
G02*
X130780000Y-91830000I0J-140000D01*
G01*
X130780000Y-92170000D01*
G75*
G02*
X130640000Y-92310000I-140000J0D01*
G01*
X130360000Y-92310000D01*
G75*
G02*
X130220000Y-92170000I0J140000D01*
G01*
G37*
G36*
G01*
X139260000Y-92170000D02*
X139260000Y-91830000D01*
G75*
G02*
X139400000Y-91690000I140000J0D01*
G01*
X139680000Y-91690000D01*
G75*
G02*
X139820000Y-91830000I0J-140000D01*
G01*
X139820000Y-92170000D01*
G75*
G02*
X139680000Y-92310000I-140000J0D01*
G01*
X139400000Y-92310000D01*
G75*
G02*
X139260000Y-92170000I0J140000D01*
G01*
G37*
G36*
G01*
X140220000Y-92170000D02*
X140220000Y-91830000D01*
G75*
G02*
X140360000Y-91690000I140000J0D01*
G01*
X140640000Y-91690000D01*
G75*
G02*
X140780000Y-91830000I0J-140000D01*
G01*
X140780000Y-92170000D01*
G75*
G02*
X140640000Y-92310000I-140000J0D01*
G01*
X140360000Y-92310000D01*
G75*
G02*
X140220000Y-92170000I0J140000D01*
G01*
G37*
G36*
G01*
X149240000Y-92170000D02*
X149240000Y-91830000D01*
G75*
G02*
X149380000Y-91690000I140000J0D01*
G01*
X149660000Y-91690000D01*
G75*
G02*
X149800000Y-91830000I0J-140000D01*
G01*
X149800000Y-92170000D01*
G75*
G02*
X149660000Y-92310000I-140000J0D01*
G01*
X149380000Y-92310000D01*
G75*
G02*
X149240000Y-92170000I0J140000D01*
G01*
G37*
G36*
G01*
X150200000Y-92170000D02*
X150200000Y-91830000D01*
G75*
G02*
X150340000Y-91690000I140000J0D01*
G01*
X150620000Y-91690000D01*
G75*
G02*
X150760000Y-91830000I0J-140000D01*
G01*
X150760000Y-92170000D01*
G75*
G02*
X150620000Y-92310000I-140000J0D01*
G01*
X150340000Y-92310000D01*
G75*
G02*
X150200000Y-92170000I0J140000D01*
G01*
G37*
G36*
G01*
X120200000Y-102170000D02*
X120200000Y-101830000D01*
G75*
G02*
X120340000Y-101690000I140000J0D01*
G01*
X120620000Y-101690000D01*
G75*
G02*
X120760000Y-101830000I0J-140000D01*
G01*
X120760000Y-102170000D01*
G75*
G02*
X120620000Y-102310000I-140000J0D01*
G01*
X120340000Y-102310000D01*
G75*
G02*
X120200000Y-102170000I0J140000D01*
G01*
G37*
G36*
G01*
X119240000Y-102170000D02*
X119240000Y-101830000D01*
G75*
G02*
X119380000Y-101690000I140000J0D01*
G01*
X119660000Y-101690000D01*
G75*
G02*
X119800000Y-101830000I0J-140000D01*
G01*
X119800000Y-102170000D01*
G75*
G02*
X119660000Y-102310000I-140000J0D01*
G01*
X119380000Y-102310000D01*
G75*
G02*
X119240000Y-102170000I0J140000D01*
G01*
G37*
G36*
G01*
X130200000Y-102170000D02*
X130200000Y-101830000D01*
G75*
G02*
X130340000Y-101690000I140000J0D01*
G01*
X130620000Y-101690000D01*
G75*
G02*
X130760000Y-101830000I0J-140000D01*
G01*
X130760000Y-102170000D01*
G75*
G02*
X130620000Y-102310000I-140000J0D01*
G01*
X130340000Y-102310000D01*
G75*
G02*
X130200000Y-102170000I0J140000D01*
G01*
G37*
G36*
G01*
X129240000Y-102170000D02*
X129240000Y-101830000D01*
G75*
G02*
X129380000Y-101690000I140000J0D01*
G01*
X129660000Y-101690000D01*
G75*
G02*
X129800000Y-101830000I0J-140000D01*
G01*
X129800000Y-102170000D01*
G75*
G02*
X129660000Y-102310000I-140000J0D01*
G01*
X129380000Y-102310000D01*
G75*
G02*
X129240000Y-102170000I0J140000D01*
G01*
G37*
G36*
G01*
X139240000Y-102170000D02*
X139240000Y-101830000D01*
G75*
G02*
X139380000Y-101690000I140000J0D01*
G01*
X139660000Y-101690000D01*
G75*
G02*
X139800000Y-101830000I0J-140000D01*
G01*
X139800000Y-102170000D01*
G75*
G02*
X139660000Y-102310000I-140000J0D01*
G01*
X139380000Y-102310000D01*
G75*
G02*
X139240000Y-102170000I0J140000D01*
G01*
G37*
G36*
G01*
X140200000Y-102170000D02*
X140200000Y-101830000D01*
G75*
G02*
X140340000Y-101690000I140000J0D01*
G01*
X140620000Y-101690000D01*
G75*
G02*
X140760000Y-101830000I0J-140000D01*
G01*
X140760000Y-102170000D01*
G75*
G02*
X140620000Y-102310000I-140000J0D01*
G01*
X140340000Y-102310000D01*
G75*
G02*
X140200000Y-102170000I0J140000D01*
G01*
G37*
G36*
G01*
X150200000Y-102170000D02*
X150200000Y-101830000D01*
G75*
G02*
X150340000Y-101690000I140000J0D01*
G01*
X150620000Y-101690000D01*
G75*
G02*
X150760000Y-101830000I0J-140000D01*
G01*
X150760000Y-102170000D01*
G75*
G02*
X150620000Y-102310000I-140000J0D01*
G01*
X150340000Y-102310000D01*
G75*
G02*
X150200000Y-102170000I0J140000D01*
G01*
G37*
G36*
G01*
X149240000Y-102170000D02*
X149240000Y-101830000D01*
G75*
G02*
X149380000Y-101690000I140000J0D01*
G01*
X149660000Y-101690000D01*
G75*
G02*
X149800000Y-101830000I0J-140000D01*
G01*
X149800000Y-102170000D01*
G75*
G02*
X149660000Y-102310000I-140000J0D01*
G01*
X149380000Y-102310000D01*
G75*
G02*
X149240000Y-102170000I0J140000D01*
G01*
G37*
D10*
X127450000Y-76600000D03*
X127450000Y-75000000D03*
X127450000Y-73400000D03*
X122550000Y-76600000D03*
X122550000Y-75000000D03*
X122550000Y-73400000D03*
X132550000Y-73400000D03*
X132550000Y-75000000D03*
X132550000Y-76600000D03*
X137450000Y-73400000D03*
X137450000Y-75000000D03*
X137450000Y-76600000D03*
X147450000Y-76600000D03*
X147450000Y-75000000D03*
X147450000Y-73400000D03*
X142550000Y-76600000D03*
X142550000Y-75000000D03*
X142550000Y-73400000D03*
X157450000Y-76600000D03*
X157450000Y-75000000D03*
X157450000Y-73400000D03*
X152550000Y-76600000D03*
X152550000Y-75000000D03*
X152550000Y-73400000D03*
X122550000Y-83400000D03*
X122550000Y-85000000D03*
X122550000Y-86600000D03*
X127450000Y-83400000D03*
X127450000Y-85000000D03*
X127450000Y-86600000D03*
X132550000Y-83400000D03*
X132550000Y-85000000D03*
X132550000Y-86600000D03*
X137450000Y-83400000D03*
X137450000Y-85000000D03*
X137450000Y-86600000D03*
X142550000Y-83400000D03*
X142550000Y-85000000D03*
X142550000Y-86600000D03*
X147450000Y-83400000D03*
X147450000Y-85000000D03*
X147450000Y-86600000D03*
X157450000Y-86600000D03*
X157450000Y-85000000D03*
X157450000Y-83400000D03*
X152550000Y-86600000D03*
X152550000Y-85000000D03*
X152550000Y-83400000D03*
X122550000Y-93400000D03*
X122550000Y-95000000D03*
X122550000Y-96600000D03*
X127450000Y-93400000D03*
X127450000Y-95000000D03*
X127450000Y-96600000D03*
X132550000Y-93400000D03*
X132550000Y-95000000D03*
X132550000Y-96600000D03*
X137450000Y-93400000D03*
X137450000Y-95000000D03*
X137450000Y-96600000D03*
X142550000Y-93400000D03*
X142550000Y-95000000D03*
X142550000Y-96600000D03*
X147450000Y-93400000D03*
X147450000Y-95000000D03*
X147450000Y-96600000D03*
X157450000Y-96600000D03*
X157450000Y-95000000D03*
X157450000Y-93400000D03*
X152550000Y-96600000D03*
X152550000Y-95000000D03*
X152550000Y-93400000D03*
X127450000Y-106600000D03*
X127450000Y-105000000D03*
X127450000Y-103400000D03*
X122550000Y-106600000D03*
X122550000Y-105000000D03*
X122550000Y-103400000D03*
X132550000Y-103400000D03*
X132550000Y-105000000D03*
X132550000Y-106600000D03*
X137450000Y-103400000D03*
X137450000Y-105000000D03*
X137450000Y-106600000D03*
X147450000Y-106600000D03*
X147450000Y-105000000D03*
X147450000Y-103400000D03*
X142550000Y-106600000D03*
X142550000Y-105000000D03*
X142550000Y-103400000D03*
X157450000Y-106600000D03*
X157450000Y-105000000D03*
X157450000Y-103400000D03*
X152550000Y-106600000D03*
X152550000Y-105000000D03*
X152550000Y-103400000D03*
D11*
X140500000Y-56000000D03*
D12*
X137960000Y-56000000D03*
X140500000Y-58540000D03*
X137960000Y-58540000D03*
X140500000Y-61080000D03*
X137960000Y-61080000D03*
X140500000Y-63620000D03*
X137960000Y-63620000D03*
D13*
X124975000Y-56190000D03*
X130025000Y-56190000D03*
X124975000Y-58730000D03*
X130025000Y-58730000D03*
X124975000Y-61270000D03*
X130025000Y-61270000D03*
X124975000Y-63810000D03*
X130025000Y-63810000D03*
D11*
X105000000Y-55000000D03*
D12*
X105000000Y-57540000D03*
X105000000Y-60080000D03*
D14*
X111000000Y-87000000D03*
D15*
X111000000Y-92000000D03*
G36*
G01*
X120685000Y-73760000D02*
X120315000Y-73760000D01*
G75*
G02*
X120180000Y-73625000I0J135000D01*
G01*
X120180000Y-73355000D01*
G75*
G02*
X120315000Y-73220000I135000J0D01*
G01*
X120685000Y-73220000D01*
G75*
G02*
X120820000Y-73355000I0J-135000D01*
G01*
X120820000Y-73625000D01*
G75*
G02*
X120685000Y-73760000I-135000J0D01*
G01*
G37*
G36*
G01*
X120685000Y-74780000D02*
X120315000Y-74780000D01*
G75*
G02*
X120180000Y-74645000I0J135000D01*
G01*
X120180000Y-74375000D01*
G75*
G02*
X120315000Y-74240000I135000J0D01*
G01*
X120685000Y-74240000D01*
G75*
G02*
X120820000Y-74375000I0J-135000D01*
G01*
X120820000Y-74645000D01*
G75*
G02*
X120685000Y-74780000I-135000J0D01*
G01*
G37*
G36*
G01*
X130685000Y-73760000D02*
X130315000Y-73760000D01*
G75*
G02*
X130180000Y-73625000I0J135000D01*
G01*
X130180000Y-73355000D01*
G75*
G02*
X130315000Y-73220000I135000J0D01*
G01*
X130685000Y-73220000D01*
G75*
G02*
X130820000Y-73355000I0J-135000D01*
G01*
X130820000Y-73625000D01*
G75*
G02*
X130685000Y-73760000I-135000J0D01*
G01*
G37*
G36*
G01*
X130685000Y-74780000D02*
X130315000Y-74780000D01*
G75*
G02*
X130180000Y-74645000I0J135000D01*
G01*
X130180000Y-74375000D01*
G75*
G02*
X130315000Y-74240000I135000J0D01*
G01*
X130685000Y-74240000D01*
G75*
G02*
X130820000Y-74375000I0J-135000D01*
G01*
X130820000Y-74645000D01*
G75*
G02*
X130685000Y-74780000I-135000J0D01*
G01*
G37*
G36*
G01*
X140685000Y-73760000D02*
X140315000Y-73760000D01*
G75*
G02*
X140180000Y-73625000I0J135000D01*
G01*
X140180000Y-73355000D01*
G75*
G02*
X140315000Y-73220000I135000J0D01*
G01*
X140685000Y-73220000D01*
G75*
G02*
X140820000Y-73355000I0J-135000D01*
G01*
X140820000Y-73625000D01*
G75*
G02*
X140685000Y-73760000I-135000J0D01*
G01*
G37*
G36*
G01*
X140685000Y-74780000D02*
X140315000Y-74780000D01*
G75*
G02*
X140180000Y-74645000I0J135000D01*
G01*
X140180000Y-74375000D01*
G75*
G02*
X140315000Y-74240000I135000J0D01*
G01*
X140685000Y-74240000D01*
G75*
G02*
X140820000Y-74375000I0J-135000D01*
G01*
X140820000Y-74645000D01*
G75*
G02*
X140685000Y-74780000I-135000J0D01*
G01*
G37*
G36*
G01*
X150685000Y-73760000D02*
X150315000Y-73760000D01*
G75*
G02*
X150180000Y-73625000I0J135000D01*
G01*
X150180000Y-73355000D01*
G75*
G02*
X150315000Y-73220000I135000J0D01*
G01*
X150685000Y-73220000D01*
G75*
G02*
X150820000Y-73355000I0J-135000D01*
G01*
X150820000Y-73625000D01*
G75*
G02*
X150685000Y-73760000I-135000J0D01*
G01*
G37*
G36*
G01*
X150685000Y-74780000D02*
X150315000Y-74780000D01*
G75*
G02*
X150180000Y-74645000I0J135000D01*
G01*
X150180000Y-74375000D01*
G75*
G02*
X150315000Y-74240000I135000J0D01*
G01*
X150685000Y-74240000D01*
G75*
G02*
X150820000Y-74375000I0J-135000D01*
G01*
X150820000Y-74645000D01*
G75*
G02*
X150685000Y-74780000I-135000J0D01*
G01*
G37*
G36*
G01*
X120685000Y-83760000D02*
X120315000Y-83760000D01*
G75*
G02*
X120180000Y-83625000I0J135000D01*
G01*
X120180000Y-83355000D01*
G75*
G02*
X120315000Y-83220000I135000J0D01*
G01*
X120685000Y-83220000D01*
G75*
G02*
X120820000Y-83355000I0J-135000D01*
G01*
X120820000Y-83625000D01*
G75*
G02*
X120685000Y-83760000I-135000J0D01*
G01*
G37*
G36*
G01*
X120685000Y-84780000D02*
X120315000Y-84780000D01*
G75*
G02*
X120180000Y-84645000I0J135000D01*
G01*
X120180000Y-84375000D01*
G75*
G02*
X120315000Y-84240000I135000J0D01*
G01*
X120685000Y-84240000D01*
G75*
G02*
X120820000Y-84375000I0J-135000D01*
G01*
X120820000Y-84645000D01*
G75*
G02*
X120685000Y-84780000I-135000J0D01*
G01*
G37*
G36*
G01*
X130685000Y-83760000D02*
X130315000Y-83760000D01*
G75*
G02*
X130180000Y-83625000I0J135000D01*
G01*
X130180000Y-83355000D01*
G75*
G02*
X130315000Y-83220000I135000J0D01*
G01*
X130685000Y-83220000D01*
G75*
G02*
X130820000Y-83355000I0J-135000D01*
G01*
X130820000Y-83625000D01*
G75*
G02*
X130685000Y-83760000I-135000J0D01*
G01*
G37*
G36*
G01*
X130685000Y-84780000D02*
X130315000Y-84780000D01*
G75*
G02*
X130180000Y-84645000I0J135000D01*
G01*
X130180000Y-84375000D01*
G75*
G02*
X130315000Y-84240000I135000J0D01*
G01*
X130685000Y-84240000D01*
G75*
G02*
X130820000Y-84375000I0J-135000D01*
G01*
X130820000Y-84645000D01*
G75*
G02*
X130685000Y-84780000I-135000J0D01*
G01*
G37*
G36*
G01*
X140685000Y-83760000D02*
X140315000Y-83760000D01*
G75*
G02*
X140180000Y-83625000I0J135000D01*
G01*
X140180000Y-83355000D01*
G75*
G02*
X140315000Y-83220000I135000J0D01*
G01*
X140685000Y-83220000D01*
G75*
G02*
X140820000Y-83355000I0J-135000D01*
G01*
X140820000Y-83625000D01*
G75*
G02*
X140685000Y-83760000I-135000J0D01*
G01*
G37*
G36*
G01*
X140685000Y-84780000D02*
X140315000Y-84780000D01*
G75*
G02*
X140180000Y-84645000I0J135000D01*
G01*
X140180000Y-84375000D01*
G75*
G02*
X140315000Y-84240000I135000J0D01*
G01*
X140685000Y-84240000D01*
G75*
G02*
X140820000Y-84375000I0J-135000D01*
G01*
X140820000Y-84645000D01*
G75*
G02*
X140685000Y-84780000I-135000J0D01*
G01*
G37*
G36*
G01*
X150685000Y-84770000D02*
X150315000Y-84770000D01*
G75*
G02*
X150180000Y-84635000I0J135000D01*
G01*
X150180000Y-84365000D01*
G75*
G02*
X150315000Y-84230000I135000J0D01*
G01*
X150685000Y-84230000D01*
G75*
G02*
X150820000Y-84365000I0J-135000D01*
G01*
X150820000Y-84635000D01*
G75*
G02*
X150685000Y-84770000I-135000J0D01*
G01*
G37*
G36*
G01*
X150685000Y-83750000D02*
X150315000Y-83750000D01*
G75*
G02*
X150180000Y-83615000I0J135000D01*
G01*
X150180000Y-83345000D01*
G75*
G02*
X150315000Y-83210000I135000J0D01*
G01*
X150685000Y-83210000D01*
G75*
G02*
X150820000Y-83345000I0J-135000D01*
G01*
X150820000Y-83615000D01*
G75*
G02*
X150685000Y-83750000I-135000J0D01*
G01*
G37*
G36*
G01*
X120685000Y-94780000D02*
X120315000Y-94780000D01*
G75*
G02*
X120180000Y-94645000I0J135000D01*
G01*
X120180000Y-94375000D01*
G75*
G02*
X120315000Y-94240000I135000J0D01*
G01*
X120685000Y-94240000D01*
G75*
G02*
X120820000Y-94375000I0J-135000D01*
G01*
X120820000Y-94645000D01*
G75*
G02*
X120685000Y-94780000I-135000J0D01*
G01*
G37*
G36*
G01*
X120685000Y-93760000D02*
X120315000Y-93760000D01*
G75*
G02*
X120180000Y-93625000I0J135000D01*
G01*
X120180000Y-93355000D01*
G75*
G02*
X120315000Y-93220000I135000J0D01*
G01*
X120685000Y-93220000D01*
G75*
G02*
X120820000Y-93355000I0J-135000D01*
G01*
X120820000Y-93625000D01*
G75*
G02*
X120685000Y-93760000I-135000J0D01*
G01*
G37*
G36*
G01*
X130685000Y-94780000D02*
X130315000Y-94780000D01*
G75*
G02*
X130180000Y-94645000I0J135000D01*
G01*
X130180000Y-94375000D01*
G75*
G02*
X130315000Y-94240000I135000J0D01*
G01*
X130685000Y-94240000D01*
G75*
G02*
X130820000Y-94375000I0J-135000D01*
G01*
X130820000Y-94645000D01*
G75*
G02*
X130685000Y-94780000I-135000J0D01*
G01*
G37*
G36*
G01*
X130685000Y-93760000D02*
X130315000Y-93760000D01*
G75*
G02*
X130180000Y-93625000I0J135000D01*
G01*
X130180000Y-93355000D01*
G75*
G02*
X130315000Y-93220000I135000J0D01*
G01*
X130685000Y-93220000D01*
G75*
G02*
X130820000Y-93355000I0J-135000D01*
G01*
X130820000Y-93625000D01*
G75*
G02*
X130685000Y-93760000I-135000J0D01*
G01*
G37*
G36*
G01*
X140685000Y-94780000D02*
X140315000Y-94780000D01*
G75*
G02*
X140180000Y-94645000I0J135000D01*
G01*
X140180000Y-94375000D01*
G75*
G02*
X140315000Y-94240000I135000J0D01*
G01*
X140685000Y-94240000D01*
G75*
G02*
X140820000Y-94375000I0J-135000D01*
G01*
X140820000Y-94645000D01*
G75*
G02*
X140685000Y-94780000I-135000J0D01*
G01*
G37*
G36*
G01*
X140685000Y-93760000D02*
X140315000Y-93760000D01*
G75*
G02*
X140180000Y-93625000I0J135000D01*
G01*
X140180000Y-93355000D01*
G75*
G02*
X140315000Y-93220000I135000J0D01*
G01*
X140685000Y-93220000D01*
G75*
G02*
X140820000Y-93355000I0J-135000D01*
G01*
X140820000Y-93625000D01*
G75*
G02*
X140685000Y-93760000I-135000J0D01*
G01*
G37*
G36*
G01*
X150685000Y-94780000D02*
X150315000Y-94780000D01*
G75*
G02*
X150180000Y-94645000I0J135000D01*
G01*
X150180000Y-94375000D01*
G75*
G02*
X150315000Y-94240000I135000J0D01*
G01*
X150685000Y-94240000D01*
G75*
G02*
X150820000Y-94375000I0J-135000D01*
G01*
X150820000Y-94645000D01*
G75*
G02*
X150685000Y-94780000I-135000J0D01*
G01*
G37*
G36*
G01*
X150685000Y-93760000D02*
X150315000Y-93760000D01*
G75*
G02*
X150180000Y-93625000I0J135000D01*
G01*
X150180000Y-93355000D01*
G75*
G02*
X150315000Y-93220000I135000J0D01*
G01*
X150685000Y-93220000D01*
G75*
G02*
X150820000Y-93355000I0J-135000D01*
G01*
X150820000Y-93625000D01*
G75*
G02*
X150685000Y-93760000I-135000J0D01*
G01*
G37*
G36*
G01*
X120685000Y-104780000D02*
X120315000Y-104780000D01*
G75*
G02*
X120180000Y-104645000I0J135000D01*
G01*
X120180000Y-104375000D01*
G75*
G02*
X120315000Y-104240000I135000J0D01*
G01*
X120685000Y-104240000D01*
G75*
G02*
X120820000Y-104375000I0J-135000D01*
G01*
X120820000Y-104645000D01*
G75*
G02*
X120685000Y-104780000I-135000J0D01*
G01*
G37*
G36*
G01*
X120685000Y-103760000D02*
X120315000Y-103760000D01*
G75*
G02*
X120180000Y-103625000I0J135000D01*
G01*
X120180000Y-103355000D01*
G75*
G02*
X120315000Y-103220000I135000J0D01*
G01*
X120685000Y-103220000D01*
G75*
G02*
X120820000Y-103355000I0J-135000D01*
G01*
X120820000Y-103625000D01*
G75*
G02*
X120685000Y-103760000I-135000J0D01*
G01*
G37*
G36*
G01*
X130685000Y-104790000D02*
X130315000Y-104790000D01*
G75*
G02*
X130180000Y-104655000I0J135000D01*
G01*
X130180000Y-104385000D01*
G75*
G02*
X130315000Y-104250000I135000J0D01*
G01*
X130685000Y-104250000D01*
G75*
G02*
X130820000Y-104385000I0J-135000D01*
G01*
X130820000Y-104655000D01*
G75*
G02*
X130685000Y-104790000I-135000J0D01*
G01*
G37*
G36*
G01*
X130685000Y-103770000D02*
X130315000Y-103770000D01*
G75*
G02*
X130180000Y-103635000I0J135000D01*
G01*
X130180000Y-103365000D01*
G75*
G02*
X130315000Y-103230000I135000J0D01*
G01*
X130685000Y-103230000D01*
G75*
G02*
X130820000Y-103365000I0J-135000D01*
G01*
X130820000Y-103635000D01*
G75*
G02*
X130685000Y-103770000I-135000J0D01*
G01*
G37*
G36*
G01*
X140685000Y-104780000D02*
X140315000Y-104780000D01*
G75*
G02*
X140180000Y-104645000I0J135000D01*
G01*
X140180000Y-104375000D01*
G75*
G02*
X140315000Y-104240000I135000J0D01*
G01*
X140685000Y-104240000D01*
G75*
G02*
X140820000Y-104375000I0J-135000D01*
G01*
X140820000Y-104645000D01*
G75*
G02*
X140685000Y-104780000I-135000J0D01*
G01*
G37*
G36*
G01*
X140685000Y-103760000D02*
X140315000Y-103760000D01*
G75*
G02*
X140180000Y-103625000I0J135000D01*
G01*
X140180000Y-103355000D01*
G75*
G02*
X140315000Y-103220000I135000J0D01*
G01*
X140685000Y-103220000D01*
G75*
G02*
X140820000Y-103355000I0J-135000D01*
G01*
X140820000Y-103625000D01*
G75*
G02*
X140685000Y-103760000I-135000J0D01*
G01*
G37*
G36*
G01*
X150685000Y-103760000D02*
X150315000Y-103760000D01*
G75*
G02*
X150180000Y-103625000I0J135000D01*
G01*
X150180000Y-103355000D01*
G75*
G02*
X150315000Y-103220000I135000J0D01*
G01*
X150685000Y-103220000D01*
G75*
G02*
X150820000Y-103355000I0J-135000D01*
G01*
X150820000Y-103625000D01*
G75*
G02*
X150685000Y-103760000I-135000J0D01*
G01*
G37*
G36*
G01*
X150685000Y-104780000D02*
X150315000Y-104780000D01*
G75*
G02*
X150180000Y-104645000I0J135000D01*
G01*
X150180000Y-104375000D01*
G75*
G02*
X150315000Y-104240000I135000J0D01*
G01*
X150685000Y-104240000D01*
G75*
G02*
X150820000Y-104375000I0J-135000D01*
G01*
X150820000Y-104645000D01*
G75*
G02*
X150685000Y-104780000I-135000J0D01*
G01*
G37*
D16*
X152500000Y-109000000D03*
D17*
X114150000Y-75000000D03*
D18*
X107850000Y-75000000D03*
X107850000Y-77300000D03*
X107850000Y-72700000D03*
D19*
X115000000Y-65000000D03*
X165000000Y-65000000D03*
X115000000Y-115000000D03*
X165000000Y-115000000D03*
M02*
