M48
; DRILL file {KiCad 5.1.9+dfsg1-1~bpo10+1} date Fri Sep 24 07:36:11 2021
; FORMAT={-:-/ absolute / inch / decimal}
; #@! TF.CreationDate,2021-09-24T07:36:11+00:00
; #@! TF.GenerationSoftware,Kicad,Pcbnew,5.1.9+dfsg1-1~bpo10+1
; #@! TF.FileFunction,Plated,1,2,PTH
FMAT,2
INCH
T1C0.0157
T2C0.0394
T3C0.0453
T4C0.1693
%
G90
G05
T1
X4.6457Y-2.9528
X4.6654Y-3.2677
X4.6654Y-3.6024
X4.685Y-2.874
X4.685Y-3.1496
X4.685Y-3.4646
X4.685Y-3.9567
X4.7047Y-2.2244
X4.7047Y-3.8583
X4.8228Y-2.2047
X4.8228Y-2.3425
X4.8228Y-3.0709
X4.8228Y-3.4646
X4.8228Y-3.8583
X4.8228Y-4.252
X4.9016Y-3.9764
X4.9213Y-3.563
X4.9409Y-3.189
X5.0787Y-2.9724
X5.0787Y-3.3661
X5.0787Y-3.7795
X5.0787Y-4.1732
X5.1378Y-2.6969
X5.2165Y-3.1102
X5.2165Y-3.5039
X5.2165Y-3.8976
X5.2165Y-4.2913
X5.2953Y-2.7756
X5.315Y-2.5984
X5.3543Y-2.8937
X5.3543Y-3.2874
X5.3543Y-3.6811
X5.3543Y-4.0748
X5.4331Y-2.6969
X5.4724Y-2.9921
X5.4724Y-3.3858
X5.4724Y-3.7795
X5.4724Y-4.1732
X5.748Y-2.8937
X5.748Y-3.2874
X5.748Y-3.6811
X5.748Y-4.0748
X5.8661Y-2.9921
X5.8661Y-3.3858
X5.8661Y-3.7795
X5.8661Y-4.1732
X6.0039Y-3.0512
X6.0039Y-3.4606
X6.0039Y-3.8543
X6.1417Y-2.8937
X6.1417Y-3.2874
X6.1417Y-3.6811
X6.1417Y-4.0748
T2
X4.1339Y-2.1654
X4.1339Y-2.2654
X4.1339Y-2.3654
X5.4315Y-2.2047
X5.4315Y-2.3047
X5.4315Y-2.4047
X5.4315Y-2.5047
X5.5315Y-2.2047
X5.5315Y-2.3047
X5.5315Y-2.4047
X5.5315Y-2.5047
T3
X4.3701Y-3.4252
X4.3701Y-3.622
T4
X4.5276Y-2.5591
X4.5276Y-4.5276
X6.4961Y-2.5591
X6.4961Y-4.5276
T0
M30
